<svg width="24" height="24" viewBox="0 0 24 24" fill="none" xmlns="http://www.w3.org/2000/svg">
<path d="M20.828 8.00929L14.278 2.76929C12.998 1.74929 10.998 1.73929 9.72801 2.75929L3.17801 8.00929C2.23801 8.75929 1.66801 10.2593 1.86801 11.4393L3.12801 18.9793C3.41801 20.6693 4.98801 21.9993 6.69801 21.9993H17.298C18.988 21.9993 20.588 20.6393 20.878 18.9693L22.138 11.4293C22.318 10.2593 21.748 8.75929 20.828 8.00929ZM12.748 17.9993C12.748 18.4093 12.408 18.7493 11.998 18.7493C11.588 18.7493 11.248 18.4093 11.248 17.9993V14.9993C11.248 14.5893 11.588 14.2493 11.998 14.2493C12.408 14.2493 12.748 14.5893 12.748 14.9993V17.9993Z" fill="#030303"/>
</svg>
