<svg width="24" height="24" viewBox="0 0 24 24" fill="none" xmlns="http://www.w3.org/2000/svg">
<path d="M18.5438 1.21875H5.45625C4.3327 1.21974 3.25545 1.66651 2.46098 2.46098C1.66651 3.25545 1.21974 4.3327 1.21875 5.45625V18.5438C1.21974 19.6673 1.66651 20.7445 2.46098 21.539C3.25545 22.3335 4.3327 22.7803 5.45625 22.7812H18.5438C19.6673 22.7803 20.7445 22.3335 21.539 21.539C22.3335 20.7445 22.7803 19.6673 22.7812 18.5438V5.45625C22.7803 4.3327 22.3335 3.25545 21.539 2.46098C20.7445 1.66651 19.6673 1.21974 18.5438 1.21875ZM12.21 18.75C12.1836 18.7796 12.1513 18.8033 12.1151 18.8195C12.0789 18.8358 12.0397 18.8442 12 18.8442C11.9603 18.8442 11.9211 18.8358 11.8849 18.8195C11.8487 18.8033 11.8164 18.7796 11.79 18.75C11.595 18.5325 6.975 13.35 6.975 10.5C6.975 7.56375 9.225 5.17125 12 5.17125C14.775 5.17125 17.025 7.54875 17.025 10.5C17.025 13.35 12.405 18.5325 12.21 18.75Z" fill="#030303"/>
<path d="M12 12.1574C13.1784 12.1574 14.1338 11.2021 14.1338 10.0236C14.1338 8.8452 13.1784 7.88989 12 7.88989C10.8216 7.88989 9.86626 8.8452 9.86626 10.0236C9.86626 11.2021 10.8216 12.1574 12 12.1574Z" fill="#030303"/>
</svg>
