<svg width="24" height="24" viewBox="0 0 24 24" fill="none" xmlns="http://www.w3.org/2000/svg">
<path d="M22.4828 10.7661L20.8104 9.09164C20.5244 8.80521 20.2933 8.24336 20.2933 7.84677V5.4672C20.2933 4.49775 19.5011 3.70456 18.5329 3.70456H16.1673C15.7712 3.70456 15.21 3.47321 14.924 3.18678L13.2515 1.51227C12.5694 0.829244 11.4471 0.829244 10.7649 1.51227L9.07051 3.18678C8.79544 3.47321 8.2343 3.70456 7.8272 3.70456H5.46161C4.49337 3.70456 3.70117 4.49775 3.70117 5.4672V7.83575C3.70117 8.23235 3.47011 8.79419 3.18404 9.08062L1.51163 10.7551C0.829458 11.4382 0.829458 12.5618 1.51163 13.2449L3.18404 14.9194C3.47011 15.2058 3.70117 15.7677 3.70117 16.1642V18.5328C3.70117 19.5023 4.49337 20.2954 5.46161 20.2954H7.8272C8.22329 20.2954 8.78443 20.5268 9.07051 20.8132L10.7429 22.4877C11.4251 23.1708 12.5474 23.1708 13.2295 22.4877L14.902 20.8132C15.188 20.5268 15.7492 20.2954 16.1453 20.2954H18.5109C19.4791 20.2954 20.2713 19.5023 20.2713 18.5328V16.1642C20.2713 15.7677 20.5023 15.2058 20.7884 14.9194L22.4608 13.2449C23.176 12.5729 23.176 11.4492 22.4828 10.7661ZM7.59614 8.70606C7.59614 8.10015 8.09126 7.60441 8.69641 7.60441C9.30156 7.60441 9.79669 8.10015 9.79669 8.70606C9.79669 9.31197 9.31257 9.80771 8.69641 9.80771C8.09126 9.80771 7.59614 9.31197 7.59614 8.70606ZM9.27956 15.8998C9.11452 16.0651 8.90546 16.1422 8.69641 16.1422C8.48736 16.1422 8.27831 16.0651 8.11327 15.8998C7.9598 15.7444 7.87374 15.5346 7.87374 15.316C7.87374 15.0974 7.9598 14.8876 8.11327 14.7321L14.7149 8.12218C15.034 7.8027 15.5621 7.8027 15.8812 8.12218C16.2003 8.44166 16.2003 8.97046 15.8812 9.28993L9.27956 15.8998ZM15.2981 16.4176C14.6819 16.4176 14.1868 15.9219 14.1868 15.316C14.1868 14.7101 14.6819 14.2143 15.2871 14.2143C15.8922 14.2143 16.3873 14.7101 16.3873 15.316C16.3873 15.9219 15.9032 16.4176 15.2981 16.4176Z" fill="#030303"/>
</svg>
