<svg width="34" height="34" viewBox="0 0 34 34" fill="none" xmlns="http://www.w3.org/2000/svg">
<path d="M31.1664 5.66602H2.83307C1.58123 5.66602 0.566406 6.68084 0.566406 7.93268V24.9327C0.566406 26.1845 1.58123 27.1994 2.83307 27.1994H31.1664C32.4183 27.1994 33.4331 26.1845 33.4331 24.9327V7.93268C33.4331 6.68084 32.4183 5.66602 31.1664 5.66602Z" fill="#25A3DA"/>
<path d="M26.6336 24.9332C27.5725 24.9332 28.3336 24.1721 28.3336 23.2332C28.3336 22.2943 27.5725 21.5332 26.6336 21.5332C25.6947 21.5332 24.9336 22.2943 24.9336 23.2332C24.9336 24.1721 25.6947 24.9332 26.6336 24.9332Z" fill="#EC3A48"/>
<path d="M8.4987 8.5H3.96536C3.33944 8.5 2.83203 9.00741 2.83203 9.63333V13.0333C2.83203 13.6593 3.33944 14.1667 3.96536 14.1667H8.4987C9.12462 14.1667 9.63203 13.6593 9.63203 13.0333V9.63333C9.63203 9.00741 9.12462 8.5 8.4987 8.5Z" fill="#FCCB55"/>
<path d="M29.4656 24.9332C30.4045 24.9332 31.1656 24.1721 31.1656 23.2332C31.1656 22.2943 30.4045 21.5332 29.4656 21.5332C28.5267 21.5332 27.7656 22.2943 27.7656 23.2332C27.7656 24.1721 28.5267 24.9332 29.4656 24.9332Z" fill="#FCCB55"/>
<path d="M26.0662 13.6016C25.9504 13.6015 25.8373 13.5659 25.7423 13.4996C25.6473 13.4333 25.5749 13.3394 25.5349 13.2307C25.4948 13.1219 25.4891 13.0035 25.5185 12.8914C25.5478 12.7793 25.6109 12.6789 25.699 12.6037C25.8123 12.525 25.9048 12.42 25.9687 12.2977C26.0327 12.1755 26.066 12.0396 26.066 11.9016C26.066 11.7637 26.0327 11.6278 25.9687 11.5055C25.9048 11.3833 25.8123 11.2783 25.699 11.1995C25.5847 11.1018 25.5138 10.9627 25.502 10.8128C25.4902 10.6628 25.5385 10.5143 25.6361 10.4C25.7338 10.2856 25.8729 10.2147 26.0229 10.2029C26.1728 10.1911 26.3213 10.2394 26.4357 10.3371C26.6738 10.5225 26.8663 10.7598 26.9988 11.031C27.1313 11.3021 27.2001 11.5999 27.2001 11.9016C27.2001 12.2034 27.1313 12.5012 26.9988 12.7723C26.8663 13.0434 26.6738 13.2807 26.4357 13.4662C26.3329 13.5544 26.2017 13.6025 26.0662 13.6016Z" fill="#295474"/>
<path d="M27.7644 15.3012C27.6539 15.3011 27.5459 15.2688 27.4535 15.2081C27.3612 15.1474 27.2886 15.0611 27.2447 14.9596C27.2008 14.8582 27.1875 14.7462 27.2064 14.6373C27.2254 14.5285 27.2758 14.4275 27.3513 14.3469C27.9803 13.688 28.3312 12.8121 28.3312 11.9012C28.3312 10.9903 27.9803 10.1144 27.3513 9.45546C27.2981 9.40166 27.2562 9.33774 27.2281 9.26748C27.2 9.19722 27.1862 9.12204 27.1876 9.04637C27.189 8.97071 27.2056 8.89609 27.2363 8.82692C27.267 8.75775 27.3112 8.69544 27.3664 8.64366C27.4216 8.59187 27.4866 8.55167 27.5576 8.52542C27.6286 8.49917 27.7041 8.4874 27.7797 8.49081C27.8553 8.49422 27.9295 8.51274 27.9978 8.54528C28.0661 8.57782 28.1272 8.62371 28.1775 8.68026C29.0037 9.54914 29.4644 10.7022 29.4644 11.9012C29.4644 13.1001 29.0037 14.2532 28.1775 15.1221C28.1246 15.1786 28.0606 15.2236 27.9895 15.2544C27.9185 15.2852 27.8419 15.3012 27.7644 15.3012Z" fill="#295474"/>
<path d="M29.4656 16.4342C29.3533 16.4343 29.2436 16.401 29.1502 16.3386C29.0569 16.2763 28.9842 16.1876 28.9414 16.0839C28.8985 15.9801 28.8874 15.866 28.9095 15.7559C28.9316 15.6459 28.9859 15.5449 29.0655 15.4657C29.5498 15.0069 29.9356 14.4541 30.1992 13.8412C30.4629 13.2283 30.5988 12.568 30.5988 11.9008C30.5988 11.2336 30.4629 10.5734 30.1992 9.9605C29.9356 9.34758 29.5498 8.79482 29.0655 8.33594C28.9589 8.22983 28.8989 8.08575 28.8986 7.93537C28.8983 7.785 28.9577 7.64066 29.0638 7.5341C29.1699 7.42755 29.314 7.36751 29.4644 7.36719C29.6147 7.36687 29.7591 7.4263 29.8656 7.5324C30.4556 8.09677 30.9252 8.7748 31.246 9.52559C31.5668 10.2764 31.7322 11.0844 31.7322 11.9008C31.7322 12.7173 31.5668 13.5253 31.246 14.2761C30.9252 15.0269 30.4556 15.7049 29.8656 16.2693C29.7593 16.375 29.6155 16.4343 29.4656 16.4342Z" fill="#295474"/>
<path d="M6.23203 24.9341H3.3987C3.24841 24.9341 3.10427 24.8744 2.998 24.7681C2.89173 24.6619 2.83203 24.5177 2.83203 24.3674C2.83203 24.2172 2.89173 24.073 2.998 23.9668C3.10427 23.8605 3.24841 23.8008 3.3987 23.8008H6.23203C6.38232 23.8008 6.52645 23.8605 6.63273 23.9668C6.739 24.073 6.7987 24.2172 6.7987 24.3674C6.7987 24.5177 6.739 24.6619 6.63273 24.7681C6.52645 24.8744 6.38232 24.9341 6.23203 24.9341Z" fill="#295474"/>
<path d="M7.93151 19.2681H4.53151C4.38122 19.2681 4.23709 19.2084 4.13082 19.1021C4.02455 18.9959 3.96484 18.8517 3.96484 18.7014C3.96484 18.5511 4.02455 18.407 4.13082 18.3007C4.23709 18.1945 4.38122 18.1348 4.53151 18.1348H7.93151C8.0818 18.1348 8.22593 18.1945 8.3322 18.3007C8.43847 18.407 8.49818 18.5511 8.49818 18.7014C8.49818 18.8517 8.43847 18.9959 8.3322 19.1021C8.22593 19.2084 8.0818 19.2681 7.93151 19.2681Z" fill="#295474"/>
<path d="M13.5995 19.2681H10.1995C10.0492 19.2681 9.90506 19.2084 9.79878 19.1021C9.69251 18.9959 9.63281 18.8517 9.63281 18.7014C9.63281 18.5511 9.69251 18.407 9.79878 18.3007C9.90506 18.1945 10.0492 18.1348 10.1995 18.1348H13.5995C13.7498 18.1348 13.8939 18.1945 14.0002 18.3007C14.1064 18.407 14.1661 18.5511 14.1661 18.7014C14.1661 18.8517 14.1064 18.9959 14.0002 19.1021C13.8939 19.2084 13.7498 19.2681 13.5995 19.2681Z" fill="#295474"/>
<path d="M19.2635 19.2681H15.8635C15.7133 19.2681 15.5691 19.2084 15.4628 19.1021C15.3566 18.9959 15.2969 18.8517 15.2969 18.7014C15.2969 18.5511 15.3566 18.407 15.4628 18.3007C15.5691 18.1945 15.7133 18.1348 15.8635 18.1348H19.2635C19.4138 18.1348 19.558 18.1945 19.6642 18.3007C19.7705 18.407 19.8302 18.5511 19.8302 18.7014C19.8302 18.8517 19.7705 18.9959 19.6642 19.1021C19.558 19.2084 19.4138 19.2681 19.2635 19.2681Z" fill="#295474"/>
<path d="M24.9315 19.2681H21.5315C21.3812 19.2681 21.2371 19.2084 21.1308 19.1021C21.0245 18.9959 20.9648 18.8517 20.9648 18.7014C20.9648 18.5511 21.0245 18.407 21.1308 18.3007C21.2371 18.1945 21.3812 18.1348 21.5315 18.1348H24.9315C25.0818 18.1348 25.2259 18.1945 25.3322 18.3007C25.4385 18.407 25.4982 18.5511 25.4982 18.7014C25.4982 18.8517 25.4385 18.9959 25.3322 19.1021C25.2259 19.2084 25.0818 19.2681 24.9315 19.2681Z" fill="#295474"/>
<path d="M11.3336 24.9341H8.50026C8.34997 24.9341 8.20584 24.8744 8.09957 24.7681C7.9933 24.6619 7.93359 24.5177 7.93359 24.3674C7.93359 24.2172 7.9933 24.073 8.09957 23.9668C8.20584 23.8605 8.34997 23.8008 8.50026 23.8008H11.3336C11.4839 23.8008 11.628 23.8605 11.7343 23.9668C11.8406 24.073 11.9003 24.2172 11.9003 24.3674C11.9003 24.5177 11.8406 24.6619 11.7343 24.7681C11.628 24.8744 11.4839 24.9341 11.3336 24.9341Z" fill="#295474"/>
<path d="M13.0326 21.5337H10.7659C10.6156 21.5337 10.4715 21.474 10.3652 21.3678C10.2589 21.2615 10.1992 21.1173 10.1992 20.9671C10.1992 20.8168 10.2589 20.6726 10.3652 20.5664C10.4715 20.4601 10.6156 20.4004 10.7659 20.4004H13.0326C13.1828 20.4004 13.327 20.4601 13.4332 20.5664C13.5395 20.6726 13.5992 20.8168 13.5992 20.9671C13.5992 21.1173 13.5395 21.2615 13.4332 21.3678C13.327 21.474 13.1828 21.5337 13.0326 21.5337Z" fill="#295474"/>
<path d="M15.8638 21.5337H15.2971C15.1468 21.5337 15.0027 21.474 14.8964 21.3678C14.7902 21.2615 14.7305 21.1173 14.7305 20.9671C14.7305 20.8168 14.7902 20.6726 14.8964 20.5664C15.0027 20.4601 15.1468 20.4004 15.2971 20.4004H15.8638C16.0141 20.4004 16.1582 20.4601 16.2645 20.5664C16.3708 20.6726 16.4305 20.8168 16.4305 20.9671C16.4305 21.1173 16.3708 21.2615 16.2645 21.3678C16.1582 21.474 16.0141 21.5337 15.8638 21.5337Z" fill="#295474"/>
<path d="M18.6997 21.5337H18.1331C17.9828 21.5337 17.8386 21.474 17.7324 21.3678C17.6261 21.2615 17.5664 21.1173 17.5664 20.9671C17.5664 20.8168 17.6261 20.6726 17.7324 20.5664C17.8386 20.4601 17.9828 20.4004 18.1331 20.4004H18.6997C18.85 20.4004 18.9942 20.4601 19.1004 20.5664C19.2067 20.6726 19.2664 20.8168 19.2664 20.9671C19.2664 21.1173 19.2067 21.2615 19.1004 21.3678C18.9942 21.474 18.85 21.5337 18.6997 21.5337Z" fill="#295474"/>
<path d="M5.66537 14.1667V12.4667H9.63203V11.3333H7.93203V8.5H6.7987V11.3333H5.66537V8.5H4.53203V11.3333H2.83203V12.4667H4.53203V14.1667H5.66537Z" fill="#E2B550"/>
</svg>
