<svg width="32" height="20" viewBox="0 0 32 20" fill="none" xmlns="http://www.w3.org/2000/svg">
<path d="M30.9743 19.0708H1.02311C0.458026 19.0708 0 18.6127 0 18.0476V1.95182C0 1.3868 0.458026 0.928711 1.02311 0.928711H30.9743C31.5393 0.928711 31.9974 1.38674 31.9974 1.95182V18.0476C31.9974 18.6127 31.5394 19.0708 30.9743 19.0708Z" fill="#5EA570"/>
<path d="M30.9785 0.928711H29.625C30.1901 0.928711 30.6481 1.38674 30.6481 1.95182V18.0476C30.6481 18.6127 30.1901 19.0708 29.625 19.0708H30.9785C31.5435 19.0708 32.0016 18.6127 32.0016 18.0476V1.95182C32.0016 1.3868 31.5435 0.928711 30.9785 0.928711Z" fill="#528E61"/>
<path d="M28.426 13.8573C28.5129 13.8502 28.5795 13.7777 28.5795 13.6905V6.30846C28.5795 6.22141 28.5128 6.14879 28.426 6.14166C27.5251 6.06773 26.807 5.3486 26.7345 4.44724C26.7276 4.36212 26.6567 4.29688 26.5713 4.29688H5.42174C5.33469 4.29688 5.26207 4.36362 5.25495 4.45036C5.18108 5.35023 4.46351 6.06779 3.56364 6.14166C3.47671 6.14879 3.41016 6.22128 3.41016 6.30846V13.6905C3.41016 13.7775 3.4769 13.8502 3.56364 13.8573C4.46351 13.9312 5.18108 14.6487 5.25495 15.5486C5.26207 15.6355 5.33456 15.7021 5.42174 15.7021H26.5679C26.655 15.7021 26.7276 15.6353 26.7347 15.5486C26.8086 14.6487 27.5262 13.9312 28.426 13.8573Z" fill="#8BC852"/>
<path d="M28.4258 6.1416C27.5249 6.06767 26.8068 5.34854 26.7343 4.44724C26.7274 4.36212 26.6565 4.29688 26.5711 4.29688H24.9409C25.0262 4.29688 25.0972 4.36212 25.104 4.44724C25.1765 5.3486 25.8947 6.06767 26.7956 6.1416C26.8823 6.14873 26.9491 6.22134 26.9491 6.3084V13.6904C26.9491 13.7776 26.8825 13.8501 26.7956 13.8572C25.8957 13.9311 25.1782 14.6487 25.1043 15.5485C25.0972 15.6353 25.0246 15.702 24.9375 15.702H26.5677C26.6548 15.702 26.7274 15.6353 26.7345 15.5485C26.8084 14.6487 27.526 13.9311 28.4258 13.8572C28.5128 13.8501 28.5793 13.7776 28.5793 13.6904V6.3084C28.5793 6.22134 28.5127 6.14873 28.4258 6.1416Z" fill="#7DBE3B"/>
<path d="M15.9973 17.2465C19.9999 17.2465 23.2446 14.0018 23.2446 9.99924C23.2446 5.99668 19.9999 2.75195 15.9973 2.75195C11.9947 2.75195 8.75 5.99668 8.75 9.99924C8.75 14.0018 11.9947 17.2465 15.9973 17.2465Z" fill="#CBE7AF"/>
<path d="M15.9965 2.75195C15.7297 2.75195 15.4664 2.76683 15.207 2.79495C18.8381 3.18842 21.6648 6.26355 21.6648 9.99924C21.6648 13.7349 18.8381 16.8101 15.207 17.2035C15.4664 17.2317 15.7297 17.2465 15.9965 17.2465C19.9991 17.2465 23.2438 14.0018 23.2438 9.99924C23.2438 5.99669 19.9991 2.75195 15.9965 2.75195Z" fill="#AAD880"/>
<path d="M16.9274 9.50148C16.7652 9.44411 16.599 9.38386 16.4335 9.32087V6.74807C16.8697 6.83857 17.1303 7.06123 17.1516 7.07998C17.3477 7.25791 17.651 7.24472 17.8309 7.04974C18.0117 6.85375 17.9994 6.54821 17.8033 6.36742C17.7735 6.33992 17.2649 5.88221 16.4335 5.76915V5.22307C16.4335 4.9564 16.2173 4.74023 15.9506 4.74023C15.684 4.74023 15.4678 4.9564 15.4678 5.22307V5.80627C15.3799 5.82458 15.2902 5.84702 15.1986 5.87464C14.4613 6.09669 13.9103 6.72807 13.7607 7.52245C13.6245 8.24526 13.8551 8.94158 14.3626 9.33955C14.6405 9.55753 14.9881 9.75714 15.4678 9.96894V13.1992C15.0281 13.1733 14.7388 13.0767 14.2512 12.7577C14.028 12.6117 13.7287 12.6742 13.5827 12.8973C13.4368 13.1205 13.4993 13.4198 13.7224 13.5658C14.4017 14.0101 14.8619 14.1357 15.4678 14.1652V14.7759C15.4678 15.0426 15.684 15.2587 15.9506 15.2587C16.2173 15.2587 16.4335 15.0425 16.4335 14.7759V14.1284C17.6153 13.9129 18.3054 12.9461 18.4572 12.0431C18.6502 10.8958 18.0497 9.89813 16.9274 9.50148ZM14.9586 8.57968C14.7359 8.40506 14.6405 8.06847 14.7097 7.70125C14.774 7.35984 15.0071 6.94599 15.4678 6.80251V8.89871C15.2747 8.79753 15.1009 8.69123 14.9586 8.57968ZM17.5049 11.8831C17.4188 12.3949 17.0544 12.94 16.4335 13.1338V10.3503C16.4898 10.3707 16.5466 10.3912 16.6056 10.412C17.6099 10.7669 17.5478 11.6277 17.5049 11.8831Z" fill="#5EA570"/>
</svg>
