<svg width="22" height="22" viewBox="0 0 22 22" fill="none" xmlns="http://www.w3.org/2000/svg">
<path d="M17.4741 15.082H16.1562C15.9189 15.082 15.7266 14.8896 15.7266 14.6523V9.49609C15.7266 9.25878 15.9189 9.06641 16.1562 9.06641H17.4741C18.406 9.06641 19.1641 9.82455 19.1641 10.7564V13.3921C19.1641 14.3239 18.4059 15.082 17.4741 15.082ZM16.5859 14.2227H17.4741C17.9321 14.2227 18.3047 13.85 18.3047 13.3921V10.7564C18.3047 10.2984 17.9321 9.92578 17.4741 9.92578H16.5859V14.2227Z" fill="#419341"/>
<path d="M5.03637 1.70973C4.80348 1.47641 4.48121 1.33203 4.125 1.33203C3.41301 1.33203 2.83594 1.9091 2.83594 2.62109V3.91016V5.19922V12.9336L4.125 15.5117L5.41406 12.9336V5.19922V3.91016V2.62109C5.41406 2.26531 5.26969 1.94305 5.03637 1.70973Z" fill="#B73415"/>
<path d="M2.83594 5.19922V12.9336L4.125 12.0742L5.41406 12.9336V5.19922H2.83594Z" fill="#425660"/>
<path d="M7.13281 7.77734V9.92578V15.5117V16.0059C7.13281 17.3942 8.25816 18.5195 9.64648 18.5195H14.0723C15.4606 18.5195 16.5859 17.3942 16.5859 16.0059V14.6523V9.49609V7.77734H7.13281Z" fill="#4CAE50"/>
<path d="M18.3047 4.33984C18.7795 4.33984 19.1641 4.72441 19.1641 5.19922C19.1641 5.67402 18.7795 6.05859 18.3047 6.05859C17.8303 6.05859 17.4453 5.67402 17.4453 5.19922C17.4453 4.72441 17.8303 4.33984 18.3047 4.33984Z" fill="#425660"/>
<path d="M9.28125 4.76953C9.99318 4.76953 10.5703 4.1924 10.5703 3.48047C10.5703 2.76854 9.99318 2.19141 9.28125 2.19141C8.56932 2.19141 7.99219 2.76854 7.99219 3.48047C7.99219 4.1924 8.56932 4.76953 9.28125 4.76953Z" fill="#425660"/>
<path d="M14.6407 14.5816C14.6407 15.5698 13.8389 16.3716 12.8524 16.3716C12.485 16.3716 12.1438 16.2608 11.8594 16.0709C12.3393 15.7495 12.6556 15.2025 12.6556 14.5816C12.6556 14.084 12.2891 13.5495 11.862 13.0111C12.2074 12.5818 12.5924 12.1487 12.8593 11.7207C13.4471 12.6664 14.6407 13.6835 14.6407 14.5816Z" fill="#BF870A"/>
<path d="M12.6527 14.5816C12.6527 15.2025 12.3364 15.7495 11.8564 16.0709H11.856C11.5724 16.2612 11.2308 16.3716 10.8643 16.3716C9.87559 16.3716 9.07422 15.5698 9.07422 14.5816C9.07422 13.6711 10.2713 12.6828 10.8716 11.7207C11.1337 12.1423 11.5157 12.5779 11.859 13.0111C12.2861 13.5495 12.6527 14.084 12.6527 14.5816Z" fill="#FDBF07"/>
<path d="M14.0723 18.5195H18.3047C18.3047 19.1125 18.0645 19.6496 17.6756 20.0385C17.2868 20.4273 16.7496 20.668 16.1562 20.668H7.5625C6.37613 20.668 5.41406 19.7059 5.41406 18.5195H9.64648H14.0723Z" fill="#419341"/>
<path d="M2.83594 3.91016H5.41406V5.19922H2.83594V3.91016Z" fill="#D44114"/>
<path d="M5.41406 2.62109V3.91016H2.83594V2.62109C2.83594 1.9091 3.41301 1.33203 4.125 1.33203C4.48121 1.33203 4.80348 1.47641 5.03637 1.70973C5.26969 1.94305 5.41406 2.26531 5.41406 2.62109Z" fill="#B73415"/>
<path d="M20.3272 7.90324C20.405 7.98102 20.4531 8.08844 20.4531 8.20703C20.4531 8.44422 20.2606 8.63672 20.0234 8.63672C19.9048 8.63672 19.7974 8.58859 19.7196 8.51082C19.6419 8.43305 19.5938 8.32563 19.5938 8.20703C19.5938 8.08844 19.6418 7.98102 19.7196 7.90324C19.7975 7.82547 19.9048 7.77734 20.0234 7.77734C20.142 7.77734 20.2495 7.82547 20.3272 7.90324Z" fill="#2F3E9D"/>
<path d="M19.8975 16.0673C19.9753 16.1451 20.0234 16.2525 20.0234 16.3711C20.0234 16.6083 19.8309 16.8008 19.5938 16.8008C19.4752 16.8008 19.3677 16.7527 19.29 16.6749C19.2121 16.5971 19.1641 16.4896 19.1641 16.3711C19.1641 16.2525 19.2121 16.1451 19.29 16.0673C19.3678 15.9895 19.4752 15.9414 19.5938 15.9414C19.7123 15.9414 19.8198 15.9895 19.8975 16.0673Z" fill="#2F3E9D"/>
<path d="M17.7491 1.88762C17.8269 1.96539 17.875 2.07281 17.875 2.19141C17.875 2.42859 17.6825 2.62109 17.4453 2.62109C17.3267 2.62109 17.2193 2.57297 17.1415 2.4952C17.0637 2.41742 17.0156 2.31 17.0156 2.19141C17.0156 2.07281 17.0637 1.96539 17.1415 1.88762C17.2193 1.80984 17.3267 1.76172 17.4453 1.76172C17.5639 1.76172 17.6713 1.80984 17.7491 1.88762Z" fill="#2F3E9D"/>
<path d="M15.6007 9.62199C15.6784 9.69977 15.7266 9.80719 15.7266 9.92578C15.7266 10.163 15.5341 10.3555 15.2969 10.3555C15.1783 10.3555 15.0709 10.3073 14.9931 10.2296C14.9153 10.1518 14.8672 10.0444 14.8672 9.92578C14.8672 9.80719 14.9153 9.69977 14.9931 9.62199C15.0709 9.54422 15.1783 9.49609 15.2969 9.49609C15.4155 9.49609 15.5229 9.54422 15.6007 9.62199Z" fill="#419341"/>
<path d="M12.5929 4.89543C12.6706 4.9732 12.7188 5.08062 12.7188 5.19922C12.7188 5.43641 12.5263 5.62891 12.2891 5.62891C12.1705 5.62891 12.063 5.58078 11.9853 5.50301C11.9075 5.42523 11.8594 5.31781 11.8594 5.19922C11.8594 5.08062 11.9075 4.9732 11.9853 4.89543C12.0631 4.81766 12.1705 4.76953 12.2891 4.76953C12.4077 4.76953 12.5151 4.81766 12.5929 4.89543Z" fill="#2F3E9D"/>
<path d="M4.125 8.20703C3.88768 8.20703 3.69531 8.3994 3.69531 8.63672V12.5039C3.69531 12.7412 3.88768 12.9336 4.125 12.9336C4.36232 12.9336 4.55469 12.7412 4.55469 12.5039V8.63672C4.55469 8.3994 4.36232 8.20703 4.125 8.20703Z" fill="#314147"/>
<path d="M4.125 7.34766C4.36219 7.34766 4.55469 7.15516 4.55469 6.91797C4.55469 6.79937 4.50656 6.69195 4.42879 6.61418C4.35102 6.53641 4.24359 6.48828 4.125 6.48828C4.00641 6.48828 3.89898 6.53641 3.82121 6.61418C3.74344 6.69195 3.69531 6.79937 3.69531 6.91797C3.69531 7.03656 3.74344 7.14398 3.82121 7.22176C3.89898 7.29953 4.00641 7.34766 4.125 7.34766Z" fill="#314147"/>
<path d="M3.13973 17.7861C3.2175 17.8638 3.26562 17.9712 3.26562 18.0898C3.26562 18.327 3.07313 18.5195 2.83594 18.5195C2.71734 18.5195 2.60992 18.4714 2.53215 18.3936C2.45438 18.3159 2.40625 18.2084 2.40625 18.0898C2.40625 17.9712 2.45438 17.8638 2.53215 17.7861C2.60992 17.7083 2.71734 17.6602 2.83594 17.6602C2.95453 17.6602 3.06195 17.7083 3.13973 17.7861Z" fill="#2F3E9D"/>
<path d="M5.41406 12.9336L4.125 15.5117L2.83594 12.9336L4.125 12.0742L5.41406 12.9336Z" fill="#D44114"/>
<path d="M6.70312 15.9414H1.97656C1.73925 15.9414 1.54688 15.749 1.54688 15.5117C1.54688 15.2744 1.73925 15.082 1.97656 15.082H6.70312C6.94044 15.082 7.13281 15.2744 7.13281 15.5117C7.13281 15.749 6.94044 15.9414 6.70312 15.9414Z" fill="#B73415"/>
<path d="M14.0078 9.49609H7.13281V10.3555H14.0078C14.2451 10.3555 14.4375 10.1631 14.4375 9.92578C14.4375 9.68846 14.2451 9.49609 14.0078 9.49609Z" fill="#419341"/>
</svg>
