<svg width="326" height="218" viewBox="0 0 326 218" fill="none" xmlns="http://www.w3.org/2000/svg">
<path d="M245.756 198.003C247.371 194.623 248.985 191.243 250.6 187.863C252.651 183.57 254.776 179.375 256.887 175.226C258.997 171.077 261.094 166.973 263.098 162.854C274.873 138.648 284.6 112.073 279.782 84.7011C270.801 33.6828 206.733 5.27012 163.345 34.3761C145.894 46.083 135.362 66.313 116.89 76.2519C95.7894 87.6055 69.8686 87.9545 50.1886 102.484C19.3878 125.225 36.5236 167.056 43.6839 197.169C60.6359 197.169 77.4575 197.431 94.3597 197.324C98.5882 197.337 102.813 197.355 107.035 197.384C111.254 197.412 115.471 197.452 119.683 197.509C123.776 197.524 127.928 197.541 132.109 197.557C186.462 197.77 245.756 198.003 245.756 198.003Z" fill="url(#paint0_linear_20_5897)"/>
<path d="M273.411 122.12C273.411 122.12 274.069 117.644 273.04 115.006C272.011 112.368 271.112 111.702 269.676 111.604C268.239 111.505 267.693 113.825 268.294 115.25C268.894 116.674 270.195 118.971 273.411 122.12Z" fill="#F0D9AF"/>
<path d="M275.714 119.115C275.714 119.115 279.189 116.238 280.186 113.587C281.183 110.936 280.961 109.837 279.961 108.796C278.96 107.756 277.007 109.109 276.502 110.571C275.997 112.032 275.429 114.612 275.714 119.115Z" fill="#F0D9AF"/>
<path d="M271.49 127.053C271.49 127.053 270.844 122.022 268.934 119.49C267.024 116.958 265.852 116.514 264.272 116.848C262.692 117.182 262.806 119.853 263.886 121.205C264.966 122.558 267.065 124.64 271.49 127.053Z" fill="#F0D9AF"/>
<path d="M269.392 128.898C269.392 128.898 266.806 124.541 264.05 122.983C261.295 121.424 260.044 121.485 258.727 122.424C257.41 123.362 258.573 125.766 260.099 126.575C261.626 127.384 264.377 128.454 269.392 128.898Z" fill="#F0D9AF"/>
<path d="M269.671 130.905C269.671 130.905 266.772 129.972 264.907 130.372C263.042 130.771 262.501 131.3 262.278 132.253C262.055 133.205 263.536 133.825 264.547 133.579C265.559 133.333 267.227 132.714 269.671 130.905Z" fill="#F0D9AF"/>
<path d="M274.893 122.695C274.893 122.695 277.227 118.827 279.694 117.454C282.162 116.082 283.277 116.145 284.446 116.99C285.614 117.835 284.562 119.972 283.195 120.684C281.828 121.395 279.368 122.332 274.893 122.695Z" fill="#F0D9AF"/>
<path d="M273.24 127.726C273.24 127.726 276.931 124.265 280.01 123.539C283.089 122.814 284.273 123.222 285.278 124.492C286.283 125.762 284.499 127.745 282.809 128.095C281.118 128.445 278.18 128.703 273.24 127.726Z" fill="#F0D9AF"/>
<path d="M273.684 130.491C273.684 130.491 278.442 128.793 281.553 129.359C284.665 129.924 285.589 130.773 286.008 132.339C286.427 133.906 284.005 135.012 282.316 134.657C280.626 134.302 277.828 133.363 273.684 130.491Z" fill="#F0D9AF"/>
<path d="M272.195 131.858C272.195 131.858 275.02 132.997 276.203 134.5C277.385 136.003 277.466 136.757 277.033 137.633C276.6 138.509 275.066 138.039 274.443 137.201C273.82 136.363 272.929 134.817 272.195 131.858Z" fill="#F0D9AF"/>
<path d="M276.416 117.376C276.277 117.768 276.068 118.333 275.799 119.043C275.418 120.05 274.917 121.351 274.324 122.871C274.249 123.064 274.172 123.262 274.094 123.463C274.07 123.523 274.047 123.582 274.024 123.643C273.996 123.713 273.969 123.784 273.941 123.855C273.474 125.05 272.961 126.356 272.414 127.747C272.375 127.846 272.336 127.946 272.296 128.047C272.274 128.103 272.251 128.159 272.229 128.216C272.228 128.216 272.228 128.216 272.228 128.216C272.214 128.252 272.201 128.288 272.187 128.323C271.924 128.987 271.656 129.669 271.38 130.364C271.365 130.401 271.351 130.438 271.336 130.475C271.335 130.478 271.333 130.482 271.332 130.486C271.308 130.548 271.283 130.61 271.258 130.672C271.231 130.743 271.202 130.815 271.173 130.888C271.167 130.903 271.16 130.919 271.154 130.935C268.287 138.176 264.812 146.853 262.075 153.595C262.029 153.709 261.982 153.823 261.936 153.937C259.948 158.837 258.369 162.662 257.735 164.082L257.361 163.876C257.978 162.493 259.506 158.793 261.438 154.036C261.484 153.923 261.531 153.808 261.578 153.692C264.324 146.927 267.85 138.127 270.751 130.801C270.771 130.749 270.792 130.698 270.812 130.645C270.843 130.568 270.873 130.492 270.903 130.415C270.917 130.381 270.931 130.346 270.944 130.312C270.949 130.298 270.955 130.285 270.96 130.27C270.996 130.183 271.03 130.094 271.066 130.006C271.321 129.359 271.571 128.725 271.816 128.107C271.876 127.954 271.937 127.801 271.996 127.65C272.564 126.207 273.095 124.855 273.575 123.625C273.662 123.403 273.747 123.186 273.83 122.974C274.619 120.947 275.253 119.298 275.666 118.192C275.803 117.822 275.916 117.515 276.001 117.273C276.094 117.015 276.509 117.115 276.416 117.376Z" fill="#F0D9AF"/>
<path d="M275.862 122.186C275.41 122.668 274.806 122.956 274.347 123.427C274.154 123.624 273.844 123.33 274.036 123.133C274.496 122.661 275.101 122.372 275.552 121.892C275.741 121.691 276.051 121.986 275.862 122.186Z" fill="#F0D9AF"/>
<path d="M273.248 120.976C273.506 121.86 273.763 122.744 274.021 123.628C274.099 123.893 273.687 124.014 273.611 123.746C273.353 122.863 273.096 121.98 272.838 121.097C272.761 120.832 273.171 120.711 273.248 120.976Z" fill="#F0D9AF"/>
<path d="M271.448 126.322C271.563 126.85 271.82 127.542 272.228 127.915C272.431 128.101 272.138 128.413 271.935 128.227C271.474 127.805 271.169 127.041 271.038 126.442C270.979 126.174 271.388 126.052 271.448 126.322Z" fill="#F0D9AF"/>
<path d="M274.182 127.618C273.893 127.751 273.581 127.83 273.277 127.922C273.096 127.977 272.488 128.109 272.431 128.225C272.31 128.473 271.936 128.267 272.057 128.019C272.178 127.773 272.591 127.689 272.823 127.614C273.195 127.493 273.601 127.417 273.958 127.253C274.204 127.14 274.431 127.504 274.182 127.618Z" fill="#F0D9AF"/>
<path d="M268.63 128.234C269.128 128.503 269.632 128.781 270.084 129.124C270.496 129.437 270.816 129.872 271.261 130.14C271.496 130.282 271.292 130.659 271.056 130.516C270.658 130.277 270.355 129.921 270.01 129.616C269.543 129.204 268.97 128.904 268.425 128.61C268.183 128.48 268.388 128.104 268.63 128.234Z" fill="#F0D9AF"/>
<path d="M274.548 130.814C273.909 130.651 273.204 130.804 272.57 130.787C272.105 130.775 271.648 130.859 271.189 130.934C270.906 130.979 270.896 130.539 271.171 130.506C272.252 130.376 273.579 130.124 274.651 130.398C274.917 130.465 274.815 130.882 274.548 130.814Z" fill="#F0D9AF"/>
<path d="M269.051 130.725C269.745 130.558 270.451 130.454 271.138 130.26C271.403 130.185 271.523 130.596 271.258 130.671C270.571 130.866 269.865 130.97 269.171 131.137C268.905 131.201 268.783 130.79 269.051 130.725Z" fill="#F0D9AF"/>
<path d="M272.525 132.557C272.409 132.149 272.072 131.784 271.792 131.482C271.516 131.185 271.213 130.87 270.855 130.675C270.614 130.543 270.818 130.167 271.06 130.299C271.486 130.531 271.849 130.905 272.169 131.263C272.472 131.602 272.807 131.988 272.935 132.436C273.01 132.701 272.601 132.823 272.525 132.557Z" fill="#F0D9AF"/>
<path d="M284.708 148.483C284.708 148.483 287.673 147.105 288.857 145.429C290.042 143.753 290.087 142.941 289.575 142.026C289.063 141.111 287.445 141.7 286.823 142.633C286.202 143.565 285.331 145.271 284.708 148.483Z" fill="#F0D9AF"/>
<path d="M287.438 148.693C287.438 148.693 290.557 149.667 292.555 149.222C294.552 148.776 295.128 148.204 295.358 147.18C295.589 146.156 293.995 145.504 292.912 145.777C291.829 146.05 290.044 146.729 287.438 148.693Z" fill="#F0D9AF"/>
<path d="M280.965 149.273C280.965 149.273 283.746 146.879 284.516 144.709C285.286 142.538 285.089 141.647 284.259 140.816C283.429 139.985 281.862 141.117 281.474 142.313C281.086 143.509 280.663 145.616 280.965 149.273Z" fill="#F0D9AF"/>
<path d="M279.017 148.727C279.017 148.727 280.62 145.419 280.466 143.12C280.312 140.82 279.778 140.082 278.688 139.652C277.598 139.222 276.608 140.886 276.726 142.139C276.844 143.391 277.291 145.493 279.017 148.727Z" fill="#F0D9AF"/>
<path d="M277.915 149.695C277.915 149.695 277.326 147.557 276.344 146.579C275.361 145.601 274.826 145.481 274.163 145.724C273.499 145.966 273.712 147.116 274.263 147.634C274.814 148.153 275.851 148.925 277.915 149.695Z" fill="#F0D9AF"/>
<path d="M284.949 149.615C284.949 149.615 288.214 149.501 290.023 150.459C291.833 151.418 292.238 152.123 292.193 153.171C292.147 154.22 290.438 154.428 289.465 153.877C288.491 153.327 286.948 152.199 284.949 149.615Z" fill="#F0D9AF"/>
<path d="M281.254 150.607C281.254 150.607 284.811 151.482 286.473 153.071C288.136 154.659 288.359 155.543 287.992 156.661C287.625 157.778 285.718 157.479 284.834 156.588C283.951 155.696 282.628 154.007 281.254 150.607Z" fill="#F0D9AF"/>
<path d="M279.761 151.977C279.761 151.977 282.677 154.203 283.573 156.325C284.468 158.446 284.323 159.347 283.543 160.225C282.763 161.103 281.132 160.067 280.675 158.895C280.218 157.724 279.674 155.645 279.761 151.977Z" fill="#F0D9AF"/>
<path d="M278.343 151.613C278.343 151.613 278.778 153.788 278.34 155.106C277.903 156.424 277.479 156.773 276.778 156.858C276.077 156.942 275.751 155.82 276.01 155.107C276.268 154.394 276.847 153.236 278.343 151.613Z" fill="#F0D9AF"/>
<path d="M288.768 148.43C288.476 148.501 288.052 148.598 287.516 148.716C286.756 148.884 285.772 149.095 284.618 149.339C284.471 149.37 284.322 149.401 284.169 149.434L284.168 149.434C284.124 149.443 284.079 149.453 284.033 149.462C284.032 149.462 284.032 149.462 284.031 149.462C283.978 149.474 283.925 149.485 283.871 149.496C283.87 149.496 283.87 149.496 283.87 149.496C282.964 149.687 281.971 149.893 280.913 150.112C280.838 150.127 280.762 150.144 280.686 150.159C280.686 150.16 280.684 150.159 280.684 150.159C280.642 150.168 280.599 150.176 280.557 150.185C280.53 150.19 280.502 150.197 280.474 150.202C279.969 150.306 279.451 150.413 278.92 150.522L278.919 150.522C278.892 150.529 278.865 150.534 278.837 150.539C278.835 150.541 278.832 150.541 278.828 150.541C278.782 150.551 278.734 150.561 278.687 150.57C278.633 150.582 278.578 150.592 278.523 150.604L278.522 150.604C278.51 150.607 278.498 150.609 278.486 150.612C275.456 151.233 272.091 151.914 268.818 152.571C266.418 153.051 264.068 153.518 261.936 153.937C261.769 153.971 261.603 154.003 261.438 154.036C261.485 153.923 261.531 153.808 261.578 153.693C261.742 153.66 261.908 153.628 262.075 153.595C264.286 153.16 266.723 152.676 269.203 152.178C272.329 151.551 275.521 150.904 278.408 150.313C278.447 150.304 278.486 150.296 278.526 150.288C278.585 150.276 278.642 150.264 278.701 150.252C278.726 150.247 278.753 150.242 278.779 150.237L278.781 150.237C278.789 150.233 278.799 150.232 278.809 150.23C278.811 150.23 278.811 150.23 278.812 150.23C278.878 150.216 278.944 150.203 279.012 150.189L279.013 150.189C279.505 150.087 279.987 149.988 280.457 149.891C280.575 149.867 280.691 149.843 280.806 149.819L280.807 149.819C281.904 149.592 282.93 149.379 283.864 149.182C284.032 149.147 284.197 149.112 284.359 149.078C285.895 148.755 287.142 148.486 287.975 148.298L287.977 148.298C288.253 148.235 288.485 148.181 288.665 148.136C288.857 148.089 288.961 148.383 288.768 148.43Z" fill="#F0D9AF"/>
<path d="M285.642 150.004C285.172 149.92 284.757 149.666 284.29 149.573C284.095 149.534 284.149 149.228 284.345 149.267C284.812 149.36 285.227 149.614 285.696 149.698C285.893 149.733 285.838 150.039 285.642 150.004Z" fill="#F0D9AF"/>
<path d="M285.334 147.929C284.902 148.438 284.471 148.946 284.04 149.455C283.91 149.607 283.673 149.404 283.805 149.252C284.236 148.743 284.667 148.236 285.098 147.727C285.228 147.575 285.463 147.777 285.334 147.929Z" fill="#F0D9AF"/>
<path d="M281.389 148.956C281.116 149.237 280.801 149.669 280.737 150.065C280.706 150.264 280.401 150.208 280.432 150.011C280.504 149.563 280.844 149.073 281.154 148.755C281.292 148.612 281.529 148.813 281.389 148.956Z" fill="#F0D9AF"/>
<path d="M281.693 151.139C281.498 151.015 281.327 150.857 281.15 150.708C281.045 150.619 280.724 150.301 280.631 150.313C280.433 150.337 280.409 150.027 280.606 150.003C280.803 149.978 281.018 150.197 281.155 150.308C281.377 150.488 281.583 150.705 281.824 150.857C281.991 150.962 281.862 151.245 281.693 151.139Z" fill="#F0D9AF"/>
<path d="M279.114 147.999C279.15 148.409 279.183 148.827 279.155 149.239C279.13 149.614 278.994 149.983 279.009 150.36C279.017 150.56 278.708 150.586 278.701 150.385C278.687 150.047 278.782 149.721 278.828 149.389C278.891 148.941 278.845 148.472 278.806 148.024C278.788 147.824 279.097 147.799 279.114 147.999Z" fill="#F0D9AF"/>
<path d="M279.909 152.632C279.753 152.178 279.38 151.809 279.138 151.416C278.961 151.128 278.729 150.882 278.501 150.632C278.361 150.478 278.623 150.297 278.752 150.451C279.261 151.059 279.94 151.767 280.201 152.53C280.266 152.719 279.974 152.822 279.909 152.632Z" fill="#F0D9AF"/>
<path d="M277.777 149.246C278.154 149.602 278.497 149.992 278.888 150.333C279.039 150.465 278.838 150.702 278.688 150.57C278.297 150.228 277.953 149.839 277.576 149.482C277.432 149.346 277.632 149.108 277.777 149.246Z" fill="#F0D9AF"/>
<path d="M278.052 152.092C278.252 151.859 278.338 151.508 278.409 151.217C278.479 150.931 278.549 150.622 278.525 150.326C278.508 150.126 278.817 150.101 278.833 150.301C278.862 150.653 278.781 151.022 278.692 151.36C278.607 151.68 278.507 152.037 278.287 152.293C278.157 152.445 277.921 152.243 278.052 152.092Z" fill="#F0D9AF"/>
<path d="M217.908 93.7049C217.908 93.7049 219.064 90.1636 218.595 87.8773C218.125 85.5911 217.488 84.9244 216.336 84.6434C215.183 84.3623 214.417 86.1696 214.707 87.4099C214.997 88.6503 215.734 90.6981 217.908 93.7049Z" fill="#F0D9AF"/>
<path d="M220.195 91.5878C220.195 91.5878 223.416 89.7387 224.593 87.7264C225.771 85.7141 225.743 84.7902 225.075 83.8051C224.407 82.8201 222.633 83.6454 222.021 84.761C221.408 85.8768 220.588 87.8924 220.195 91.5878Z" fill="#F0D9AF"/>
<path d="M215.663 97.4414C215.663 97.4414 215.837 93.2663 214.638 90.9429C213.438 88.6195 212.549 88.0949 211.219 88.1445C209.89 88.194 209.612 90.3783 210.301 91.628C210.99 92.8777 212.406 94.862 215.663 97.4414Z" fill="#F0D9AF"/>
<path d="M213.704 98.6451C213.704 98.6451 212.209 94.7456 210.188 93.094C208.167 91.4424 207.143 91.3168 205.944 91.8941C204.744 92.4712 205.354 94.5862 206.482 95.457C207.609 96.3278 209.694 97.5819 213.704 98.6451Z" fill="#F0D9AF"/>
<path d="M213.652 100.314C213.652 100.314 211.428 99.1499 209.858 99.2132C208.289 99.2765 207.776 99.6301 207.463 100.372C207.149 101.114 208.265 101.825 209.121 101.767C209.976 101.709 211.417 101.44 213.652 100.314Z" fill="#F0D9AF"/>
<path d="M219.031 94.38C219.031 94.38 221.463 91.566 223.657 90.7975C225.851 90.029 226.748 90.2361 227.58 91.0861C228.411 91.9361 227.26 93.5236 226.052 93.9099C224.843 94.2963 222.716 94.7118 219.031 94.38Z" fill="#F0D9AF"/>
<path d="M216.991 98.2327C216.991 98.2327 220.468 95.9404 223.069 95.7824C225.669 95.6244 226.574 96.1223 227.213 97.2939C227.853 98.4656 226.13 99.8263 224.709 99.8735C223.288 99.9206 220.866 99.718 216.991 98.2327Z" fill="#F0D9AF"/>
<path d="M216.968 100.54C216.968 100.54 221.066 99.8281 223.514 100.723C225.962 101.619 226.595 102.437 226.717 103.768C226.84 105.099 224.72 105.657 223.397 105.132C222.075 104.607 219.934 103.453 216.968 100.54Z" fill="#F0D9AF"/>
<path d="M215.569 101.441C215.569 101.441 217.705 102.762 218.456 104.148C219.208 105.534 219.169 106.157 218.696 106.808C218.223 107.459 217.042 106.862 216.653 106.094C216.263 105.327 215.754 103.947 215.569 101.441Z" fill="#F0D9AF"/>
<path d="M221.007 90.2749C220.839 90.5731 220.592 91.002 220.274 91.541C219.825 92.3051 219.238 93.2899 218.546 94.4429C218.458 94.5895 218.368 94.738 218.277 94.8905L218.276 94.8916C218.25 94.9357 218.223 94.9809 218.195 95.0261C218.195 95.0272 218.195 95.0272 218.194 95.0282C218.162 95.0813 218.131 95.1345 218.097 95.1879C218.097 95.189 218.097 95.189 218.097 95.189C217.553 96.0932 216.956 97.0814 216.318 98.1339C216.272 98.2084 216.226 98.2846 216.18 98.3601C216.181 98.3608 216.179 98.3611 216.179 98.3611C216.154 98.4032 216.128 98.4456 216.103 98.4877C216.086 98.5149 216.07 98.5428 216.053 98.5701C215.748 99.0724 215.434 99.5877 215.114 100.115L215.113 100.116C215.098 100.143 215.081 100.17 215.064 100.198C215.063 100.2 215.061 100.203 215.059 100.207C215.031 100.253 215.002 100.3 214.973 100.347C214.941 100.401 214.908 100.455 214.874 100.51L214.874 100.511C214.866 100.523 214.859 100.535 214.851 100.547C213.02 103.557 210.978 106.893 208.987 110.134C207.527 112.509 206.094 114.833 204.79 116.937C204.688 117.102 204.587 117.266 204.486 117.429C204.429 117.303 204.369 117.175 204.311 117.046C204.41 116.885 204.513 116.721 204.615 116.556C205.967 114.374 207.453 111.964 208.96 109.509C210.862 106.414 212.798 103.248 214.544 100.38C214.566 100.341 214.591 100.302 214.615 100.263C214.65 100.205 214.685 100.147 214.721 100.089C214.736 100.064 214.752 100.038 214.769 100.012L214.769 100.011C214.773 100.001 214.78 99.9915 214.786 99.9816C214.787 99.9805 214.787 99.9805 214.788 99.9795C214.827 99.9133 214.868 99.8478 214.909 99.7806L214.909 99.7795C215.206 99.2904 215.497 98.8111 215.782 98.343C215.853 98.2264 215.923 98.111 215.992 97.9965L215.993 97.9955C216.655 96.9036 217.272 95.8824 217.833 94.9509C217.934 94.7834 218.033 94.6178 218.13 94.4572C219.051 92.9246 219.795 91.6744 220.284 90.8338L220.285 90.8328C220.447 90.5528 220.582 90.3179 220.685 90.1327C220.794 89.9359 221.118 90.0764 221.007 90.2749Z" fill="#F0D9AF"/>
<path d="M219.889 94.1026C219.455 94.4302 218.925 94.5796 218.486 94.8975C218.303 95.0306 218.092 94.7481 218.275 94.615C218.714 94.2969 219.245 94.1469 219.678 93.8202C219.859 93.6833 220.07 93.966 219.889 94.1026Z" fill="#F0D9AF"/>
<path d="M217.934 92.7538C218.021 93.5075 218.107 94.2612 218.194 95.0149C218.22 95.2412 217.869 95.2817 217.845 95.0534C217.758 94.3001 217.671 93.5473 217.585 92.7941C217.559 92.5685 217.908 92.5276 217.934 92.7538Z" fill="#F0D9AF"/>
<path d="M215.73 96.8414C215.751 97.2871 215.864 97.8845 216.143 98.2445C216.282 98.4243 216 98.6358 215.861 98.4566C215.546 98.05 215.404 97.3869 215.381 96.8819C215.371 96.6561 215.72 96.6138 215.73 96.8414Z" fill="#F0D9AF"/>
<path d="M217.771 98.2773C217.518 98.3446 217.254 98.3652 216.994 98.3971C216.839 98.4163 216.327 98.4385 216.265 98.5247C216.132 98.7091 215.857 98.4891 215.99 98.3053C216.122 98.1221 216.469 98.1121 216.668 98.0835C216.987 98.0376 217.327 98.0328 217.639 97.9497C217.855 97.8922 217.989 98.2192 217.771 98.2773Z" fill="#F0D9AF"/>
<path d="M213.177 97.9995C213.544 98.2875 213.915 98.5836 214.234 98.9258C214.525 99.2374 214.725 99.6358 215.049 99.9157C215.22 100.064 215.002 100.341 214.83 100.192C214.541 99.9421 214.344 99.6105 214.106 99.3146C213.784 98.915 213.36 98.5912 212.959 98.2762C212.78 98.1362 212.998 97.8595 213.177 97.9995Z" fill="#F0D9AF"/>
<path d="M217.624 100.923C217.128 100.701 216.534 100.727 216.022 100.625C215.646 100.55 215.263 100.553 214.88 100.55C214.644 100.547 214.697 100.189 214.925 100.2C215.821 100.246 216.933 100.227 217.765 100.6C217.972 100.692 217.831 101.016 217.624 100.923Z" fill="#F0D9AF"/>
<path d="M213.173 100.081C213.76 100.042 214.348 100.057 214.933 99.9954C215.158 99.9717 215.199 100.323 214.973 100.346C214.388 100.408 213.8 100.393 213.214 100.432C212.989 100.447 212.947 100.096 213.173 100.081Z" fill="#F0D9AF"/>
<path d="M215.74 102.055C215.703 101.707 215.479 101.364 215.294 101.079C215.111 100.8 214.909 100.502 214.646 100.293C214.468 100.152 214.686 99.8752 214.864 100.016C215.178 100.265 215.42 100.619 215.63 100.954C215.83 101.273 216.048 101.633 216.089 102.014C216.114 102.24 215.764 102.281 215.74 102.055Z" fill="#F0D9AF"/>
<path d="M88.4994 117.347C88.4994 117.347 87.0085 114.278 87.1838 112.136C87.3589 109.994 87.8781 109.304 88.9247 108.896C89.9713 108.487 90.8965 110.031 90.7683 111.197C90.64 112.364 90.1869 114.324 88.4994 117.347Z" fill="#F0D9AF"/>
<path d="M86.1145 115.723C86.1145 115.723 82.8865 114.467 81.552 112.792C80.2176 111.117 80.1367 110.273 80.6481 109.288C81.1596 108.304 82.9152 108.82 83.6172 109.754C84.3193 110.688 85.3195 112.413 86.1145 115.723Z" fill="#F0D9AF"/>
<path d="M91.0317 120.449C91.0317 120.449 90.3868 116.674 91.2411 114.402C92.0953 112.13 92.8673 111.535 94.1172 111.404C95.3671 111.274 95.8797 113.224 95.3791 114.452C94.8786 115.68 93.7827 117.672 91.0317 120.449Z" fill="#F0D9AF"/>
<path d="M93.0044 121.285C93.0044 121.285 93.9533 117.54 95.6541 115.771C97.3548 114.001 98.2986 113.752 99.4883 114.118C100.678 114.484 100.351 116.489 99.3962 117.43C98.4418 118.372 96.6351 119.788 93.0044 121.285Z" fill="#F0D9AF"/>
<path d="M93.2461 122.796C93.2461 122.796 95.1936 121.444 96.6699 121.294C98.1461 121.144 98.6668 121.398 99.0458 122.031C99.4246 122.665 98.4624 123.46 97.655 123.52C96.8477 123.58 95.4684 123.526 93.2461 122.796Z" fill="#F0D9AF"/>
<path d="M87.5259 118.109C87.5259 118.109 84.9244 115.871 82.7823 115.462C80.6403 115.053 79.825 115.36 79.1447 116.243C78.4644 117.126 79.7251 118.418 80.9009 118.61C82.0766 118.802 84.1158 118.898 87.5259 118.109Z" fill="#F0D9AF"/>
<path d="M89.8803 121.345C89.8803 121.345 86.3607 119.719 83.9087 119.919C81.4566 120.119 80.6674 120.691 80.2039 121.842C79.7403 122.992 81.5105 124.003 82.8462 123.858C84.1817 123.713 86.4249 123.208 89.8803 121.345Z" fill="#F0D9AF"/>
<path d="M90.1686 123.441C90.1686 123.441 86.2504 123.335 84.0626 124.473C81.8747 125.611 81.3773 126.439 81.4161 127.666C81.455 128.892 83.504 129.121 84.6809 128.468C85.8581 127.815 87.7288 126.482 90.1686 123.441Z" fill="#F0D9AF"/>
<path d="M91.5815 124.075C91.5815 124.075 89.7351 125.559 89.192 126.919C88.6489 128.28 88.7574 128.842 89.2752 129.371C89.793 129.901 90.8289 129.201 91.1047 128.452C91.3806 127.702 91.6982 126.379 91.5815 124.075Z" fill="#F0D9AF"/>
<path d="M85.2027 114.636C85.3941 114.886 85.6758 115.243 86.0348 115.692C86.5436 116.328 87.2072 117.147 87.9879 118.103C88.087 118.224 88.1885 118.349 88.2911 118.475C88.3225 118.513 88.3528 118.55 88.3842 118.588C88.4203 118.632 88.4565 118.677 88.4927 118.721C89.1074 119.472 89.7811 120.293 90.4994 121.165C90.5507 121.228 90.6019 121.291 90.6542 121.354C90.6832 121.389 90.7124 121.425 90.7415 121.46C90.7422 121.46 90.7422 121.46 90.7422 121.46C90.7608 121.483 90.7785 121.505 90.797 121.527C91.1407 121.944 91.4931 122.372 91.854 122.808C91.8728 122.831 91.8915 122.854 91.911 122.877C91.9123 122.88 91.9145 122.882 91.9169 122.885C91.9484 122.924 91.9808 122.962 92.0131 123.001C92.0494 123.046 92.0867 123.091 92.1247 123.136C92.1328 123.146 92.1409 123.156 92.1491 123.166C95.901 127.708 100.427 133.143 103.97 137.356C104.03 137.427 104.09 137.498 104.15 137.57C106.725 140.632 108.755 143.016 109.544 143.89L109.776 143.654C109.007 142.803 107.044 140.497 104.543 137.524C104.483 137.453 104.423 137.381 104.362 137.309C100.806 133.081 96.2151 127.571 92.4191 122.975C92.3922 122.942 92.3656 122.91 92.3389 122.877C92.2984 122.829 92.2589 122.781 92.2193 122.733C92.2018 122.711 92.1834 122.69 92.1658 122.668C92.1588 122.659 92.1519 122.651 92.1448 122.642C92.0987 122.587 92.0532 122.531 92.0069 122.476C91.6723 122.07 91.3446 121.673 91.024 121.285C90.945 121.189 90.8659 121.093 90.788 120.998C90.0428 120.092 89.3458 119.243 88.7134 118.47C88.5993 118.33 88.4875 118.194 88.3781 118.06C87.3375 116.786 86.4972 115.747 85.943 115.047C85.7582 114.813 85.6058 114.618 85.4879 114.464C85.3621 114.3 85.0756 114.47 85.2027 114.636Z" fill="#F0D9AF"/>
<path d="M86.691 117.97C87.135 118.211 87.6487 118.277 88.0958 118.508C88.2832 118.605 88.448 118.32 88.2608 118.223C87.8131 117.992 87.2989 117.926 86.856 117.686C86.6705 117.585 86.5058 117.87 86.691 117.97Z" fill="#F0D9AF"/>
<path d="M88.3648 116.485C88.3708 117.182 88.3766 117.879 88.3826 118.576C88.3844 118.786 88.718 118.776 88.7141 118.565C88.7081 117.869 88.7022 117.172 88.6962 116.476C88.6943 116.267 88.3629 116.276 88.3648 116.485Z" fill="#F0D9AF"/>
<path d="M90.8997 119.912C90.932 120.32 90.8954 120.879 90.6759 121.243C90.5662 121.425 90.8541 121.58 90.9635 121.399C91.2117 120.987 91.2679 120.365 91.2314 119.903C91.2149 119.696 90.8832 119.704 90.8997 119.912Z" fill="#F0D9AF"/>
<path d="M89.1553 121.488C89.4002 121.516 89.6497 121.5 89.8961 121.495C90.0431 121.492 90.5248 121.444 90.593 121.514C90.7389 121.664 90.9709 121.428 90.8255 121.278C90.6806 121.129 90.3546 121.166 90.1654 121.166C89.8613 121.167 89.5429 121.207 89.2407 121.173C89.032 121.149 88.9445 121.464 89.1553 121.488Z" fill="#F0D9AF"/>
<path d="M93.4228 120.628C93.1126 120.939 92.7995 121.257 92.5402 121.611C92.3039 121.933 92.163 122.321 91.8922 122.619C91.7489 122.776 91.9848 123 92.1286 122.842C92.3708 122.576 92.5166 122.248 92.7055 121.947C92.9606 121.541 93.3198 121.191 93.6591 120.851C93.8101 120.7 93.5737 120.477 93.4228 120.628Z" fill="#F0D9AF"/>
<path d="M89.5984 123.876C90.0373 123.608 90.5955 123.553 91.0632 123.393C91.4066 123.275 91.765 123.227 92.1234 123.173C92.3441 123.14 92.2528 122.821 92.0412 122.861C91.2075 123.021 90.1648 123.152 89.4286 123.6C89.246 123.712 89.415 123.988 89.5984 123.876Z" fill="#F0D9AF"/>
<path d="M93.667 122.522C93.1136 122.564 92.565 122.655 92.0103 122.676C91.7971 122.684 91.7993 123.009 92.013 123.001C92.5678 122.98 93.1164 122.889 93.6698 122.846C93.8821 122.83 93.8806 122.505 93.667 122.522Z" fill="#F0D9AF"/>
<path d="M91.4929 124.656C91.4878 124.335 91.657 123.994 91.798 123.71C91.9365 123.431 92.091 123.134 92.3137 122.909C92.464 122.757 92.2275 122.534 92.0773 122.686C91.8126 122.953 91.6264 123.307 91.4684 123.641C91.3185 123.957 91.1558 124.313 91.1613 124.666C91.1645 124.874 91.4961 124.866 91.4929 124.656Z" fill="#F0D9AF"/>
<path d="M85.9946 138.988C85.9946 138.988 83.4814 138.692 82.2256 137.763C80.9699 136.834 80.7544 136.259 80.9305 135.48C81.1065 134.701 82.4419 134.745 83.1126 135.271C83.7832 135.796 84.8126 136.821 85.9946 138.988Z" fill="#F0D9AF"/>
<path d="M84.0107 139.78C84.0107 139.78 81.909 141.215 80.3239 141.362C78.7388 141.51 78.1825 141.233 77.7819 140.55C77.3813 139.867 78.4208 139.023 79.2875 138.965C80.1541 138.908 81.6334 138.978 84.0107 139.78Z" fill="#F0D9AF"/>
<path d="M88.9554 138.678C88.9554 138.678 86.3512 137.607 85.2929 136.224C84.2345 134.842 84.1823 134.154 84.6135 133.36C85.0447 132.567 86.4637 133.014 87.0198 133.784C87.5757 134.555 88.3614 135.974 88.9554 138.678Z" fill="#F0D9AF"/>
<path d="M90.282 137.828C90.282 137.828 88.3496 135.821 87.9497 134.129C87.5497 132.436 87.782 131.78 88.4966 131.214C89.2112 130.648 90.3198 131.614 90.512 132.544C90.7042 133.474 90.8418 135.093 90.282 137.828Z" fill="#F0D9AF"/>
<path d="M91.3176 138.266C91.3176 138.266 91.2773 136.588 91.7894 135.653C92.3015 134.718 92.6724 134.506 93.2202 134.525C93.768 134.544 93.8663 135.422 93.5728 135.924C93.2794 136.428 92.6806 137.226 91.3176 138.266Z" fill="#F0D9AF"/>
<path d="M86.0681 139.86C86.0681 139.86 83.6145 140.544 82.4831 141.66C81.3516 142.775 81.2078 143.378 81.4764 144.122C81.7451 144.867 83.0626 144.615 83.6632 143.99C84.2639 143.365 85.1596 142.191 86.0681 139.86Z" fill="#F0D9AF"/>
<path d="M89.0387 139.707C89.0387 139.707 86.5888 141.173 85.7078 142.707C84.8269 144.241 84.8582 144.93 85.3814 145.649C85.9046 146.368 87.256 145.705 87.7136 144.855C88.171 144.006 88.7777 142.478 89.0387 139.707Z" fill="#F0D9AF"/>
<path d="M90.4556 140.343C90.4556 140.343 88.7843 142.631 88.5931 144.369C88.4018 146.108 88.7113 146.723 89.4877 147.172C90.2641 147.621 91.2452 146.492 91.3231 145.541C91.4009 144.59 91.3412 142.965 90.4556 140.343Z" fill="#F0D9AF"/>
<path d="M91.4282 139.748C91.4282 139.748 91.5914 141.417 92.2119 142.263C92.8324 143.11 93.2253 143.262 93.7656 143.158C94.306 143.054 94.2972 142.169 93.9456 141.717C93.5938 141.264 92.904 140.566 91.4282 139.748Z" fill="#F0D9AF"/>
<path d="M82.9635 139.903C83.1964 139.885 83.533 139.856 83.9583 139.815C84.5607 139.758 85.3398 139.679 86.2531 139.584C86.3693 139.571 86.4872 139.559 86.6079 139.546L86.6089 139.546C86.6438 139.542 86.6797 139.539 86.7155 139.535C86.7164 139.535 86.7164 139.535 86.7172 139.534C86.7592 139.53 86.8012 139.526 86.8438 139.521C86.8447 139.521 86.8448 139.521 86.8448 139.521C87.5613 139.446 88.3457 139.361 89.1813 139.27C89.2406 139.264 89.3008 139.257 89.3611 139.25C89.3612 139.251 89.362 139.25 89.362 139.25C89.3952 139.247 89.4291 139.243 89.4624 139.239C89.4842 139.237 89.5061 139.235 89.5279 139.232C89.9269 139.189 90.3363 139.144 90.7554 139.098L90.7564 139.097C90.7775 139.096 90.7993 139.093 90.821 139.09C90.8229 139.091 90.8255 139.09 90.8281 139.09C90.8647 139.086 90.9023 139.082 90.9398 139.078C90.9826 139.073 91.0254 139.068 91.0691 139.064L91.0698 139.063C91.0795 139.062 91.089 139.061 91.0987 139.06C93.4904 138.796 96.1457 138.497 98.7267 138.201C100.619 137.984 102.471 137.768 104.151 137.57C104.283 137.554 104.414 137.539 104.544 137.524C104.484 137.453 104.423 137.381 104.362 137.309C104.233 137.324 104.103 137.341 103.971 137.356C102.229 137.562 100.309 137.785 98.3528 138.009C95.8879 138.291 93.3687 138.575 91.0894 138.827C91.0588 138.829 91.0273 138.833 90.996 138.837C90.9497 138.842 90.9044 138.847 90.8581 138.852C90.838 138.854 90.8171 138.857 90.7961 138.859L90.7952 138.859C90.788 138.859 90.7804 138.86 90.7724 138.861C90.7715 138.861 90.7715 138.861 90.7707 138.862C90.7183 138.867 90.666 138.873 90.6127 138.879L90.6117 138.879C90.2232 138.922 89.8425 138.963 89.4706 139.004C89.378 139.014 89.2864 139.024 89.1955 139.034L89.1946 139.034C88.3275 139.128 87.517 139.215 86.7786 139.293C86.6458 139.307 86.5147 139.321 86.3872 139.334C85.1726 139.462 84.1842 139.561 83.5228 139.622L83.5219 139.622C83.3019 139.641 83.1177 139.657 82.9734 139.667C82.8206 139.678 82.8089 139.914 82.9635 139.903Z" fill="#F0D9AF"/>
<path d="M85.6403 140.303C85.9714 140.132 86.2228 139.852 86.5492 139.675C86.686 139.601 86.5769 139.393 86.4402 139.467C86.1132 139.644 85.8616 139.924 85.5311 140.095C85.3929 140.167 85.5022 140.374 85.6403 140.303Z" fill="#F0D9AF"/>
<path d="M85.4051 138.736C85.8396 139.001 86.2741 139.266 86.7087 139.531C86.8392 139.611 86.97 139.409 86.8376 139.33C86.4034 139.065 85.9693 138.8 85.5351 138.535C85.4049 138.456 85.2748 138.657 85.4051 138.736Z" fill="#F0D9AF"/>
<path d="M88.5686 138.55C88.8348 138.688 89.166 138.925 89.3017 139.195C89.3695 139.331 89.5838 139.219 89.5161 139.085C89.3626 138.778 89.0002 138.506 88.6986 138.349C88.5638 138.279 88.4326 138.479 88.5686 138.55Z" fill="#F0D9AF"/>
<path d="M88.8305 140.193C88.9481 140.058 89.0403 139.904 89.1381 139.755C89.1964 139.667 89.3645 139.362 89.4359 139.349C89.5888 139.32 89.5373 139.091 89.3849 139.12C89.2332 139.148 89.1223 139.356 89.0449 139.469C88.9205 139.65 88.8152 139.855 88.6701 140.021C88.5697 140.136 88.7293 140.309 88.8305 140.193Z" fill="#F0D9AF"/>
<path d="M90.0464 137.326C90.1117 137.63 90.1807 137.939 90.2935 138.229C90.3963 138.493 90.5796 138.727 90.6529 139.002C90.6918 139.148 90.9269 139.094 90.888 138.947C90.8224 138.701 90.6791 138.488 90.5702 138.26C90.4231 137.952 90.353 137.604 90.2815 137.271C90.2496 137.123 90.0146 137.178 90.0464 137.326Z" fill="#F0D9AF"/>
<path d="M90.492 140.85C90.5061 140.486 90.7007 140.133 90.7927 139.793C90.8604 139.543 90.978 139.312 91.0913 139.078C91.1611 138.935 90.9259 138.866 90.8643 139.007C90.6218 139.564 90.2753 140.234 90.2516 140.844C90.2458 140.996 90.4862 141.002 90.492 140.85Z" fill="#F0D9AF"/>
<path d="M91.3198 137.91C91.1192 138.255 90.951 138.617 90.7366 138.954C90.6543 139.084 90.8563 139.208 90.9389 139.078C91.1531 138.74 91.3215 138.379 91.5219 138.034C91.5989 137.901 91.3971 137.777 91.3198 137.91Z" fill="#F0D9AF"/>
<path d="M91.7521 140.025C91.5509 139.904 91.4086 139.672 91.2905 139.479C91.1746 139.289 91.0533 139.082 91.0052 138.864C90.9727 138.716 90.7376 138.77 90.7702 138.918C90.8274 139.178 90.9706 139.426 91.1123 139.648C91.2468 139.859 91.4011 140.093 91.622 140.225C91.7526 140.304 91.883 140.103 91.7521 140.025Z" fill="#F0D9AF"/>
<path d="M241.855 52.6194C232.47 52.6194 224.834 44.9484 224.834 35.5193C224.834 26.0903 232.47 18.4192 241.855 18.4192C251.24 18.4192 258.876 26.0903 258.876 35.5193C258.876 44.9484 251.24 52.6194 241.855 52.6194ZM241.855 19.3362C232.973 19.3362 225.747 26.5959 225.747 35.5193C225.747 44.4428 232.973 51.7023 241.855 51.7023C250.737 51.7023 257.963 44.4427 257.963 35.5193C257.963 26.596 250.737 19.3362 241.855 19.3362Z" fill="white"/>
<path d="M254.182 96.5691C248.316 96.5691 243.543 91.7745 243.543 85.8811C243.543 79.9878 248.316 75.1931 254.182 75.1931C260.048 75.1931 264.82 79.9878 264.82 85.8811C264.82 91.7745 260.048 96.5691 254.182 96.5691ZM254.182 76.1102C248.819 76.1102 244.456 80.4935 244.456 85.8811C244.456 91.2688 248.819 95.6521 254.182 95.6521C259.544 95.6521 263.907 91.2689 263.907 85.8811C263.907 80.4934 259.544 76.1102 254.182 76.1102Z" fill="white"/>
<path d="M34.0382 160.224C28.9638 160.224 24.8354 156.077 24.8354 150.979C24.8354 145.88 28.9638 141.733 34.0382 141.733C39.1126 141.733 43.2409 145.88 43.2409 150.979C43.2409 156.077 39.1126 160.224 34.0382 160.224ZM34.0382 142.65C29.4671 142.65 25.7482 146.386 25.7482 150.979C25.7482 155.571 29.4671 159.307 34.0382 159.307C38.6092 159.307 42.3281 155.571 42.3281 150.979C42.3281 146.386 38.6092 142.65 34.0382 142.65Z" fill="white"/>
<path d="M250.854 37.6655C252.027 32.6775 248.952 27.6791 243.987 26.5012C239.023 25.3234 234.047 28.4122 232.875 33.4002C231.703 38.3883 234.777 43.3867 239.742 44.5645C244.707 45.7423 249.682 42.6535 250.854 37.6655Z" fill="white"/>
<path d="M71.6894 117.062C71.2834 117.999 70.1978 118.428 69.2648 118.02C68.3318 117.612 67.9047 116.522 68.3108 115.584C68.7168 114.647 69.8024 114.218 70.7354 114.626C71.6684 115.034 72.0955 116.124 71.6894 117.062Z" fill="#F0D9AF"/>
<path d="M42.6826 139.727C42.2765 140.664 41.191 141.093 40.2579 140.685C39.3249 140.277 38.8979 139.186 39.3039 138.249C39.71 137.312 40.7956 136.883 41.7286 137.291C42.6615 137.699 43.0887 138.789 42.6826 139.727Z" fill="#F0D9AF"/>
<path d="M71.4683 112.934C70.8056 112.644 70.1019 112.567 69.435 112.672C68.8666 112.763 68.3252 112.985 67.8576 113.322C67.3331 113.696 66.9024 114.213 66.6276 114.847C66.1351 115.984 66.2594 117.239 66.8494 118.228C67.2297 118.866 67.8019 119.394 68.5315 119.713C69.812 120.272 71.2413 120.041 72.2707 119.23C72.7378 118.865 73.1226 118.38 73.3749 117.798C74.1837 115.931 73.3285 113.747 71.4683 112.934ZM72.1473 119.016C71.1841 119.79 69.8356 120.016 68.6286 119.488C67.8389 119.143 67.2418 118.531 66.8992 117.804C66.4894 116.933 66.4392 115.896 66.851 114.945C67.0592 114.465 67.3649 114.053 67.7367 113.729C68.2366 113.288 68.855 113.004 69.5089 112.908C70.1204 112.818 70.7627 112.892 71.3711 113.159C73.108 113.918 73.9071 115.956 73.1514 117.7C72.9207 118.233 72.5711 118.678 72.1473 119.016Z" fill="#F0D9AF"/>
<path d="M39.0174 124.119C38.872 124.454 38.4836 124.608 38.1497 124.462C37.8159 124.316 37.6631 123.926 37.8083 123.59C37.9536 123.255 38.3421 123.101 38.676 123.247C39.0098 123.393 39.1627 123.783 39.0174 124.119Z" fill="#F0D9AF"/>
<path d="M39.4422 121.477C38.9774 121.274 38.4838 121.22 38.0161 121.294C37.6175 121.357 37.2377 121.513 36.9098 121.749C36.5419 122.012 36.2399 122.374 36.0472 122.819C35.7018 123.616 35.7889 124.496 36.2028 125.19C36.4694 125.637 36.8707 126.007 37.3824 126.231C38.2804 126.624 39.2828 126.461 40.0047 125.893C40.3324 125.637 40.6022 125.297 40.7791 124.888C41.3465 123.579 40.7467 122.048 39.4422 121.477ZM39.9184 125.743C39.2429 126.285 38.2971 126.444 37.4507 126.074C36.8969 125.831 36.478 125.403 36.2378 124.893C35.9504 124.282 35.9152 123.554 36.2041 122.888C36.3501 122.55 36.5645 122.262 36.8253 122.035C37.1759 121.726 37.6095 121.526 38.0681 121.459C38.4969 121.396 38.9474 121.448 39.374 121.634C40.5921 122.167 41.1525 123.597 40.6225 124.82C40.4608 125.193 40.2156 125.505 39.9184 125.743Z" fill="#F0D9AF"/>
<path d="M208.309 36.8673C209.981 37.6337 210.718 39.617 209.955 41.297C209.193 42.9771 207.218 43.7176 205.546 42.9512C203.874 42.1848 203.137 40.2015 203.9 38.5214C204.663 36.8415 206.637 36.1007 208.309 36.8673Z" fill="white"/>
<path d="M236.391 87.8591C238.063 88.6255 238.8 90.6089 238.037 92.2888C237.275 93.9689 235.3 94.7095 233.628 93.9431C231.956 93.1765 231.219 91.1933 231.982 89.5132C232.745 87.8333 234.719 87.0927 236.391 87.8591Z" fill="white"/>
<path d="M188.767 50.8476C189.599 51.2287 189.965 52.2148 189.586 53.0501C189.207 53.8854 188.225 54.2537 187.394 53.8726C186.562 53.4915 186.196 52.5054 186.575 51.6701C186.954 50.8347 187.936 50.4665 188.767 50.8476Z" fill="white"/>
<path d="M200.882 37.1385C200.34 38.3318 200.179 39.6063 200.347 40.8197C200.492 41.854 200.874 42.8433 201.466 43.7026C202.122 44.666 203.038 45.4639 204.169 45.9823C206.197 46.9118 208.457 46.726 210.254 45.6865C211.412 45.0166 212.379 43.995 212.975 42.6812C214.022 40.3753 213.65 37.7745 212.225 35.881C211.584 35.0219 210.725 34.3084 209.686 33.8323C206.356 32.3059 202.403 33.789 200.882 37.1385ZM211.838 36.098C213.198 37.8702 213.562 40.3242 212.575 42.4977C211.929 43.9197 210.811 44.984 209.493 45.5826C207.915 46.2988 206.048 46.3572 204.352 45.5799C203.494 45.1869 202.764 44.6194 202.194 43.9345C201.417 43.0133 200.926 41.8825 200.773 40.6929C200.631 39.5808 200.785 38.4174 201.282 37.322C202.703 34.1942 206.392 32.8086 209.503 34.2348C210.453 34.6701 211.242 35.3185 211.838 36.098Z" fill="white"/>
<path d="M189.487 32.1432C190.086 32.4175 190.35 33.1272 190.076 33.7284C189.803 34.3296 189.097 34.5947 188.499 34.3203C187.9 34.0461 187.636 33.3364 187.91 32.7352C188.183 32.134 188.889 31.869 189.487 32.1432Z" fill="white"/>
<path d="M184.752 31.2894C184.372 32.1263 184.259 33.0201 184.377 33.8711C184.479 34.5965 184.746 35.2903 185.162 35.8928C185.622 36.5686 186.264 37.128 187.057 37.4917C188.48 38.1436 190.064 38.0132 191.325 37.2842C192.137 36.8144 192.815 36.0979 193.233 35.1766C193.968 33.5596 193.707 31.7354 192.707 30.4076C192.257 29.8051 191.655 29.3046 190.927 28.9708C188.591 27.9003 185.819 28.9404 184.752 31.2894ZM192.435 30.5598C193.389 31.8027 193.645 33.5238 192.952 35.048C192.5 36.0452 191.715 36.7916 190.791 37.2114C189.684 37.7137 188.375 37.7547 187.186 37.2096C186.584 36.934 186.072 36.536 185.672 36.0555C185.127 35.4095 184.783 34.6164 184.676 33.7821C184.576 33.0022 184.684 32.1863 185.033 31.4182C186.029 29.2247 188.616 28.2529 190.799 29.253C191.465 29.5584 192.018 30.0131 192.435 30.5598Z" fill="white"/>
<path d="M217.858 57.5292C218.178 56.6692 217.744 55.7113 216.888 55.3895C216.032 55.0678 215.078 55.5041 214.758 56.3641C214.438 57.2241 214.872 58.182 215.728 58.5038C216.584 58.8255 217.538 58.3892 217.858 57.5292Z" fill="white"/>
<path d="M187.871 81.9493L188.595 81.2146C189.684 80.1112 190.214 78.5703 190.035 77.0271L189.971 76.472C189.955 76.3341 189.962 76.1943 189.991 76.0586L190.435 74.0164C190.5 73.7179 190.474 73.4072 190.362 73.1235L190.348 73.0903C190.233 72.801 190.426 72.488 190.729 72.4612C190.732 72.4608 190.736 72.4605 190.74 72.4601C190.881 72.4474 191.02 72.4982 191.12 72.5986L191.398 72.8762C191.869 73.3482 192.153 73.9773 192.196 74.645L192.274 75.8648L194.854 74.8468C195.32 74.6629 195.844 74.7082 196.273 74.9693L196.652 75.201C196.825 75.3062 196.937 75.4877 196.954 75.6899C196.965 75.8164 197.03 75.9319 197.133 76.0064C197.391 76.1948 197.542 76.4986 197.537 76.8197L197.529 77.2421C197.525 77.4594 197.604 77.6654 197.744 77.8215C197.899 77.9955 198.003 78.2099 198.012 78.4436L198.012 78.4543C198.018 78.6056 197.998 78.7568 197.953 78.9012L197.434 80.5642C197.308 80.9701 197.012 81.2999 196.623 81.4674C195.393 81.997 192.761 83.096 192.761 83.096L189.436 86.511L187.871 81.9493Z" fill="#9C5740"/>
<path d="M191.491 84.8042L179.242 101.124C178.665 101.942 177.88 102.551 176.996 102.908C175.992 103.316 174.863 103.4 173.77 103.104L161.381 99.7433L154.965 92.408L154.665 92.0648L154.733 91.563L155.344 87.0563L156.429 79.0529L160.493 82.074L161.328 82.6963L174.524 92.5089L187.969 80.2005L191.491 84.8042Z" fill="#EEC83B"/>
<path d="M161.38 99.7433L155.344 87.0563L156.429 79.0529L160.492 82.074C160.92 87.541 161.38 99.7433 161.38 99.7433Z" fill="#E9A527"/>
<path d="M198.346 120.818C198.986 120.132 205.187 115.75 205.187 115.75L203.205 111.368L196.096 113.005L198.346 120.818Z" fill="#6949F9"/>
<path d="M132.562 178.839C132.562 180.033 132.448 181.198 132.231 182.327C132.231 182.327 132.231 182.327 132.229 182.327C130.611 190.724 123.254 197.065 114.421 197.065C107.142 197.065 100.865 192.758 97.9763 186.541C97.3592 185.217 96.8968 183.803 96.6135 182.327C96.3944 181.198 96.2798 180.033 96.2798 178.839C96.2798 168.772 104.403 160.611 114.421 160.611C124.441 160.611 132.562 168.772 132.562 178.839Z" fill="#846DFA"/>
<path d="M114.421 164.41C118.257 164.41 121.863 165.911 124.575 168.636C127.287 171.361 128.781 174.985 128.781 178.839C128.781 179.69 128.706 180.542 128.56 181.376L128.516 181.605C127.214 188.361 121.286 193.266 114.421 193.266C111.635 193.266 108.935 192.464 106.612 190.948C104.345 189.468 102.543 187.388 101.401 184.931C100.908 183.873 100.547 182.755 100.326 181.607L100.326 181.603L100.325 181.6C100.15 180.698 100.061 179.769 100.061 178.839C100.061 174.985 101.555 171.361 104.267 168.636C106.98 165.911 110.586 164.41 114.421 164.41ZM114.421 160.611C104.403 160.611 96.2798 168.772 96.2798 178.839C96.2798 180.033 96.3944 181.198 96.6135 182.327C96.8968 183.803 97.3592 185.217 97.9763 186.541C100.865 192.758 107.142 197.065 114.421 197.065C123.254 197.065 130.611 190.724 132.229 182.327C132.231 182.327 132.231 182.327 132.231 182.327C132.448 181.198 132.562 180.033 132.562 178.839C132.562 168.772 124.441 160.611 114.421 160.611Z" fill="#3A2887"/>
<path d="M92.6817 154.047L87.7148 165.21H83.4898C82.474 165.21 81.6916 164.31 81.8298 163.3C81.8833 162.908 82.0685 162.561 82.3384 162.304C82.6083 162.048 82.963 161.881 83.3555 161.85C83.5107 161.838 83.6567 161.787 83.7845 161.704C83.9123 161.623 84.0192 161.51 84.0962 161.375L87.1097 156.032C87.7709 154.862 88.9797 154.118 90.3071 154.052C90.371 154.048 90.4362 154.047 90.5001 154.047H92.6817Z" fill="#6949F9"/>
<path d="M200.642 137.091L194.913 151.985C194.185 153.879 194.045 155.95 194.513 157.925L195.578 162.421L203.335 158.901L206.023 140.254L200.642 137.091Z" fill="#3A2887"/>
<path d="M114.421 193.931C106.137 193.931 99.3979 187.161 99.3979 178.838C99.3979 170.516 106.137 163.745 114.421 163.745C122.705 163.745 129.444 170.516 129.444 178.838C129.444 187.161 122.705 193.931 114.421 193.931ZM114.421 164.138C106.353 164.138 99.7891 170.732 99.7891 178.838C99.7891 186.944 106.353 193.538 114.421 193.538C122.489 193.538 129.053 186.944 129.053 178.838C129.053 170.732 122.489 164.138 114.421 164.138Z" fill="#F0D9AF"/>
<path d="M114.421 184.921C117.765 184.921 120.476 182.198 120.476 178.838C120.476 175.479 117.765 172.755 114.421 172.755C111.077 172.755 108.367 175.479 108.367 178.838C108.367 182.198 111.077 184.921 114.421 184.921Z" fill="#F0D9AF"/>
<path d="M237.458 178.839C237.458 188.904 229.337 197.065 219.317 197.065C212.867 197.065 207.202 193.683 203.986 188.585C202.205 185.768 201.176 182.424 201.176 178.839C201.176 177.415 201.339 176.03 201.644 174.701C202.788 169.757 205.932 165.585 210.175 163.093C212.859 161.514 215.982 160.611 219.317 160.611C225.291 160.611 230.59 163.511 233.895 167.988C236.134 171.019 237.458 174.772 237.458 178.839Z" fill="#846DFA"/>
<path d="M219.317 164.41C221.631 164.41 223.838 164.945 225.876 165.999C227.825 167.006 229.547 168.477 230.858 170.252C232.702 172.749 233.677 175.718 233.677 178.839C233.677 182.693 232.183 186.315 229.471 189.04C226.759 191.765 223.153 193.266 219.317 193.266C214.37 193.266 209.833 190.756 207.178 186.548C205.725 184.25 204.957 181.584 204.957 178.839C204.957 177.732 205.082 176.628 205.327 175.561C206.216 171.722 208.678 168.373 212.086 166.371C214.266 165.088 216.767 164.41 219.317 164.41ZM219.317 160.611C215.982 160.611 212.858 161.514 210.175 163.093C205.932 165.585 202.788 169.757 201.644 174.701C201.339 176.03 201.176 177.415 201.176 178.839C201.176 182.424 202.205 185.768 203.986 188.585C207.202 193.682 212.867 197.065 219.317 197.065C229.337 197.065 237.458 188.904 237.458 178.839C237.458 174.772 236.134 171.019 233.894 167.988C230.59 163.511 225.291 160.611 219.317 160.611Z" fill="#3A2887"/>
<path d="M219.318 193.931C211.034 193.931 204.294 187.161 204.294 178.838C204.294 170.516 211.034 163.745 219.318 163.745C227.601 163.745 234.341 170.516 234.341 178.838C234.341 187.161 227.601 193.931 219.318 193.931ZM219.318 164.138C211.249 164.138 204.686 170.732 204.686 178.838C204.686 186.944 211.249 193.538 219.318 193.538C227.386 193.538 233.949 186.944 233.949 178.838C233.949 170.732 227.386 164.138 219.318 164.138Z" fill="#F0D9AF"/>
<path d="M219.317 184.921C222.661 184.921 225.372 182.198 225.372 178.838C225.372 175.479 222.661 172.755 219.317 172.755C215.973 172.755 213.263 175.479 213.263 178.838C213.263 182.198 215.973 184.921 219.317 184.921Z" fill="#9D92FB"/>
<path d="M219.93 180.982C218.55 181.419 217.078 180.65 216.644 179.263L210.36 159.237L209.683 157.084L209.205 155.557C208.77 154.171 209.536 152.692 210.915 152.256C211.178 152.173 211.444 152.133 211.704 152.133C212.817 152.133 213.848 152.852 214.202 153.975L214.666 155.452L215.3 157.473L221.641 177.681C222.075 179.067 221.31 180.545 219.93 180.982Z" fill="#6949F9"/>
<path d="M214.426 111.957L212.963 117.027C212.658 118.087 211.915 118.937 210.954 119.41C210.771 119.501 210.581 119.577 210.385 119.638C210.003 119.76 209.596 119.824 209.179 119.824H204.855C203.482 119.824 202.205 119.125 201.493 117.978L200.717 116.73C200.332 116.11 200.064 115.446 199.91 114.765C199.484 112.894 199.918 110.893 201.177 109.331L201.811 108.544C202.557 107.62 203.694 107.081 204.9 107.081H210.642C213.249 107.081 215.132 109.509 214.426 111.957Z" fill="#846DFA"/>
<path d="M215.299 157.473C213.313 157.774 211.417 158.666 210.36 159.237L209.683 157.084L212.866 154.744C212.866 154.744 213.703 155.05 214.666 155.452L215.299 157.473Z" fill="#3A2887"/>
<path d="M220.595 147.897L219.7 156.11C219.7 156.11 210.653 155.452 202.918 163.356L190.949 178.956C189.319 181.081 186.798 182.325 184.127 182.325H83.0686C81.9837 182.325 81.1035 181.441 81.1035 180.351V180.207C81.1035 179.125 82.032 178.008 83.1091 177.995C83.572 177.991 83.881 177.99 83.881 177.532V177.524C83.8758 176.732 83.9071 175.413 84.0962 173.706C84.8421 166.933 88.0604 154.036 101.241 143.593H159.074C160.501 143.593 161.082 145.441 159.909 146.26C158.236 147.428 156.27 148.954 154.382 150.783C150.055 154.974 146.144 160.76 147.151 167.482C147.151 167.482 147.525 170.774 149.839 173.706C150.548 174.607 151.44 175.475 152.561 176.202C153.838 177.034 155.412 177.683 157.348 177.995H180.236C183.045 177.995 185.679 176.618 187.291 174.307L200.753 154.995C203.269 151.391 203.922 146.797 202.512 142.628L192.558 113.164L198.066 111.978L209.743 141.531C210.953 144.596 213.719 146.763 216.971 147.194L219.573 147.539C219.574 147.539 219.578 147.539 219.58 147.542C219.916 147.587 220.234 147.693 220.523 147.855L220.595 147.897Z" fill="#846DFA"/>
<path d="M233.894 167.988C230.766 167.74 223.876 167.821 218.44 172.387C214.452 175.739 212.621 180.022 211.781 183.205C211.057 185.952 208.754 187.983 205.949 188.337L203.985 188.585C202.204 185.768 201.175 182.424 201.175 178.839C201.175 177.415 201.338 176.03 201.644 174.701L202.448 173.423C204.564 168.56 207.539 165.256 210.175 163.093C212.858 161.514 215.982 160.611 219.317 160.611C225.291 160.611 230.589 163.511 233.894 167.988Z" fill="#3A2887"/>
<path d="M147.151 167.482C147.151 167.482 147.525 170.774 149.839 173.706C149.934 173.827 150.032 173.947 150.133 174.065C150.183 174.124 150.235 174.183 150.288 174.243C150.453 174.429 150.626 174.613 150.809 174.792C150.851 174.834 150.894 174.875 150.937 174.917C151.034 175.011 151.136 175.104 151.24 175.196C151.349 175.293 151.461 175.388 151.576 175.481C151.654 175.547 151.733 175.61 151.815 175.672C151.861 175.708 151.908 175.743 151.955 175.779C152.019 175.827 152.085 175.874 152.152 175.923C152.284 176.018 152.419 176.111 152.56 176.202C151.448 176.828 150.273 177.427 149.042 177.995H100.978C99.6229 176.739 98.6683 175.302 98.1924 173.706C98.1154 173.449 98.0502 173.189 97.9994 172.924C96.2546 163.95 109.758 153.747 128.16 150.135C138.191 148.166 147.607 148.56 154.382 150.783C150.055 154.974 146.144 160.76 147.151 167.482Z" fill="#9D92FB"/>
<path d="M191.832 185.525H202.15C204.977 185.525 207.513 183.797 208.572 181.164C209.8 178.111 212.148 174.089 216.52 171.263C222.555 167.361 229.506 168.215 232.518 168.857C233.496 169.065 234.51 168.751 235.201 168.024C236.296 166.873 236.26 165.052 235.123 163.941C232.193 161.078 225.831 156.581 215.827 158.183C215.827 158.183 206.548 160.131 200.523 170.289L190.454 182.596C189.498 183.765 190.326 185.525 191.832 185.525Z" fill="#846DFA"/>
<path d="M101.24 143.593H159.074C157.154 140.166 153.544 138.045 149.629 138.045H106.18C105.143 138.045 104.113 138.22 103.132 138.56L102.008 138.951C100.079 139.622 99.5882 142.136 101.123 143.489L101.24 143.593Z" fill="#3A2887"/>
<path d="M157.349 177.995H83.1094C83.5723 177.991 83.8813 177.99 83.8813 177.532V177.524C83.8761 176.732 83.9074 175.413 84.0965 173.706H149.839C149.934 173.827 150.032 173.947 150.134 174.065C150.185 174.125 150.235 174.184 150.289 174.243C150.453 174.429 150.627 174.613 150.809 174.792C150.851 174.834 150.894 174.875 150.937 174.917C151.035 175.011 151.136 175.104 151.241 175.196C151.349 175.293 151.461 175.388 151.576 175.481C151.654 175.547 151.734 175.61 151.816 175.672C151.861 175.709 151.908 175.745 151.955 175.779C152.019 175.828 152.086 175.876 152.152 175.923C152.284 176.018 152.42 176.111 152.56 176.202C153.837 177.034 155.411 177.683 157.349 177.995Z" fill="#6949F9"/>
<path d="M196.838 113.605C196.81 113.605 196.783 113.601 196.755 113.594C196.581 113.549 196.477 113.37 196.522 113.195L202.889 88.6015C202.935 88.4264 203.113 88.3214 203.287 88.367C203.461 88.4126 203.566 88.5913 203.52 88.7665L197.153 113.359C197.115 113.507 196.982 113.605 196.838 113.605Z" fill="#6949F9"/>
<path d="M203.595 92.8111H201.092C200.649 92.8111 200.29 92.4502 200.29 92.005V91.132C200.29 90.6868 200.649 90.3259 201.092 90.3259H203.595C204.038 90.3259 204.398 90.6868 204.398 91.132V92.005C204.398 92.4503 204.038 92.8111 203.595 92.8111Z" fill="#6949F9"/>
<path d="M198.346 84.0243V97.3599C198.346 97.7494 198.821 97.9378 199.086 97.6535L199.727 96.9657C200.096 96.5699 200.354 96.0834 200.475 95.5551L202.17 88.1975C202.459 86.9464 202.115 85.6329 201.252 84.6854C200.771 84.1564 200.072 83.8813 199.361 83.9402L198.346 84.0243Z" fill="#6949F9"/>
<path d="M221.707 151.268L219.701 156.11L216.971 147.194L219.572 147.54C219.574 147.54 219.578 147.54 219.58 147.542C219.916 147.586 220.234 147.693 220.523 147.855L220.595 147.897C220.859 148.053 221.096 148.256 221.295 148.497C221.934 149.27 222.093 150.337 221.707 151.268Z" fill="#E9A527"/>
<path d="M192.992 183.271C192.992 183.517 192.794 183.717 192.549 183.717C192.304 183.717 192.106 183.517 192.106 183.271C192.106 183.026 192.304 182.826 192.549 182.826C192.794 182.826 192.992 183.026 192.992 183.271Z" fill="#F0D9AF"/>
<path d="M187.969 112.517L192.185 108.888C192.631 108.505 193.228 108.349 193.803 108.468L196.686 108.902C197.664 109.049 198.42 109.84 198.525 110.828L198.787 113.277L193.099 114.765L194.397 116.381L187.418 115.062L187.969 112.517Z" fill="#9C5740"/>
<path d="M204.047 183.717C204.291 183.717 204.49 183.517 204.49 183.271C204.49 183.026 204.291 182.826 204.047 182.826C203.802 182.826 203.604 183.026 203.604 183.271C203.604 183.517 203.802 183.717 204.047 183.717Z" fill="#F0D9AF"/>
<path d="M85.6495 180.202C85.6495 180.448 85.451 180.648 85.2063 180.648C84.9615 180.648 84.7632 180.448 84.7632 180.202C84.7632 179.957 84.9617 179.757 85.2063 179.757C85.451 179.757 85.6495 179.957 85.6495 180.202Z" fill="#F0D9AF"/>
<path d="M96.7035 180.648C96.9483 180.648 97.1467 180.448 97.1467 180.202C97.1467 179.957 96.9483 179.757 96.7035 179.757C96.4587 179.757 96.2603 179.957 96.2603 180.202C96.2603 180.448 96.4587 180.648 96.7035 180.648Z" fill="#F0D9AF"/>
<path d="M132.229 182.327C131.939 182.363 107.112 185.463 97.9761 186.541C97.359 185.217 96.8966 183.803 96.6133 182.327H132.229Z" fill="#3A2887"/>
<path d="M125.93 180.358C117.35 180.326 108.609 180.326 99.9477 180.358L99.9463 179.965C108.608 179.933 117.351 179.933 125.931 179.965L125.93 180.358Z" fill="#F0D9AF"/>
<path d="M129.326 180.358L129.326 179.965C131.09 179.962 132.855 179.961 134.62 179.962L134.62 180.355C132.855 180.354 131.091 180.355 129.326 180.358Z" fill="#F0D9AF"/>
<path d="M168.537 180.417C163.977 180.417 159.447 180.401 154.986 180.386C149.371 180.366 143.565 180.346 137.828 180.357L137.828 179.964C143.565 179.953 149.372 179.973 154.987 179.993C164.679 180.026 174.701 180.061 184.63 179.933C186.547 179.756 188.323 178.628 189.909 176.581C190.173 176.183 190.421 175.776 190.66 175.382C191.147 174.582 191.651 173.754 192.33 172.935C194.829 169.854 197.049 166.778 199.196 163.804C200.847 161.517 202.553 159.152 204.386 156.784C204.678 156.394 204.93 155.938 205.174 155.497C205.419 155.054 205.672 154.596 205.973 154.188C206.175 153.586 206.379 153.176 206.576 152.78C207.116 151.695 207.185 150.351 206.767 149.091C202.894 136.767 199.102 125.66 195.175 115.131L195.541 114.993C199.471 125.528 203.265 136.642 207.14 148.97C207.589 150.325 207.512 151.778 206.927 152.954C206.723 153.364 206.531 153.75 206.334 154.342L206.324 154.372L206.305 154.398C206.012 154.791 205.76 155.247 205.516 155.688C205.265 156.141 205.007 156.608 204.697 157.023C202.866 159.388 201.161 161.75 199.513 164.035C197.363 167.013 195.139 170.093 192.632 173.185C191.969 173.984 191.474 174.799 190.994 175.587C190.752 175.986 190.501 176.398 190.231 176.805L190.222 176.817C188.564 178.959 186.692 180.14 184.658 180.325L184.643 180.326C179.279 180.395 173.888 180.417 168.537 180.417Z" fill="#F0D9AF"/>
<path d="M198.748 113.829C199.051 111.95 197.781 110.18 195.912 109.875C194.042 109.57 192.28 110.846 191.977 112.725C191.673 114.603 192.943 116.373 194.813 116.678C196.683 116.983 198.444 115.707 198.748 113.829Z" fill="#3A2887"/>
<path d="M213.599 175.975L216.756 179.555L215.126 174.406L213.263 175.941L213.599 175.975Z" fill="#3A2887"/>
<path d="M92.486 171.693C92.4832 171.617 92.429 169.784 93.2796 167.07C94.0624 164.573 95.7962 160.838 99.6111 157.224C104.282 152.798 110.953 149.542 119.44 147.546C130.15 145.028 143.772 144.529 159.928 146.064L159.892 146.455C143.785 144.925 130.209 145.42 119.543 147.926C111.126 149.904 104.514 153.124 99.8914 157.499C92.7093 164.295 92.8744 171.606 92.8769 171.679L92.486 171.693Z" fill="#F0D9AF"/>
<path d="M233.745 114.434C234.835 113.03 236.851 112.78 238.248 113.874C239.645 114.969 239.895 116.995 238.805 118.398C237.715 119.802 235.699 120.053 234.302 118.958C232.905 117.863 232.655 115.838 233.745 114.434Z" fill="white"/>
<path d="M227.298 128.96C228.387 127.556 230.403 127.306 231.801 128.4C233.198 129.495 233.447 131.521 232.358 132.924C231.268 134.328 229.252 134.579 227.855 133.484C226.457 132.389 226.208 130.364 227.298 128.96Z" fill="white"/>
<path d="M246.139 148.165C246.68 147.467 247.683 147.343 248.378 147.887C249.072 148.431 249.196 149.438 248.654 150.136C248.113 150.835 247.11 150.959 246.415 150.415C245.721 149.87 245.597 148.863 246.139 148.165Z" fill="white"/>
<path d="M232.336 121.492C233.328 122.269 234.481 122.706 235.652 122.819C236.649 122.915 237.658 122.776 238.593 122.411C239.639 122.008 240.588 121.324 241.326 120.375C242.647 118.672 242.98 116.502 242.412 114.576C242.046 113.335 241.308 112.196 240.216 111.34C238.298 109.837 235.788 109.605 233.701 110.524C232.756 110.936 231.898 111.585 231.221 112.457C229.051 115.253 229.55 119.309 232.336 121.492ZM233.817 110.938C235.775 110.053 238.147 110.26 239.955 111.676C241.138 112.603 241.881 113.894 242.144 115.27C242.46 116.917 242.096 118.689 240.991 120.113C240.432 120.832 239.739 121.394 238.972 121.777C237.938 122.303 236.773 122.512 235.629 122.39C234.559 122.275 233.507 121.869 232.596 121.155C229.995 119.117 229.528 115.332 231.555 112.72C232.174 111.922 232.956 111.324 233.817 110.938Z" fill="white"/>
<path d="M238.604 141.986C238.994 141.484 239.715 141.394 240.215 141.786C240.715 142.178 240.804 142.903 240.414 143.405C240.024 143.907 239.303 143.997 238.803 143.605C238.303 143.214 238.214 142.489 238.604 141.986Z" fill="white"/>
<path d="M236.747 146.256C237.443 146.802 238.252 147.108 239.072 147.187C239.772 147.254 240.48 147.157 241.135 146.901C241.869 146.619 242.535 146.139 243.052 145.473C243.978 144.279 244.211 142.757 243.813 141.406C243.557 140.536 243.04 139.737 242.273 139.137C240.929 138.083 239.168 137.92 237.705 138.564C237.042 138.853 236.44 139.309 235.965 139.92C234.443 141.881 234.793 144.726 236.747 146.256ZM237.786 138.855C239.159 138.235 240.823 138.379 242.09 139.372C242.92 140.022 243.441 140.928 243.626 141.893C243.847 143.048 243.592 144.291 242.817 145.289C242.425 145.794 241.939 146.188 241.401 146.457C240.676 146.825 239.859 146.972 239.056 146.886C238.306 146.806 237.569 146.521 236.93 146.021C235.105 144.591 234.778 141.936 236.199 140.104C236.634 139.545 237.182 139.126 237.786 138.855Z" fill="white"/>
<path d="M252.565 131.156C253.329 130.715 253.593 129.736 253.155 128.968C252.716 128.2 251.742 127.935 250.977 128.376C250.213 128.816 249.949 129.795 250.388 130.563C250.826 131.331 251.801 131.596 252.565 131.156Z" fill="white"/>
<path d="M54.886 121.009C54.1475 121.13 53.4518 120.626 53.3321 119.884C53.2124 119.142 53.714 118.443 54.4525 118.323C55.191 118.202 55.8866 118.706 56.0064 119.448C56.1259 120.19 55.6244 120.889 54.886 121.009Z" fill="white"/>
<path d="M55.8359 159.304C56.1485 158.877 56.5393 158.542 56.8754 158.139C57.1575 157.802 57.3445 157.395 57.5698 157.02C57.6719 156.85 57.4072 156.696 57.3054 156.865C57.0423 157.303 56.8277 157.765 56.4638 158.131C56.1418 158.454 55.8415 158.78 55.5714 159.149C55.4549 159.309 55.7203 159.462 55.8359 159.304Z" fill="#6949F9"/>
<path d="M57.2067 157.794C57.2067 157.794 50.6128 155.241 58.4257 148.592C58.4257 148.592 60.6532 147.065 62.0995 147.387C62.5585 147.49 64.2966 158.956 57.2067 157.794Z" fill="#846DFA"/>
<path d="M52.017 167.085C52.017 167.085 47.5511 161.474 43.4947 169.472C42.7121 171.015 42.6025 172.818 43.2006 174.443C43.2089 174.465 43.2174 174.488 43.2259 174.511C43.2479 174.57 43.2652 174.631 43.2755 174.693C43.3134 174.923 43.386 175.511 43.2268 175.91C43.1588 176.081 43.2716 176.268 43.4529 176.292C45.2782 176.532 51.9488 177.052 53.8544 172.196C55.4342 168.169 52.017 167.085 52.017 167.085Z" fill="#6949F9"/>
<path d="M59.2104 163.679C59.2104 163.679 56.7851 161.201 60.0014 159.73C62.9879 158.364 64.1316 160.737 65.7605 160.648C65.9292 160.639 66.0531 160.8 65.9818 160.954C65.2879 162.453 62.4803 167.768 59.2104 163.679Z" fill="#6949F9"/>
<path d="M54.0021 162.25C54.0021 162.25 56.128 153.962 41.5627 155.123C41.5627 155.123 41.3568 167.635 54.0021 162.25Z" fill="#DB3256"/>
<path d="M55.4813 123.854L56.7201 178.477C56.7333 179.059 56.2842 179.538 55.7255 179.538C55.1725 179.538 54.7256 179.069 54.7307 178.492C54.7975 171.005 55.1806 125.816 54.7212 123.854H55.4813Z" fill="#6949F9"/>
<path d="M54.6817 124.047C54.4286 124.097 54.2776 124.113 54.2776 124.113C54.2776 124.113 45.9546 125.507 48.7303 112.618C48.7303 112.618 48.7303 111.777 48.5302 110.978C48.4976 110.851 48.4609 110.727 48.42 110.604C48.42 110.604 57.9758 110.797 59.5962 117.068C60.976 122.415 56.1389 123.764 54.6817 124.047Z" fill="#EDC73B"/>
<path d="M43.6431 117.959C43.6431 117.959 52.7752 119.817 51.9661 126.553C51.9661 126.553 48.0357 132.012 43.6431 117.959Z" fill="#5D3ABB"/>
<path d="M56.2983 166.466C56.6724 165.592 57.0862 164.712 57.8154 164.078C58.4597 163.517 59.2859 163.374 59.935 162.858C60.0895 162.736 59.8715 162.519 59.7186 162.641C59.3517 162.932 58.8875 163.025 58.4801 163.24C58.1002 163.44 57.731 163.72 57.4223 164.021C56.7754 164.652 56.3854 165.49 56.034 166.311C55.9569 166.491 56.2206 166.648 56.2983 166.466Z" fill="#6949F9"/>
<path d="M51.4821 167.511C52.1948 166.514 54.546 166.083 55.4417 167.001C55.5799 167.142 55.7963 166.925 55.6582 166.783C54.6062 165.705 52.0447 166.199 51.2178 167.356C51.1027 167.517 51.368 167.671 51.4821 167.511Z" fill="#6949F9"/>
<path d="M56.1972 172.188C57.9254 170.131 60.7771 170.261 62.2376 172.544C62.3439 172.71 62.6088 172.556 62.5019 172.389C60.949 169.961 57.8391 169.758 55.9807 171.971C55.8544 172.121 56.0699 172.34 56.1972 172.188Z" fill="#6949F9"/>
<path d="M53.6613 149.023C53.9968 149.217 54.3768 149.352 54.6719 149.608C54.9149 149.82 55.1118 150.063 55.3954 150.223C55.5671 150.321 55.7216 150.055 55.5498 149.958C55.2379 149.781 55.0327 149.488 54.7486 149.275C54.4638 149.063 54.1224 148.935 53.8159 148.758C53.6446 148.659 53.4904 148.925 53.6613 149.023Z" fill="#6949F9"/>
<path d="M55.6196 146.251C56.4076 145.324 57.5241 144.941 58.6347 144.548C58.8194 144.483 58.7398 144.186 58.5534 144.251C57.395 144.661 56.2248 145.067 55.4031 146.033C55.2757 146.183 55.4913 146.401 55.6196 146.251Z" fill="#6949F9"/>
<path d="M47.8045 131.951C50.1385 133.453 54.2465 134.65 55.248 137.589C55.3115 137.775 55.6073 137.695 55.5432 137.507C54.508 134.469 50.3653 133.234 47.959 131.685C47.7926 131.578 47.6389 131.844 47.8045 131.951Z" fill="#6949F9"/>
<path d="M55.6202 135.575C55.9575 134.394 57.0935 133.061 57.8893 132.174C58.6355 131.342 59.5111 130.379 60.4821 129.822C60.6532 129.723 60.499 129.458 60.3275 129.556C59.2146 130.195 58.2147 131.3 57.3967 132.273C56.6274 133.188 55.6547 134.339 55.325 135.494C55.2706 135.684 55.566 135.766 55.6202 135.575Z" fill="#6949F9"/>
<path d="M51.1182 126.454C51.7552 126.896 52.311 127.455 53.0247 127.778C53.6295 128.051 54.3468 128.456 55.0082 128.56C55.2009 128.59 55.284 128.294 55.0895 128.263C54.4904 128.169 53.7138 127.743 53.16 127.495C52.454 127.18 51.9032 126.626 51.2729 126.188C51.1103 126.075 50.957 126.342 51.1182 126.454Z" fill="#5D3ABB"/>
<path d="M74.2365 137.277C74.2365 137.277 70.5341 134.386 65.3992 135.182C64.2442 135.362 63.0194 135.727 61.75 136.35C61.75 136.35 64.9869 130.773 69.9179 132.787C70.22 132.91 70.5017 133.037 70.7629 133.16C74.7793 135.096 74.2365 137.277 74.2365 137.277Z" fill="#846DFA"/>
<path d="M48.2651 132.245C45.1424 131.646 42.5178 131.884 40.3789 132.499C35.5907 133.873 33.2397 137.121 33.2397 137.121C33.2397 137.121 30.464 133.406 37.7869 129.379C41.8443 127.148 44.624 128.272 46.2935 129.715C47.6365 130.875 48.2651 132.245 48.2651 132.245Z" fill="#89F2FF"/>
<path d="M73.6993 151.36C73.6993 151.36 72.4705 149.387 70.001 147.558C67.2906 145.553 63.0822 143.72 57.3594 144.856C57.3594 144.856 59.6616 142.612 62.6496 141.55C64.1681 141.009 65.8702 140.771 67.5315 141.296C72.4666 142.842 73.5442 147.489 73.6993 151.36Z" fill="#6949F9"/>
<path d="M54.2779 149.277C38.8647 146.644 31.158 155.625 31.158 155.625C31.0601 154.682 31.0806 153.804 31.1866 152.996C31.2128 152.789 31.2444 152.586 31.2807 152.388C31.9417 148.783 34.7015 145.968 38.2399 145.076C45.9768 143.126 50.3302 145.301 52.4941 147.177C53.7635 148.28 54.2779 149.277 54.2779 149.277Z" fill="#846DFA"/>
<path d="M53.9086 138.243C53.9086 138.243 49.5666 138.341 46.5357 137.528C43.5048 136.715 42.1177 140.199 48.9378 146.587C48.9378 146.587 49.4133 145.077 55.6425 143.421C61.8718 141.766 61.538 136.053 53.9086 138.243Z" fill="#89F2FF"/>
<path d="M66.3437 177.344C66.3437 177.344 66.0946 177.389 65.6824 177.434C63.7109 177.639 58.0045 177.811 58.135 172.828C58.1554 172.107 58.6208 171.463 59.2983 171.225C59.7923 171.053 60.4616 170.884 61.278 170.827C62.2128 170.757 63.3435 170.827 64.6497 171.188C68.6582 172.291 63.9192 175.601 66.3437 177.344Z" fill="#EDC73B"/>
<path d="M44.7023 173.703C44.4562 173.997 43.9919 173.852 43.9605 173.469C43.877 172.448 44.1199 171.533 44.6323 170.605C45.3594 169.288 46.3257 167.698 47.7447 167.015C48.5528 166.626 48.9018 166.743 49.5305 167.303C50.1292 167.836 50.8039 167.692 51.4182 168.119C52.1034 168.595 51.9656 169.745 51.5203 170.337C50.9494 171.096 49.7793 170.997 48.9309 171.194C47.6081 171.502 45.6802 172.534 44.7023 173.703Z" fill="#846DFA"/>
<path d="M43.5285 157.38C43.2752 157.171 42.9255 157.462 43.0852 157.75C43.434 158.378 43.8645 158.98 44.2494 159.521C45.0721 160.677 46.126 161.555 47.45 162.073C48.3051 162.407 51.0709 163.169 51.0125 161.507C50.9581 159.956 48.964 159.778 47.8744 159.438C46.373 158.969 44.7879 158.422 43.5285 157.38Z" fill="#A02A50"/>
<path d="M64.3737 161.267C64.2958 161.039 64.0299 160.946 63.8121 161.048C62.6796 161.577 60.7327 161.584 60.5782 163.198C60.4693 164.335 61.774 164.142 62.4771 163.977C63.1664 163.816 64.9307 162.898 64.3737 161.267Z" fill="#846DFA"/>
<path d="M47.0813 138.862C48.3039 139.111 49.5169 139.44 50.782 139.376C52.1327 139.307 53.4591 139.101 54.7963 138.966C55.5612 138.889 58.1533 138.54 57.2859 140.132C56.7098 141.189 54.4829 141.555 53.4069 141.824C52.6731 142.007 51.9332 142.121 51.2142 142.362C50.6668 142.546 50.1682 142.868 49.6276 143.05C49.5002 142.284 48.598 141.304 47.9679 140.886C47.6876 140.699 45.7163 139.421 47.0813 138.862Z" fill="white"/>
<path d="M46.4692 121.177C47.0772 122.588 47.536 124.111 48.3574 125.442C48.6639 125.938 49.542 126.959 50.1129 126.175C50.5571 125.565 50.0702 124.693 49.6836 124.201C49.0372 123.378 48.2969 122.517 46.4692 121.177Z" fill="#846DFA"/>
<path d="M54.6821 124.047C54.3882 122.809 56.2414 122.034 56.9556 121.439C57.9516 120.602 58.4006 119.462 58.0658 118.154C57.3883 115.513 54.7432 114.033 52.592 112.716C51.2695 112.175 50.2694 111.798 49.2327 111.281C49.0246 111.179 48.7837 111.08 48.5306 110.978C48.498 110.851 48.4612 110.727 48.4204 110.604C48.4204 110.604 57.9761 110.797 59.5966 117.068C60.9764 122.415 56.1393 123.764 54.6821 124.047Z" fill="#E9A527"/>
<path d="M48.265 132.245C45.1423 131.646 42.5177 131.884 40.3788 132.499C40.2767 132.43 40.1665 132.352 40.0155 132.274C39.689 132.102 39.3011 132.139 38.9174 132.196C38.0561 132.323 37.2072 132.647 36.3458 132.856C36.0478 132.93 35.3212 133.192 35.4028 132.668C35.4478 132.409 36.162 131.893 36.3661 131.733C38.0764 130.433 40.2357 129.932 42.3379 129.711C43.2971 129.613 44.2605 129.485 45.2443 129.531C45.628 129.551 45.9668 129.621 46.2933 129.715C47.6364 130.875 48.265 132.245 48.265 132.245Z" fill="#6DC1D5"/>
<path d="M69.0135 126.758C68.6012 126.844 68.148 126.873 67.85 126.947C66.2907 127.328 64.9151 127.841 63.6497 128.78C62.4946 128.96 61.2699 129.325 60.0005 129.949C60.0005 129.949 63.2374 124.371 68.1684 126.385C68.4705 126.508 68.7522 126.635 69.0135 126.758Z" fill="#6949F9"/>
<path d="M54.2779 149.277C38.8647 146.644 31.158 155.625 31.158 155.625C31.0601 154.682 31.0806 153.804 31.1866 152.996C31.8356 152.406 32.5336 151.877 33.2683 151.409C34.9827 150.314 36.693 149.195 38.6155 148.444C40.4279 147.739 42.2076 147.575 44.1343 147.575C45.8241 147.575 47.5753 147.595 49.2367 147.845C50.2734 148.001 52.1755 148.383 52.4939 147.177C53.7635 148.28 54.2779 149.277 54.2779 149.277Z" fill="#6949F9"/>
<path d="M70.0015 147.558C67.2911 145.553 63.0827 143.72 57.3599 144.856C57.3599 144.856 59.6621 142.612 62.6501 141.55C62.4623 141.735 62.3072 141.94 62.25 142.235C62.1234 142.855 62.601 142.994 63.1398 143.183C64.246 143.568 65.4216 143.507 66.5196 143.925C67.6462 144.347 68.185 145.245 68.9687 146.09C69.2626 146.406 69.8178 147.009 70.0015 147.558Z" fill="#5D3ABB"/>
<path d="M66.3438 177.344C66.3438 177.344 66.0948 177.389 65.6826 177.434C65.1928 177.216 64.7314 176.917 64.3275 176.593C63.6457 176.04 63.2989 175.338 62.7723 174.67C62.3069 174.083 61.7763 173.64 62.0172 172.849C62.2172 172.209 62.4498 171.545 61.7763 171.073C61.6374 170.975 61.4661 170.893 61.2783 170.827C62.213 170.758 63.3437 170.827 64.6499 171.188C68.6583 172.291 63.9193 175.601 66.3438 177.344Z" fill="#E9A527"/>
<path d="M52.968 161.915C53.3317 162.1 53.6524 162.355 54.013 162.547C54.414 162.76 54.8237 162.948 55.1719 163.246C55.321 163.373 55.5387 163.157 55.3883 163.028C55.0572 162.744 54.6807 162.546 54.2951 162.347C53.8891 162.138 53.5284 161.856 53.1225 161.649C52.9472 161.559 52.7922 161.825 52.968 161.915Z" fill="#6949F9"/>
<path d="M64.5357 178.468L59.2242 196.917H51.4838L49.8524 191.245L49.7666 190.949L46.1724 178.468H64.5357Z" fill="#846DFA"/>
<path d="M64.5358 178.468L59.2243 196.917H51.484L49.8525 191.245C55.5321 189.02 58.2722 183.4 59.5969 178.468L64.5358 178.468Z" fill="#5D3ABB"/>
<path d="M64.5357 177.813H46.1724V179.123H64.5357V177.813Z" fill="#221B41"/>
<path d="M262.685 179.881C260.741 179.775 258.967 180.774 256.244 179.014C255.58 176.617 254.627 174.039 253.765 171.514L254.927 172.11L253.45 170.599C253.378 170.376 253.303 170.158 253.232 169.939L253.915 170.086L252.895 168.865C252.523 167.667 252.204 166.502 251.976 165.398C253.814 167.716 255.798 170.143 257.696 172.634L257.568 173.647L258.206 173.304C259.826 175.464 261.372 177.665 262.685 179.881Z" fill="white"/>
<path d="M270.479 171.205L269.527 171.639L270.134 171.774C268.716 174.201 267.779 177.058 267.614 179.564C266.278 179.504 264.905 178.686 263.469 175.924C265.873 172.935 268.957 169.604 272.79 168.345C271.942 169.144 271.162 170.12 270.479 171.205Z" fill="#921C48"/>
<path d="M268.915 153.719L268.277 154.71L268.821 154.495C268.371 157.981 267.467 161.58 266.889 164.316C266.818 164.671 266.747 165.01 266.687 165.33C266.559 166.001 266.469 166.672 266.405 167.343L265.325 168.974L264.439 170.309L266.196 169.494L266.293 169.438C266.289 169.468 266.289 169.498 266.289 169.528C266.255 171.676 266.424 173.809 266.522 175.931C266.567 176.851 266.597 177.77 266.593 178.686C266.589 179.598 266.229 180.438 265.648 181.056C265.063 181.678 264.253 182.066 263.345 182.07C263.15 182.07 262.951 182.055 262.741 182.021C261.469 181.799 260.479 180.778 260.168 179.519C259.778 177.932 259.695 176.297 259.845 174.657C259.999 172.901 260.419 171.145 261.004 169.449C261.451 168.168 261.991 166.921 262.583 165.733C262.827 165.243 263.075 164.735 263.322 164.215C264.785 163.536 264.268 163.103 263.919 162.934C263.979 162.802 264.039 162.67 264.099 162.534C264.954 162.594 265.569 162.523 264.361 161.942C264.489 161.664 264.613 161.381 264.736 161.094C265.359 159.659 265.956 158.189 266.503 156.757C267.655 153.753 268.578 150.908 269.02 148.865C269.17 150.358 269.103 152.016 268.915 153.719Z" fill="#EDC73B"/>
<path d="M258.652 181.972C258.375 181.927 258.149 181.833 257.984 181.663C256.176 179.948 254.552 177.894 252.5 176.425C251.731 175.875 250.812 175.403 249.875 174.948L250.887 174.393L249.282 174.657C249.162 174.601 249.042 174.541 248.922 174.484L249.604 174.111L248.524 174.288C247.455 173.753 246.45 173.199 245.733 172.528C248.839 172.935 251.863 173.391 254.751 174.94C256.202 175.72 258.374 176.956 260.134 178.377C261.709 179.651 260.648 182.292 258.652 181.972Z" fill="#DB3256"/>
<path d="M275.206 174.117H273.732L274.79 174.34C274.692 174.393 274.591 174.445 274.493 174.498C273.507 175.029 272.554 175.606 271.808 176.39C271.77 176.424 271.74 176.458 271.706 176.492C270.99 177.275 270.544 178.131 270.21 179.02L268.552 179.378L269.34 179.623L269.94 179.808C269.842 180.109 269.752 180.415 269.666 180.72C269.463 181.417 268.987 181.967 268.383 182.273C267.925 182.503 267.393 182.593 266.853 182.506C266.834 182.502 266.815 182.499 266.796 182.495C265.086 182.216 264.129 180.302 264.996 178.794C265.551 177.826 266.309 176.97 267.198 176.224C267.475 175.994 267.764 175.776 268.064 175.572C268.207 175.47 268.353 175.376 268.5 175.282C268.657 175.18 268.818 175.082 268.983 174.988L269.396 176.315L270.03 174.581L270.09 174.411C272.352 173.356 274.903 172.859 277.127 173.006C276.526 173.409 275.866 173.763 275.206 174.117Z" fill="#5D3ABB"/>
<path d="M258.39 182.289C257.114 183.619 255.494 181.897 253.918 181.365C253.221 181.132 252.448 180.906 251.641 180.721L252.388 179.639L250.843 180.544C249.305 180.243 247.699 180.092 246.296 180.269C246.923 179.956 247.789 179.59 248.753 179.255C248.757 179.255 249.316 179.564 249.316 179.564L249.181 179.108C251.386 178.381 253.99 177.857 255.501 178.415C258.81 179.134 259.616 181.007 258.39 182.289Z" fill="#5D3ABB"/>
<path d="M261.476 181.938C261.456 181.938 261.436 181.938 261.416 181.939C259.432 181.988 256.808 181.083 257.06 179.533C257.218 178.553 257.133 177.579 256.877 176.628L258.036 177.266L256.597 175.745C255.911 173.913 254.684 172.184 253.523 170.661C254.858 171.467 256.137 172.377 257.311 173.384L257.78 174.417L257.773 173.785C258.099 174.076 258.42 174.374 258.724 174.681L258.991 176.577L259.435 175.416C260.762 176.853 261.883 178.429 262.718 180.132C263.161 181.042 262.671 181.903 261.476 181.938Z" fill="#921C48"/>
<path d="M266.195 169.494L266.293 169.438C266.289 169.468 266.289 169.498 266.289 169.528C266.259 169.517 266.225 169.506 266.195 169.494Z" fill="#921C48"/>
<path d="M263.998 181.999C263.998 181.999 262.24 171.639 266.196 162.217C266.196 162.217 262.227 167.88 263.345 182.07C263.345 182.07 263.692 182.137 263.998 181.999Z" fill="white"/>
<path d="M266.51 182.431C266.51 182.431 267.322 178.322 270.479 176.5C270.479 176.5 267.129 177.554 266.006 182.225C266.006 182.225 266.273 182.48 266.51 182.431Z" fill="white"/>
<path d="M256.896 174.152C256.896 174.152 260.959 179.08 260.879 181.929C260.879 181.929 260.494 181.921 260.075 181.839C259.656 181.757 260.936 179.784 256.896 174.152Z" fill="#DB3256"/>
<path d="M272.207 186.483C272.207 192.1 267.678 196.646 262.091 196.646C259.143 196.646 256.491 195.382 254.644 193.36C252.984 191.551 251.976 189.138 251.976 186.483C251.976 184.789 252.386 183.193 253.115 181.793C253.2 181.631 253.289 181.474 253.378 181.321H270.804C271.694 182.831 272.207 184.597 272.207 186.483Z" fill="#5D3ABB"/>
<path d="M265.15 187.555C265.15 190.738 260.461 193.322 254.645 193.36C252.984 191.551 251.976 189.138 251.976 186.483C251.976 184.789 252.387 183.193 253.115 181.793C253.569 181.759 254.035 181.742 254.505 181.742C260.385 181.742 265.15 184.342 265.15 187.555Z" fill="#846DFA"/>
<path d="M271.501 180.665H252.615V181.976H271.501V180.665Z" fill="#221B41"/>
<path d="M128.258 202.154L140.175 201.933L152.093 201.729L175.928 201.41L181.887 201.318L187.846 201.208C191.818 201.141 195.791 201.136 199.764 201.198L205.722 201.323C207.709 201.386 209.695 201.428 211.681 201.513C215.654 201.661 219.626 201.85 223.599 202.154V202.367C219.626 202.671 215.654 202.86 211.681 203.008C209.695 203.093 207.709 203.135 205.722 203.198L199.764 203.323C195.791 203.385 191.818 203.38 187.846 203.313L181.887 203.203L175.928 203.111L152.093 202.792L140.175 202.588L128.258 202.367V202.154Z" fill="#221B41"/>
<path d="M198.948 196.97L210.685 196.748L222.423 196.545L245.899 196.226L251.768 196.134L257.637 196.024C261.549 195.956 265.462 195.951 269.374 196.013L275.243 196.138C277.2 196.201 279.156 196.243 281.112 196.328C285.025 196.476 288.937 196.665 292.85 196.97V197.182C288.937 197.487 285.025 197.676 281.112 197.823C279.156 197.909 277.2 197.951 275.243 198.014L269.374 198.139C265.462 198.2 261.549 198.196 257.637 198.128L251.768 198.018L245.899 197.926L222.423 197.607L210.685 197.403L198.948 197.182V196.97Z" fill="#221B41"/>
<path d="M31.1519 196.959L69.8813 196.534L108.611 196.215L127.975 196.013L137.658 195.959L142.499 195.969L147.34 196.002L157.023 196.127C160.25 196.19 163.477 196.232 166.705 196.318C173.16 196.465 179.615 196.654 186.07 196.959V197.171C179.615 197.476 173.16 197.665 166.705 197.813C163.477 197.898 160.25 197.94 157.023 198.003L147.34 198.128L142.499 198.161L137.658 198.171L127.975 198.117L108.611 197.915L69.8813 197.596L31.1519 197.171V196.959Z" fill="#221B41"/>
<path d="M218.734 149.662L219.972 150.807C220.293 151.105 220.816 150.934 220.902 150.504L221.158 149.23C221.231 148.862 220.932 148.525 220.559 148.557L219.066 148.685C218.579 148.727 218.375 149.33 218.734 149.662Z" fill="#EEC83B"/>
<path d="M123.509 140.552H106.15C104.611 140.552 103.363 139.298 103.363 137.752C103.363 136.206 104.611 134.953 106.15 134.953H123.509C125.048 134.953 126.295 136.206 126.295 137.752C126.295 139.298 125.048 140.552 123.509 140.552Z" fill="#3A2887"/>
<path d="M90.3071 154.052L84.0675 165.21H83.4898C82.474 165.21 81.6916 164.31 81.8298 163.3C81.8833 162.908 82.0685 162.561 82.3384 162.304C82.6083 162.048 82.963 161.881 83.3555 161.85C83.5107 161.838 83.6567 161.787 83.7845 161.704C83.9123 161.623 84.0192 161.51 84.0962 161.375L87.1097 156.032C87.7709 154.862 88.9797 154.117 90.3071 154.052Z" fill="#E9A527"/>
<path d="M82.6349 163.047L83.3534 163.712C83.5401 163.885 83.8432 163.786 83.8934 163.536L84.0417 162.797C84.0846 162.583 83.911 162.387 83.6945 162.406L82.8278 162.48C82.5454 162.505 82.4264 162.854 82.6349 163.047Z" fill="#EEC83B"/>
<path d="M128.976 162.375C128.97 162.375 128.964 162.374 128.958 162.374C127.614 162.333 126.05 162.329 124.554 162.364C124.55 162.364 124.545 162.364 124.541 162.364C124.223 162.364 123.962 162.109 123.954 161.788C123.947 161.462 124.203 161.192 124.527 161.185C126.043 161.15 127.629 161.153 128.994 161.196C129.318 161.206 129.572 161.478 129.562 161.803C129.552 162.122 129.292 162.375 128.976 162.375Z" fill="#846DFA"/>
<path d="M139.39 166.185C139.389 166.185 139.389 166.185 139.388 166.185L137.224 166.18C136.9 166.179 136.637 165.915 136.638 165.589C136.639 165.264 136.902 165.001 137.225 165.001C137.225 165.001 137.226 165.001 137.226 165.001L139.391 165.006C139.715 165.007 139.977 165.272 139.976 165.597C139.976 165.922 139.713 166.185 139.39 166.185Z" fill="#846DFA"/>
<path d="M135.115 166.175C135.113 166.175 135.111 166.175 135.109 166.175C131.326 166.136 127.195 166.127 121.715 166.143C121.715 166.143 121.714 166.143 121.713 166.143C121.39 166.143 121.128 165.88 121.126 165.555C121.126 165.23 121.387 164.965 121.712 164.964C127.197 164.948 131.332 164.957 135.121 164.996C135.445 164.999 135.705 165.266 135.702 165.591C135.698 165.915 135.436 166.175 135.115 166.175Z" fill="#846DFA"/>
<path d="M136.562 169.964C136.56 169.964 136.558 169.964 136.556 169.964C132.618 169.928 128.76 169.929 125.179 169.937C125.178 169.937 125.178 169.937 125.178 169.937C124.854 169.937 124.591 169.674 124.591 169.348C124.59 169.023 124.852 168.758 125.176 168.758C128.762 168.75 132.623 168.749 136.567 168.785C136.891 168.788 137.152 169.055 137.149 169.38C137.145 169.704 136.883 169.964 136.562 169.964Z" fill="#846DFA"/>
<path d="M122.924 169.931C122.924 169.931 122.923 169.931 122.923 169.931L121.891 169.93C120.918 169.928 119.88 169.927 118.883 169.922C118.558 169.92 118.297 169.654 118.299 169.329C118.301 169.004 118.563 168.742 118.886 168.742C118.887 168.742 118.888 168.742 118.889 168.742C119.884 168.748 120.921 168.749 121.893 168.751L122.925 168.752C123.249 168.753 123.512 169.017 123.511 169.343C123.511 169.668 123.248 169.931 122.924 169.931Z" fill="#846DFA"/>
<path d="M255.73 163.768C251.799 163.768 247.869 163.764 243.966 163.757L243.968 163.101C251.772 163.116 259.687 163.116 267.493 163.101L267.494 163.757C263.591 163.764 259.66 163.768 255.73 163.768Z" fill="#3A2887"/>
<path d="M232.086 163.763L232.086 163.108C235.156 163.106 238.226 163.104 241.296 163.101L241.297 163.757C238.227 163.759 235.156 163.761 232.086 163.763Z" fill="#3A2887"/>
<path d="M198.046 65.9399C194.116 65.9399 190.186 65.9362 186.283 65.9288L186.284 65.2737C194.089 65.2886 202.004 65.2886 209.809 65.2737L209.811 65.9288C205.907 65.9362 201.977 65.9399 198.046 65.9399Z" fill="#3A2887"/>
<path d="M174.402 65.935L174.402 65.28C177.472 65.2783 180.542 65.2762 183.612 65.2737L183.613 65.9288C180.543 65.9312 177.472 65.9333 174.402 65.935Z" fill="#3A2887"/>
<path d="M211.508 163.769C202.468 163.769 194.147 163.765 186.069 163.757L186.07 163.101C199.178 163.115 212.931 163.117 229.351 163.109L229.351 163.764C223.049 163.767 217.139 163.769 211.508 163.769Z" fill="#3A2887"/>
<path d="M121.766 150.083L121.766 149.428C124.836 149.426 127.906 149.424 130.976 149.422L130.977 150.077C127.907 150.079 124.836 150.081 121.766 150.083Z" fill="#3A2887"/>
<path d="M101.137 150.089C92.1237 150.089 83.8195 150.085 75.749 150.077L75.7497 149.422C88.8776 149.435 102.631 149.438 119.031 149.43L119.031 150.085C112.713 150.088 106.785 150.089 101.137 150.089Z" fill="#3A2887"/>
<path d="M83.1991 154.101C74.1862 154.101 65.882 154.097 57.8115 154.088L57.8122 153.433C70.9402 153.447 84.6931 153.449 101.093 153.441L101.094 154.096C94.7752 154.099 88.8472 154.101 83.1991 154.101Z" fill="#3A2887"/>
<path d="M100.36 178.406C91.3469 178.406 83.0426 178.402 74.9722 178.393L74.9728 177.738C88.1007 177.752 101.854 177.754 118.254 177.746L118.254 178.401C111.936 178.404 106.008 178.406 100.36 178.406Z" fill="#3A2887"/>
<path d="M178.878 126.867L184.556 130.41C186.804 131.813 187.453 134.58 186.031 136.701L162.804 171.338L158.785 169.233L168.127 140.474L136.092 130.323L178.878 126.867Z" fill="#303072"/>
<path d="M139.004 122.097C139.004 122.097 157.571 121.406 175.27 125.061C178.962 125.823 181.337 128.84 180.699 131.99C178.514 142.777 173.892 166.515 174.53 171.338H169.128C169.128 171.338 162.272 149.511 166.012 135.891C166.012 135.891 149.716 145.294 134.21 138.045C130.22 136.18 126.229 127.858 129.645 125.07L139.004 122.097Z" fill="#5653DF"/>
<path d="M169.128 171.338V174.721V178.052H184.096L184.304 177.642C184.749 176.77 184.226 175.752 183.155 175.45C182.063 175.143 180.504 174.894 178.5 175.047L175.547 174.067L174.07 172.012L169.128 171.338Z" fill="#221B41"/>
<path d="M158.63 169.415L155.905 172.642C155.625 172.974 155.672 173.428 156.016 173.715L161.232 178.052H170.262V175.766C170.262 175.766 165.677 174.538 162.841 174.695L162.621 171.338L158.63 169.415Z" fill="#221B41"/>
<path d="M168.645 169.416L174.423 169.679C174.793 169.696 175.083 169.953 175.083 170.265V172.067C175.083 172.444 174.666 172.723 174.229 172.639L168.725 171.58C168.463 171.53 168.259 171.358 168.2 171.139L167.927 170.132C167.823 169.752 168.182 169.395 168.645 169.416Z" fill="#5653DF"/>
<path d="M158.001 169.852L162.956 171.956C163.264 172.087 163.64 171.981 163.791 171.721L164.739 170.093C164.882 169.847 164.774 169.55 164.492 169.413L159.31 166.905C158.964 166.738 158.522 166.886 158.408 167.207L157.687 169.239C157.602 169.48 157.734 169.738 158.001 169.852Z" fill="#303072"/>
<path d="M171.173 169.594C169.923 161.137 168.91 149.125 171.179 139.92C172.077 136.275 173.208 134.205 173.904 133.188L171.354 133.866C171.225 133.9 171.088 133.852 171.008 133.744C170.929 133.636 170.924 133.49 170.994 133.376L172.711 130.618C172.559 130.43 171.134 129.321 159.395 131.032C151.771 132.144 144.508 130.891 139.758 129.644C134.613 128.293 131.217 126.654 131.183 126.638L131.467 126.049C131.5 126.065 134.851 127.68 139.939 129.014C144.627 130.244 151.791 131.479 159.302 130.384C165.082 129.542 172.191 128.831 173.238 130.231C173.41 130.462 173.398 130.706 173.336 130.844C173.33 130.857 173.323 130.87 173.315 130.882L171.984 133.021L174.688 132.303C174.832 132.265 174.983 132.329 175.055 132.459C175.128 132.589 175.104 132.752 174.997 132.856C174.349 133.488 172.844 135.833 171.788 140.175C170.566 145.193 169.58 154.354 171.818 169.497L171.173 169.594Z" fill="#303072"/>
<path d="M210.384 107.081V119.648C213.79 119.648 216.552 116.835 216.552 113.364C216.552 109.894 213.791 107.081 210.384 107.081Z" fill="#E9A527"/>
<path d="M212.342 111.274L213.58 112.419C213.901 112.717 214.424 112.547 214.51 112.116L214.765 110.843C214.839 110.474 214.54 110.137 214.167 110.169L212.674 110.298C212.187 110.339 211.982 110.942 212.342 111.274Z" fill="#EEC83B"/>
<path d="M210.385 114.765V119.638C210.003 119.76 209.596 119.824 209.178 119.824H204.854C203.481 119.824 202.205 119.125 201.493 117.978L200.717 116.73C200.332 116.11 200.064 115.446 199.91 114.765H210.385Z" fill="#6949F9"/>
<path d="M149.167 55.6794L158.358 53.4028L159.293 59.2368L151.395 62.4197L149.167 55.6794Z" fill="#272440"/>
<path d="M146.717 64.4032C146.328 65.2845 146.038 66.2909 145.965 67.2685C145.893 68.2436 146.075 69.2603 146.745 69.9553C147.409 70.6565 148.446 70.9485 149.458 71.035C150.484 71.1123 151.529 71.0146 152.558 70.8509C151.545 71.0977 150.509 71.2834 149.448 71.2908C148.404 71.2827 147.261 71.0916 146.392 70.3251C145.965 69.9477 145.651 69.4414 145.467 68.9044C145.28 68.3659 145.208 67.8015 145.201 67.2472C145.199 66.1291 145.41 65.0684 145.779 64.0019L146.717 64.4032Z" fill="#272440"/>
<path d="M156.547 69.7278C156.547 69.7278 155.157 79.3549 154.952 79.1597C154.746 78.9645 148.142 75.3869 148.142 75.1267C148.142 74.8665 148.958 67.6463 148.958 67.6463L154.617 67.2029L156.547 69.7278Z" fill="#9C5740"/>
<path d="M146.201 55.6119C144.764 55.8021 143.471 56.7657 142.908 58.0637C142.345 59.3618 142.534 60.9486 143.388 62.1013C144 62.9276 144.898 63.5087 145.597 64.2676C146.325 65.0586 146.828 66.0439 147.035 67.0836C147.182 67.8222 147.189 68.6059 147.548 69.2745C148.186 70.4646 149.982 70.8786 151.081 70.0888C151.918 69.4866 152.248 68.4268 152.438 67.4262C152.919 64.903 152.83 62.2723 152.18 59.7731C151.848 58.4933 151.335 57.1963 150.333 56.3023C149.331 55.4083 147.732 55.0415 146.604 55.7543L146.201 55.6119Z" fill="#272440"/>
<path d="M165.724 61.5553C165.715 61.6399 165.695 61.7227 165.681 61.8065C165.202 64.2627 164.187 66.615 162.677 68.6276C162.209 69.2525 161.71 69.8665 161.093 70.3578C159.559 71.5737 156.046 71.7934 154.214 71.011C152.572 70.3105 151.35 68.8473 150.652 67.2378C149.953 65.6284 149.719 63.8678 149.597 62.1321C148.131 62.1468 146.836 60.6599 147.099 59.2608C147.363 57.8563 148.396 57.0709 150.441 57.7122C150.507 57.7183 150.573 57.7189 150.64 57.7145C154.692 57.7449 158.092 55.5107 161.965 54.8363C162.651 54.7183 164.658 54.1616 165.15 54.7162C165.364 54.9529 165.48 55.3774 165.579 55.6695C165.82 56.3314 165.944 57.0269 165.996 57.7207C166.061 58.5677 166.026 59.4134 165.931 60.2542C165.878 60.6924 165.809 61.1278 165.724 61.5553Z" fill="#9C5740"/>
<path d="M166.024 58.4265C164.04 58.4913 161.811 57.888 159.218 56.8874C158.47 56.5956 157.761 56.4023 157.094 56.2809C158.688 55.7168 160.285 55.132 161.965 54.8363C162.651 54.7183 164.658 54.1616 165.15 54.7162C165.364 54.9529 165.48 55.3774 165.579 55.6695C165.82 56.3314 165.944 57.0269 165.996 57.7207C166.017 57.9562 166.026 58.1896 166.024 58.4265Z" fill="#9C5740"/>
<path d="M149.57 62.3238C149.806 65.6007 150.629 69.7524 154.06 71.2056C155.515 71.8218 156.954 72.041 158.469 71.5781C159.768 71.1812 161.228 70.6222 162.149 69.6099C162.32 69.4215 162.038 69.1344 161.865 69.3243C161.019 70.2547 159.663 70.7867 158.474 71.1618C156.933 71.6475 155.456 71.4188 153.997 70.7502C150.922 69.3413 150.19 65.3058 149.976 62.3323C149.957 62.0801 149.552 62.0693 149.57 62.3238Z" fill="white"/>
<path d="M165.724 61.5553C162.708 61.4947 156.743 60.8025 153.688 59.8456C151.874 59.2767 151.027 58.4341 150.641 57.7146C154.692 57.745 158.092 55.5109 161.965 54.8364C162.651 54.7184 164.659 54.1617 165.151 54.7163C165.365 54.953 165.48 55.3775 165.579 55.6696C165.82 56.3315 165.944 57.027 165.997 57.7209C166.061 58.5678 166.026 59.4135 165.931 60.2543C165.878 60.6924 165.809 61.1278 165.724 61.5553Z" fill="#804231"/>
<path d="M163.597 52.5873C163.945 52.5947 163.951 52.0677 163.602 52.0602C163.255 52.0529 163.248 52.5799 163.597 52.5873Z" fill="#272440"/>
<path d="M155.331 65.6069L160.536 65.7053C160.696 65.7083 160.809 65.8577 160.762 66.0058C160.5 66.8331 159.551 69.0962 157.062 68.7667C154.472 68.4238 154.915 66.3644 155.102 65.7663C155.132 65.6683 155.225 65.6049 155.331 65.6069Z" fill="white"/>
<path d="M146.216 63.1625C146.216 63.1625 144.561 69.819 149.102 70.4128L148.885 66.2584L146.216 63.1625Z" fill="#272440"/>
<path d="M144.888 56.8917C144.893 56.9492 144.899 56.9338 144.904 56.9424C144.912 56.9497 144.914 56.9418 144.92 56.9412C144.931 56.938 144.937 56.9271 144.947 56.9165C144.961 56.8954 144.977 56.8656 144.983 56.8367C145.005 56.7739 145.001 56.7046 144.981 56.6222C144.933 56.4642 144.778 56.2714 144.539 56.1359C144.306 55.9938 144.018 55.8846 143.713 55.8072C143.406 55.7272 143.084 55.6837 142.754 55.6427C143.057 55.5152 143.369 55.3867 143.702 55.2952C144.035 55.2023 144.388 55.1375 144.777 55.1401C145.162 55.1387 145.605 55.2298 146.029 55.5033C146.236 55.6446 146.438 55.8284 146.591 56.059C146.672 56.1717 146.737 56.2961 146.796 56.4287C146.823 56.4962 146.851 56.5626 146.872 56.6391C146.883 56.6783 146.894 56.7096 146.903 56.7572C146.912 56.8058 146.922 56.8303 146.927 56.9279L144.888 56.8917Z" fill="#272440"/>
<path d="M152.052 57.0906C151.929 57.4209 151.824 57.8274 151.744 58.2084C151.665 58.5965 151.605 58.9922 151.586 59.3885C151.546 60.1774 151.63 61.0031 152.109 61.7051C151.777 61.4482 151.504 61.0975 151.293 60.7108C151.078 60.323 150.942 59.8996 150.826 59.471C150.713 59.0407 150.644 58.6018 150.598 58.1595C150.556 57.71 150.529 57.2863 150.551 56.7977L152.052 57.0906Z" fill="#272440"/>
<path d="M173.081 53.1197C170.939 56.8671 168.602 58.3586 165.726 58.4442C163.772 58.5018 161.575 57.9107 159.018 56.9331C158.281 56.648 157.582 56.4586 156.925 56.3392C153.891 55.7908 151.762 56.8324 150.573 57.713L150.567 57.7121C150.501 57.7163 150.441 57.7163 150.377 57.7103C149.475 57.4281 148.771 57.4258 148.249 57.6332L146.377 55.8542C148.184 42.4445 156.985 48.638 156.985 48.638L159.707 45.1954C168.31 35.7693 176.669 46.8371 173.081 53.1197Z" fill="#272440"/>
<path d="M130.379 129.276L131.043 130.251C131.043 130.251 138.334 131.751 151.812 123.965C152.096 123.801 152.404 123.686 152.726 123.628L157.594 122.746L151.266 121.626C151.266 121.626 146.443 123.582 146.089 123.716C145.735 123.849 130.379 129.276 130.379 129.276Z" fill="white"/>
<path d="M146.601 57.5686C146.4 57.1405 146.255 56.7459 146.114 56.3265C145.975 55.9123 145.86 55.4896 145.776 55.0603C145.691 54.6325 145.634 54.1958 145.647 53.7573C145.658 53.3229 145.73 52.8816 145.926 52.51C145.853 52.9242 145.918 53.3288 146.027 53.7094C146.135 54.0914 146.305 54.4543 146.497 54.8024C146.687 55.1507 146.903 55.4856 147.137 55.8067C147.368 56.1228 147.625 56.4494 147.872 56.7131L146.601 57.5686Z" fill="#272440"/>
<path d="M162.431 123.088C162.431 123.088 161.823 122.987 160.795 122.895C158.716 122.708 154.926 122.557 150.99 123.346C149.265 123.691 147.512 124.217 145.865 125.001C138.601 128.454 130.844 130.231 114.829 129.289C119.031 123.346 119.748 117.582 120.306 113.356C121.34 105.547 125.29 98.3257 129.79 92.0032C132.048 88.8288 134.539 85.8458 137.14 82.9517C138.288 81.6744 139.451 80.4704 140.839 79.4433C141.313 79.0922 145.614 77.207 145.635 77.1284C145.635 77.1271 146.811 72.5902 146.811 72.5902L157.094 76.865L156.425 86.4143L156.32 87.9288L159.22 104.609L162.431 123.088Z" fill="#EEC83B"/>
<path d="M150.994 56.8466C151.639 56.58 152.219 56.4332 152.85 56.3125C153.473 56.2021 154.107 56.1408 154.746 56.1608C156.017 56.2036 157.328 56.5469 158.392 57.2925L158.787 57.5701L159.116 57.8153C159.34 57.9725 159.574 58.1214 159.816 58.2609C160.3 58.5396 160.811 58.7811 161.338 58.983C162.391 59.3929 163.506 59.6517 164.635 59.7372C165.199 59.7724 165.766 59.7645 166.33 59.7095C166.891 59.6391 167.45 59.5359 167.99 59.3614C169.072 59.0189 170.083 58.4414 170.953 57.6872C172.697 56.1574 173.832 54.0112 174.599 51.7948C173.951 54.048 172.937 56.2777 171.211 57.9706C170.349 58.8046 169.314 59.4771 168.178 59.9058C167.61 60.1237 167.018 60.2678 166.419 60.3757C165.819 60.468 165.211 60.5098 164.602 60.5048C163.386 60.4795 162.177 60.2678 161.019 59.8883C160.438 59.7012 159.871 59.4706 159.32 59.1924C159.045 59.053 158.774 58.9011 158.508 58.7355L158.115 58.4739L157.776 58.2648C156.874 57.7025 155.806 57.4865 154.741 57.5054C154.206 57.5174 153.669 57.5996 153.143 57.7228C152.627 57.8462 152.074 58.0302 151.644 58.2372L151.615 58.2511C151.234 58.4347 150.777 58.2732 150.595 57.8903C150.412 57.5075 150.572 57.0481 150.954 56.8646C150.966 56.8586 150.981 56.852 150.994 56.8466Z" fill="#272440"/>
<path d="M170.03 44.2102C171.256 44.9867 172.178 46.2397 172.577 47.6529C172.98 49.0787 172.802 50.6091 172.321 51.9952C172.094 52.6993 171.72 53.3516 171.277 53.9492C171.022 54.2198 170.801 54.5284 170.497 54.75C170.352 54.8676 170.214 54.9946 170.063 55.1043L169.586 55.3986C168.291 56.1726 166.765 56.3987 165.3 56.4137C163.823 56.416 162.359 56.1916 160.935 55.846C160.228 55.6567 159.516 55.4775 158.825 55.2373C158.117 55.0129 157.458 54.7739 156.777 54.6225L156.266 54.5127C156.096 54.4817 155.924 54.4704 155.753 54.4479C155.41 54.3911 155.068 54.4091 154.728 54.4004C154.051 54.4378 153.388 54.5714 152.788 54.8455C151.574 55.3843 150.691 56.4929 150.169 57.7401L149.234 57.3302C149.864 55.9318 150.949 54.6314 152.43 54.0243C153.159 53.7172 153.941 53.5863 154.709 53.5685C155.091 53.5867 155.477 53.5824 155.849 53.6535C156.036 53.6834 156.226 53.7027 156.41 53.7418L156.957 53.8759C157.684 54.0606 158.384 54.3385 159.049 54.5703C159.72 54.8261 160.409 55.0202 161.094 55.2261C162.472 55.6039 163.885 55.862 165.304 55.9015C166.712 55.9289 168.167 55.7539 169.399 55.0632L169.856 54.8005C170 54.7016 170.133 54.5859 170.273 54.4797C170.566 54.2807 170.78 53.995 171.03 53.7468C171.465 53.1932 171.843 52.5814 172.082 51.9063C172.587 50.575 172.807 49.0894 172.454 47.6857C172.105 46.2934 171.232 45.0224 170.03 44.2102Z" fill="#504C65"/>
<path d="M160.795 122.895C158.717 122.708 154.926 122.557 150.99 123.346C150.458 121.179 150.375 117.844 152.345 113.364C156.124 104.771 152.345 83.933 152.345 83.933L156.425 86.4143L156.451 88.6841L159.22 104.609L159.074 107.081L160.795 122.895Z" fill="white"/>
<path d="M152.345 113.364C151.749 114.719 151.341 115.969 151.078 117.114C133.277 105.762 145.645 85.8811 145.645 85.8811L153.97 99.0882C154.167 104.39 153.876 109.882 152.345 113.364Z" fill="#E9A527"/>
<path d="M141.095 72.2027L154.024 82.088L149.102 85.5412L138.63 76.5035L141.095 72.2027Z" fill="#921C48"/>
<path d="M160.795 122.895C158.716 122.708 154.925 122.557 150.99 123.346C150.618 121.834 150.466 119.754 151.077 117.114C151.484 117.375 151.907 117.63 152.345 117.88C156.542 120.274 159.1 120.913 160.527 120.439L160.795 122.895Z" fill="white"/>
<path d="M129.393 115.025L153.942 103.28L152.109 99.9603L130.678 110.978L129.393 115.025Z" fill="#921C48"/>
<path d="M164.246 102.412L156.503 82.3579C156.503 82.3579 155.021 77.5386 147.937 78.9377C144.02 79.7115 144.582 85.608 144.935 88.4821C145.555 93.5368 146.967 98.5478 149.736 102.857C152.094 106.526 155.71 111.861 160.376 112.473L187.968 116.093V111.691L164.246 102.412Z" fill="#EEC83B"/>
<path d="M143.437 70.8362L99.4556 56.7364L85.4213 100.924L129.403 115.023L143.437 70.8362Z" fill="#DB3256"/>
<path d="M143.438 70.8359L99.4561 56.7361L97.0199 64.4064L141.002 78.5063L143.438 70.8359Z" fill="#921C48"/>
<path d="M127.732 112.205C127.599 112.625 127.152 112.856 126.735 112.722C126.318 112.588 126.087 112.14 126.22 111.721C126.354 111.301 126.8 111.07 127.217 111.204C127.635 111.338 127.865 111.786 127.732 112.205Z" fill="#921C48"/>
<path d="M90.2984 100.203C90.1651 100.622 89.7188 100.854 89.3014 100.72C88.884 100.586 88.6535 100.137 88.7868 99.718C88.9201 99.2986 89.3664 99.0671 89.7839 99.201C90.2013 99.3349 90.4317 99.7833 90.2984 100.203Z" fill="#921C48"/>
<path d="M137.794 79.8022C137.849 79.3656 137.541 78.9666 137.106 78.9112C136.672 78.8558 136.275 79.1649 136.22 79.6015C136.164 80.0382 136.472 80.4371 136.907 80.4926C137.341 80.548 137.738 80.2389 137.794 79.8022Z" fill="#921C48"/>
<path d="M100.332 67.935C100.198 68.3544 99.752 68.5859 99.3346 68.452C98.9172 68.3181 98.6868 67.8697 98.82 67.4503C98.9533 67.0309 99.3996 66.7994 99.8171 66.9333C100.234 67.0672 100.465 67.5157 100.332 67.935Z" fill="#921C48"/>
<path d="M98.2376 60.5708L95.5737 59.7168L91.3607 72.9816L94.0246 73.8356L98.2376 60.5708Z" fill="#921C48"/>
<path d="M95.2521 63.041L93.9609 62.6271L93.2618 64.8283L94.553 65.2422L95.2521 63.041Z" fill="#921C48"/>
<path d="M102.887 102.409L90.3184 98.3794L97.7358 75.0291L98.357 75.2282L91.1377 97.9546L103.085 101.785L102.887 102.409Z" fill="#921C48"/>
<path d="M126.861 110.097L106.653 103.617L106.851 102.993L126.439 109.274L129.739 98.8851L130.36 99.0843L126.861 110.097Z" fill="#921C48"/>
<path d="M135.106 81.9983L130.367 96.9123L130.988 97.1115L135.727 82.1975L135.106 81.9983Z" fill="#921C48"/>
<path d="M137.274 77.3172L136.653 77.1179L137.705 73.8075L102.404 62.4887L101.583 65.0743L100.961 64.875L101.981 61.6654L138.524 73.3827L137.274 77.3172Z" fill="#921C48"/>
<path d="M110.839 75.9789C111.622 77.6862 112.28 79.4305 112.9 81.186C113.516 82.943 114.082 84.7144 114.606 86.4983C115.131 88.2821 115.612 90.0789 116.044 91.8901C116.471 93.7028 116.86 95.5268 117.123 97.3881C116.339 95.6812 115.681 93.937 115.061 92.1815C114.445 90.4245 113.879 88.6532 113.356 86.8688C112.833 85.0845 112.352 83.2878 111.92 81.4764C111.493 79.6637 111.104 77.8398 110.839 75.9789Z" fill="white"/>
<path d="M109.144 83.6004C109.541 84.3884 109.851 85.1992 110.134 86.017C110.413 86.8357 110.658 87.6633 110.873 88.4986C111.088 89.3339 111.272 90.1772 111.422 91.0294C111.569 91.8825 111.688 92.7426 111.718 93.6259C111.32 92.8383 111.01 92.0274 110.727 91.2097C110.448 90.391 110.203 89.5634 109.989 88.7277C109.775 87.8921 109.591 87.0488 109.441 86.1966C109.295 85.3433 109.175 84.4833 109.144 83.6004Z" fill="white"/>
<path d="M184.555 111.978C184.555 111.988 182.305 115.35 182.305 115.35L185.559 115.782L184.555 111.978Z" fill="#E9A527"/>
<path d="M193.805 75.2604L193.412 76.2237C193.272 76.5665 193.433 76.9585 193.773 77.1018L193.791 77.1092C194.11 77.2439 194.22 77.6435 194.014 77.9236C193.89 78.0922 193.929 78.3301 194.099 78.451L194.64 78.8352C194.837 78.9755 194.977 79.1834 195.033 79.42L195.271 80.4348C195.271 80.4348 194.134 79.3509 192.306 79.4847L191.892 78.3737C191.765 78.0322 191.751 77.6586 191.853 77.3086L192.274 75.8649L193.805 75.2604Z" fill="#804231"/>
<path d="M186.784 83.9324L188.467 88.8328L191.202 85.2083L186.784 83.9324Z" fill="#E9A527"/>
<path d="M184.767 110.177L184.889 110.073C185.064 109.925 185.308 109.892 185.517 109.987L188.185 111.202C188.405 111.302 188.543 111.527 188.533 111.77L188.349 116.279C188.333 116.688 187.92 116.959 187.54 116.811L184.934 115.793C184.706 115.704 184.555 115.483 184.555 115.237V110.634C184.555 110.457 184.633 110.29 184.767 110.177Z" fill="#EEC83B"/>
<path d="M184.445 81.6182L184.445 81.4407C184.444 81.1856 184.592 80.9855 184.824 80.9262L187.794 80.1674C188.04 80.1046 188.332 80.2114 188.534 80.4373L192.271 84.6268C192.61 85.007 192.545 85.538 192.143 85.6682L189.387 86.5618C189.145 86.6402 188.847 86.5456 188.636 86.3238L184.685 82.1769C184.533 82.0182 184.446 81.8135 184.445 81.6182Z" fill="#EEC83B"/>
<defs>
<linearGradient id="paint0_linear_20_5897" x1="94.3113" y1="216.258" x2="234.91" y2="41.652" gradientUnits="userSpaceOnUse">
<stop stop-color="white"/>
<stop offset="1" stop-color="#F1E7D3"/>
</linearGradient>
</defs>
</svg>
