<svg width="32" height="24" viewBox="0 0 32 24" fill="none" xmlns="http://www.w3.org/2000/svg">
<path d="M30.5215 23.265H1.47978C0.936531 23.265 0.496094 22.8246 0.496094 22.2813V1.71806C0.496094 1.17481 0.936469 0.734375 1.47978 0.734375H30.5216C31.0648 0.734375 31.5053 1.17475 31.5053 1.71806V22.2813C31.5052 22.8246 31.0648 23.265 30.5215 23.265Z" fill="#FE255F"/>
<path d="M31.5048 1.7175V22.2812C31.5048 22.8244 31.0648 23.2644 30.5211 23.2644H1.47984C0.936094 23.2644 0.496094 22.8244 0.496094 22.2812V20.4056C2.60922 21.0662 4.85672 21.4225 7.18734 21.4225C18.9817 21.4225 28.6467 12.3056 29.5192 0.734375H30.5211C31.0648 0.734375 31.5048 1.17437 31.5048 1.7175Z" fill="#E01152"/>
<path d="M31.505 14.748V22.2812C31.505 22.8243 31.065 23.2643 30.5212 23.2643H16.4531C22.4306 22.2387 27.7019 19.1462 31.505 14.748Z" fill="#C40047"/>
<path d="M23.4692 23.5884H21.2846C20.8772 23.5884 20.5469 23.2581 20.5469 22.8507V1.14791C20.5469 0.740469 20.8772 0.410156 21.2846 0.410156H23.4692C23.8766 0.410156 24.2069 0.740469 24.2069 1.14791V22.8506C24.2069 23.2581 23.8766 23.5884 23.4692 23.5884Z" fill="#FFC751"/>
<path d="M24.2071 5.13491V1.14791C24.2071 0.740656 23.8766 0.410156 23.4694 0.410156H22.7326C23.0292 0.851344 23.2028 1.38303 23.2028 1.95453C23.2028 3.44628 22.0239 4.66259 20.5469 4.72259V5.13491H24.2071Z" fill="#FFAF40"/>
<path d="M24.2071 15.832V22.8515C24.2071 23.2588 23.8766 23.5893 23.4694 23.5893H21.2846C20.8774 23.5893 20.5469 23.2588 20.5469 22.8515V22.0282C22.1616 21.7154 23.7207 19.1943 24.1899 15.9555C24.1958 15.9142 24.2017 15.8733 24.2071 15.832Z" fill="#FFAF40"/>
<path d="M0 8.61763V6.43306C0 6.02563 0.330312 5.69531 0.73775 5.69531H31.2623C31.6697 5.69531 32 6.02563 32 6.43306V8.61763C32 9.02506 31.6697 9.35537 31.2623 9.35537H0.73775C0.330312 9.35537 0 9.02506 0 8.61763Z" fill="#FFC751"/>
<path d="M17.8662 5.69531H15.7285C15.7393 5.80056 15.7448 5.90731 15.7448 6.0155C15.7448 7.62181 14.5619 8.95175 13.0195 9.18094C13.1479 9.29013 13.3142 9.35556 13.4957 9.35556H17.8663V5.69531H17.8662Z" fill="#FFAF40"/>
<path d="M14.1837 14.8554C14.0423 14.452 14.2294 14.0047 14.6186 13.8278C15.9126 13.2398 17.026 12.3347 17.8675 11.1799C18.6862 10.0566 19.2051 8.76296 19.3883 7.40171C19.4453 6.97746 19.8182 6.66783 20.2459 6.68633L22.0057 6.7624C22.4907 6.78333 22.8516 7.2139 22.7936 7.69583C22.5553 9.67783 21.8149 11.5621 20.6275 13.1913C19.4025 14.8723 17.7716 16.1788 15.875 17.007C15.4352 17.199 14.925 16.9706 14.7663 16.5178L14.1837 14.8554Z" fill="#FFAF40"/>
<path d="M22.792 7.69552C22.5532 9.67752 21.813 11.5622 20.6255 13.1913C19.4007 14.8721 17.7696 16.1789 15.8731 17.0067C15.433 17.1988 14.9233 16.9703 14.7645 16.5175L14.5273 15.8413C17.5682 15.64 19.9723 13.1093 19.9723 10.0171C19.9723 9.09658 19.7592 8.2257 19.3791 7.45114C19.3817 7.43477 19.3842 7.41783 19.3863 7.40145C19.4432 6.97727 19.8161 6.66789 20.2438 6.68633L22.004 6.76214C22.4887 6.78321 22.8498 7.21402 22.792 7.69552Z" fill="#FF993A"/>
<path d="M30.577 14.8554C30.7184 14.452 30.5313 14.0047 30.1421 13.8278C28.848 13.2398 27.7347 12.3347 26.8932 11.1799C26.0745 10.0566 25.5556 8.76296 25.3724 7.40171C25.3154 6.97746 24.9425 6.66783 24.5148 6.68633L22.755 6.7624C22.27 6.78333 21.9091 7.2139 21.967 7.69583C22.2054 9.67783 22.9458 11.5621 24.1332 13.1913C25.3582 14.8723 26.9891 16.1788 28.8857 17.007C29.3255 17.199 29.8357 16.9706 29.9944 16.5178L30.577 14.8554Z" fill="#FFAF40"/>
<path d="M30.5736 14.8551L29.9906 16.5175C29.8799 16.8331 29.5992 17.0395 29.2898 17.0708C29.0659 13.7051 26.2827 11.0402 22.8694 11.0038C22.4068 9.95414 22.1009 8.84102 21.9631 7.69552C21.9053 7.21395 22.2664 6.78314 22.751 6.76214L24.5112 6.68633C24.9389 6.66789 25.3119 6.97733 25.3688 7.40145C25.5521 8.76308 26.0711 10.0566 26.8897 11.1795C27.7309 12.3347 28.8446 13.2399 30.1386 13.8275C30.5275 14.0048 30.715 14.452 30.5736 14.8551Z" fill="#FF993A"/>
<path d="M26.463 10.0154L24.5867 9.35495C23.9286 9.12326 23.4883 8.50145 23.4883 7.80376V5.84932C23.4883 5.15157 23.9286 4.52982 24.5867 4.29814L26.463 3.63764C27.5327 3.26107 28.6535 4.05476 28.6535 5.18882V8.46426C28.6535 9.59832 27.5327 10.392 26.463 10.0154Z" fill="#FF993A"/>
<path d="M18.296 10.0155L20.1723 9.35495C20.8304 9.12326 21.2707 8.50151 21.2707 7.80376V5.84932C21.2707 5.15157 20.8304 4.52982 20.1723 4.29814L18.296 3.63764C17.2263 3.26107 16.1055 4.05476 16.1055 5.18883V8.46426C16.1055 9.59832 17.2263 10.392 18.296 10.0155Z" fill="#FF993A"/>
<path d="M21.2715 5.84895V7.80264C21.2715 8.50102 20.8319 9.12264 20.173 9.35395L18.2972 10.015C17.2721 10.3757 16.1998 9.66089 16.1133 8.60289C16.292 8.63577 16.4762 8.6522 16.6647 8.6522C18.4002 8.6522 19.8079 7.24452 19.808 5.50902C19.808 4.97839 19.6764 4.47845 19.444 4.04102L20.173 4.29758C20.8319 4.52895 21.2715 5.15058 21.2715 5.84895Z" fill="#F97C15"/>
<path d="M22.8352 9.48045H21.9228C21.1348 9.48045 20.4961 8.8417 20.4961 8.05376V5.60052C20.4961 4.81258 21.1348 4.17383 21.9228 4.17383H22.8352C23.6232 4.17383 24.2619 4.81258 24.2619 5.60052V8.05376C24.2618 8.8417 23.6231 9.48045 22.8352 9.48045Z" fill="#FFE059"/>
<path d="M28.6536 5.18881V8.46469C28.6536 9.59831 27.532 10.3921 26.4631 10.016L24.5861 9.35487C24.38 9.2825 24.1958 9.17181 24.0391 9.03256C24.1125 9.03806 24.1871 9.04025 24.2616 9.04025C26.1506 9.04025 27.6822 7.50869 27.6822 5.61969C27.6822 4.83912 27.4202 4.11881 26.9794 3.54325C27.8653 3.52675 28.6536 4.23831 28.6536 5.18881Z" fill="#F97C15"/>
<path d="M24.262 6.25977V8.05445C24.262 8.8427 23.624 9.48077 22.8357 9.48077H21.9235C21.1353 9.48077 20.4961 8.8427 20.4961 8.05439V7.9897C20.836 8.1377 21.2109 8.21995 21.6056 8.21995C22.8555 8.21995 23.9123 7.39445 24.262 6.25977Z" fill="#FFC751"/>
<path d="M31.9986 6.43306V8.61781C31.9986 9.02506 31.6681 9.35556 31.2608 9.35556H28.5469C29.863 8.94194 30.8172 7.71231 30.8172 6.25994C30.8172 6.06712 30.8004 5.87875 30.768 5.69531H31.2608C31.6681 5.69531 31.9986 6.02581 31.9986 6.43306Z" fill="#FFAF40"/>
<path d="M20.5469 18.179V14.6834C20.5469 14.0633 21.0496 13.5605 21.6698 13.5605C22.2899 13.5605 22.7926 14.0633 22.7926 14.6834V18.179C22.7926 18.7992 22.2899 19.3019 21.6698 19.3019C21.0496 19.3019 20.5469 18.7992 20.5469 18.179Z" fill="#FFE059"/>
<path d="M3.41584 5.70508H6.91147C7.53159 5.70508 8.03434 6.20783 8.03434 6.82795C8.03434 7.44808 7.53159 7.95083 6.91147 7.95083H3.41584C2.79572 7.95083 2.29297 7.44808 2.29297 6.82795C2.29297 6.20777 2.79566 5.70508 3.41584 5.70508Z" fill="#FFE059"/>
<path d="M3.41584 0.734375H10.0365C10.6566 0.734375 11.1593 1.23713 11.1593 1.85725C11.1593 2.47738 10.6566 2.98012 10.0365 2.98012H3.41584C2.79572 2.98012 2.29297 2.47738 2.29297 1.85725C2.29297 1.23713 2.79566 0.734375 3.41584 0.734375Z" fill="#FC709B"/>
<path d="M17.5879 6.01559C18.1326 6.01559 18.5742 5.57401 18.5742 5.02928C18.5742 4.48456 18.1326 4.04297 17.5879 4.04297C17.0432 4.04297 16.6016 4.48456 16.6016 5.02928C16.6016 5.57401 17.0432 6.01559 17.5879 6.01559Z" fill="#FFC751"/>
<path d="M13.0831 2.838C13.664 2.838 14.1349 2.36709 14.1349 1.78619C14.1349 1.20529 13.664 0.734375 13.0831 0.734375C12.5022 0.734375 12.0312 1.20529 12.0312 1.78619C12.0312 2.36709 12.5022 2.838 13.0831 2.838Z" fill="#FC709B"/>
<path d="M11.1407 20.9997H3.23047C2.71272 20.9997 2.29297 20.58 2.29297 20.0622V16.834C2.29297 16.3162 2.71272 15.8965 3.23047 15.8965H11.1407C11.6584 15.8965 12.0782 16.3162 12.0782 16.834V20.0622C12.0782 20.58 11.6584 20.9997 11.1407 20.9997Z" fill="#EEFDFF"/>
<path d="M12.0786 16.834V20.0621C12.0786 20.5796 11.6586 20.9996 11.1411 20.9996H3.23047C2.71297 20.9996 2.29297 20.5796 2.29297 20.0621V19.6046C2.95234 19.8046 3.65172 19.9115 4.37609 19.9115C7.20859 19.9115 9.65797 18.2752 10.8317 15.8965H11.1411C11.6586 15.8965 12.0786 16.3159 12.0786 16.834Z" fill="#B6F0FF"/>
<path d="M4.45609 14.6721H3.36634C2.77353 14.6721 2.29297 14.1916 2.29297 13.5988C2.29297 13.006 2.77353 12.5254 3.36634 12.5254H4.45616C5.04897 12.5254 5.52953 13.006 5.52953 13.5988C5.52947 14.1916 5.04891 14.6721 4.45609 14.6721Z" fill="#FFE059"/>
</svg>
