<svg width="32" height="32" viewBox="0 0 32 32" fill="none" xmlns="http://www.w3.org/2000/svg">
<path d="M27.4974 11.2673C26.0974 5.10732 20.724 2.33398 16.004 2.33398H15.9907C11.284 2.33398 5.89737 5.09398 4.49737 11.254C2.93737 18.134 7.1507 23.9607 10.964 27.6273C12.3157 28.9356 14.123 29.6671 16.004 29.6673C17.8174 29.6673 19.6307 28.9873 21.0307 27.6273C24.844 23.9607 29.0574 18.1473 27.4974 11.2673ZM16.004 17.9473C15.4525 17.9473 14.9063 17.8387 14.3968 17.6276C13.8872 17.4165 13.4242 17.1072 13.0342 16.7172C12.6442 16.3272 12.3348 15.8642 12.1237 15.3546C11.9127 14.845 11.804 14.2989 11.804 13.7473C11.804 13.1958 11.9127 12.6496 12.1237 12.14C12.3348 11.6305 12.6442 11.1675 13.0342 10.7775C13.4242 10.3875 13.8872 10.0781 14.3968 9.86702C14.9063 9.65595 15.4525 9.54732 16.004 9.54732C17.1179 9.54732 18.1862 9.98982 18.9739 10.7775C19.7615 11.5651 20.204 12.6334 20.204 13.7473C20.204 14.8612 19.7615 15.9295 18.9739 16.7172C18.1862 17.5048 17.1179 17.9473 16.004 17.9473Z" fill="#030303"/>
</svg>
