<svg width="32" height="32" viewBox="0 0 32 32" fill="none" xmlns="http://www.w3.org/2000/svg">
<path d="M16.0013 2.66602C8.65464 2.66602 2.66797 8.65268 2.66797 15.9993C2.66797 23.346 8.65464 29.3327 16.0013 29.3327C23.348 29.3327 29.3346 23.346 29.3346 15.9993C29.3346 8.65268 23.348 2.66602 16.0013 2.66602ZM21.8013 20.7593C21.7345 20.873 21.6459 20.9722 21.5404 21.0513C21.435 21.1303 21.3149 21.1877 21.1871 21.2199C21.0594 21.2522 20.9265 21.2587 20.7961 21.2392C20.6658 21.2196 20.5407 21.1743 20.428 21.106L16.2946 18.6393C15.268 18.026 14.508 16.6793 14.508 15.4927V10.026C14.508 9.47935 14.9613 9.02602 15.508 9.02602C16.0546 9.02602 16.508 9.47935 16.508 10.026V15.4927C16.508 15.9727 16.908 16.6793 17.3213 16.9193L21.4546 19.386C21.9346 19.666 22.0946 20.2793 21.8013 20.7593Z" fill="#030303"/>
</svg>
