<svg width="286" height="286" viewBox="0 0 286 286" fill="none" xmlns="http://www.w3.org/2000/svg">
<path d="M58.6697 257.491C15.9356 232.804 15.9356 192.821 58.6697 168.168C101.404 143.515 170.684 143.498 213.413 168.168C256.141 192.838 256.147 232.838 213.413 257.509C170.679 282.179 101.404 282.162 58.6697 257.491Z" fill="#F5F5F5"/>
<path d="M157.975 230.642L160.44 232.066L79.4395 244.667V242.86L157.975 230.642Z" fill="#E0E0E0"/>
<path d="M51.6287 252.252C46.1146 255.472 46.1146 260.689 51.6287 263.909C57.1428 267.13 66.0832 267.13 71.603 263.909C77.1228 260.689 77.117 255.472 71.603 252.252C66.0889 249.032 57.1428 249.009 51.6287 252.252Z" fill="#E0E0E0"/>
<path d="M135.936 205.348C122.597 213.139 122.597 225.763 135.936 233.547C149.275 241.332 170.897 241.332 184.23 233.547C197.563 225.763 197.563 213.139 184.23 205.348C170.897 197.557 149.292 197.586 135.936 205.348Z" fill="#E0E0E0"/>
<path d="M192.907 206.732C196.705 206.4 200.915 206.16 203.918 208.505C205.331 209.598 206.309 211.137 207.384 212.561C208.54 214.088 209.826 215.512 211.228 216.817C211.942 217.532 212.767 218.127 213.67 218.578C214.683 218.996 215.773 219.192 216.868 219.15C221.444 219.15 225.694 216.622 229.217 213.671C230.161 212.881 231.122 211.955 231.368 210.765C231.78 208.78 230.104 206.978 228.394 205.891C223.578 202.825 217.583 201.064 212.103 199.599C206.262 197.959 200.221 197.145 194.154 197.18C190.377 197.252 186.62 197.737 182.948 198.627C180.729 199.165 177.514 199.828 175.798 201.447C175.406 201.78 175.117 202.22 174.968 202.713C174.819 203.206 174.815 203.732 174.958 204.227C175.387 205.371 176.702 205.823 177.88 206.097C182.765 207.253 187.959 207.161 192.907 206.732Z" fill="#E0E0E0"/>
<path d="M67.3242 96.668V98.8531C67.3242 99.5452 67.8104 99.8254 68.4053 99.4765L70.516 98.2582V93.5735L68.4053 94.7918C68.0908 94.9981 67.8292 95.2754 67.6414 95.6012C67.4536 95.9271 67.345 96.2925 67.3242 96.668Z" fill="#E0E0E0"/>
<path d="M70.5159 168.368L61.7071 173.459C61.3921 173.663 61.1299 173.939 60.942 174.264C60.7541 174.59 60.6458 174.954 60.626 175.329V177.52C60.626 178.207 61.1065 178.487 61.7071 178.144L70.5159 173.059V168.368Z" fill="#E0E0E0"/>
<path d="M60.6318 94.7862V96.977C60.6318 97.6634 61.1123 97.9436 61.7129 97.6004L70.5217 92.5096V87.825L61.7129 92.9158C61.3979 93.1201 61.1358 93.3961 60.9479 93.7212C60.76 94.0463 60.6517 94.4112 60.6318 94.7862Z" fill="#E0E0E0"/>
<path d="M65.3909 119.548L55.3809 125.331C55.0668 125.536 54.8054 125.813 54.6176 126.137C54.4299 126.462 54.321 126.827 54.2998 127.201V129.392C54.2998 130.079 54.786 130.359 55.3809 130.016L65.3909 124.238C65.706 124.033 65.9681 123.756 66.156 123.43C66.3438 123.104 66.4521 122.738 66.472 122.362V120.177C66.472 119.457 65.9915 119.176 65.3909 119.548Z" fill="#E0E0E0"/>
<path d="M70.5159 145.357L61.7071 150.447C61.3921 150.652 61.1299 150.928 60.942 151.253C60.7541 151.578 60.6458 151.943 60.626 152.318V154.509C60.626 155.195 61.1065 155.475 61.7071 155.132L70.5159 150.041V145.357Z" fill="#E0E0E0"/>
<path d="M60.6318 71.7745V73.9595C60.6318 74.6516 61.1123 74.9319 61.7129 74.5887L70.5217 69.4979V64.8132L61.7129 69.904C61.3973 70.1077 61.1346 70.3836 60.9467 70.7088C60.7587 71.034 60.6508 71.3993 60.6318 71.7745Z" fill="#E0E0E0"/>
<path d="M70.5159 202.888L61.7071 207.979C61.3921 208.184 61.1299 208.46 60.942 208.785C60.7541 209.11 60.6458 209.475 60.626 209.85V212.04C60.626 212.727 61.1065 213.007 61.7071 212.664L70.5159 207.573V202.888Z" fill="#E0E0E0"/>
<path d="M50.5986 140.952V143.137C50.5986 143.829 51.0791 144.11 51.6797 143.761L61.684 137.984C61.9997 137.78 62.2628 137.504 62.4516 137.179C62.6405 136.854 62.7499 136.489 62.7708 136.113V133.922C62.7708 133.236 62.2846 132.956 61.684 133.299L51.6797 139.076C51.3646 139.282 51.1025 139.559 50.9146 139.885C50.7268 140.211 50.6185 140.577 50.5986 140.952Z" fill="#E0E0E0"/>
<path d="M60.6318 117.798V119.988C60.6318 120.675 61.1123 120.955 61.7129 120.612L70.5217 115.527V110.836L61.7129 115.927C61.3979 116.132 61.1358 116.408 60.9479 116.733C60.76 117.058 60.6517 117.423 60.6318 117.798Z" fill="#E0E0E0"/>
<path d="M59.7737 155.012V152.827C59.7737 152.135 59.2875 151.854 58.6926 152.203L48.6826 157.981C48.3686 158.186 48.1072 158.462 47.9194 158.787C47.7316 159.112 47.6228 159.476 47.6016 159.851V162.042C47.6016 162.728 48.0878 163.008 48.6826 162.665L58.6926 156.888C59.0071 156.682 59.2688 156.405 59.4565 156.079C59.6443 155.753 59.753 155.387 59.7737 155.012Z" fill="#E0E0E0"/>
<path d="M55.3809 210.53L65.3909 204.753C65.706 204.547 65.9681 204.27 66.156 203.944C66.3438 203.618 66.4521 203.253 66.472 202.877V200.692C66.472 200 65.9915 199.719 65.3909 200.068L55.3809 205.846C55.0668 206.051 54.8054 206.327 54.6176 206.652C54.4299 206.977 54.321 207.341 54.2998 207.716V209.924C54.2998 210.593 54.786 210.873 55.3809 210.53Z" fill="#E0E0E0"/>
<path d="M59.8255 65.288L49.8155 71.0652C49.5005 71.2695 49.2383 71.5455 49.0504 71.8706C48.8625 72.1957 48.7542 72.5606 48.7344 72.9356V75.1264C48.7344 75.8127 49.2149 76.093 49.8155 75.7498L59.8255 69.9726C60.1399 69.7664 60.4016 69.4891 60.5894 69.1633C60.7771 68.8374 60.8858 68.472 60.9065 68.0965V65.9114C60.9065 65.2079 60.4203 64.939 59.8255 65.288Z" fill="#E0E0E0"/>
<path d="M65.3909 73.4962L55.3809 79.2734C55.0664 79.4797 54.8048 79.7569 54.617 80.0828C54.4292 80.4086 54.3206 80.774 54.2998 81.1495V83.3346C54.2998 84.0267 54.786 84.307 55.3809 83.9581L65.3909 78.1809C65.7059 77.9765 65.968 77.7005 66.1559 77.3754C66.3438 77.0503 66.4521 76.6854 66.472 76.3104V74.1197C66.472 73.4333 65.9915 73.153 65.3909 73.4962Z" fill="#E0E0E0"/>
<path d="M65.3909 96.5079L55.3809 102.291C55.0662 102.496 54.8043 102.772 54.6164 103.097C54.4286 103.422 54.3201 103.786 54.2998 104.161V106.352C54.2998 107.038 54.786 107.319 55.3809 106.976L65.3909 101.193C65.7059 100.988 65.968 100.712 66.1559 100.387C66.3438 100.062 66.4521 99.6971 66.472 99.3221V97.1314C66.472 96.445 65.9915 96.1647 65.3909 96.5079Z" fill="#E0E0E0"/>
<path d="M55.3809 164.507L65.3909 158.724C65.7065 158.521 65.9692 158.245 66.1571 157.92C66.3451 157.594 66.453 157.229 66.472 156.854V154.663C66.472 153.977 65.9915 153.696 65.3909 154.04L55.3809 159.823C55.0662 160.027 54.8043 160.303 54.6164 160.628C54.4286 160.953 54.3201 161.318 54.2998 161.693V163.884C54.2998 164.57 54.786 164.85 55.3809 164.507Z" fill="#E0E0E0"/>
<path d="M70.5159 179.877L61.7071 184.968C61.3914 185.171 61.1288 185.447 60.9408 185.773C60.7528 186.098 60.6449 186.463 60.626 186.838V189.023C60.626 189.715 61.1065 189.996 61.7071 189.652L70.5159 184.562V179.877Z" fill="#E0E0E0"/>
<path d="M164.021 47.9793V50.1644C164.002 50.542 163.895 50.9098 163.707 51.2379C163.519 51.566 163.256 51.8449 162.94 52.052L160.829 53.2703V48.5742L162.94 47.3559C163.535 47.0127 164.021 47.2872 164.021 47.9793Z" fill="#E0E0E0"/>
<path d="M160.829 123.38L169.644 118.295C170.216 117.946 170.725 118.227 170.725 118.919V121.104C170.704 121.479 170.595 121.845 170.408 122.171C170.22 122.497 169.958 122.774 169.644 122.98L160.829 128.065V123.38Z" fill="#E0E0E0"/>
<path d="M170.725 38.3754V40.5605C170.704 40.936 170.595 41.3014 170.408 41.6272C170.22 41.9531 169.958 42.2303 169.644 42.4366L160.829 47.5217V42.837L169.644 37.7519C170.238 37.403 170.725 37.6833 170.725 38.3754Z" fill="#E0E0E0"/>
<path d="M165.954 68.6399L175.964 62.857C176.536 62.5138 177.045 62.7941 177.045 63.4805V65.6713C177.025 66.0461 176.916 66.4109 176.729 66.7359C176.541 67.0609 176.279 67.337 175.964 67.5417L165.954 73.3246C165.354 73.6678 164.873 73.3875 164.873 72.7011V70.5104C164.893 70.1354 165.001 69.7705 165.189 69.4454C165.377 69.1203 165.639 68.8443 165.954 68.6399Z" fill="#E0E0E0"/>
<path d="M160.829 100.369L169.644 95.2837C170.216 94.9347 170.725 95.215 170.725 95.9071V98.0922C170.704 98.4677 170.595 98.8331 170.408 99.159C170.22 99.4848 169.958 99.7621 169.644 99.9683L160.829 105.053V100.369Z" fill="#E0E0E0"/>
<path d="M170.725 15.3582V17.549C170.709 17.9287 170.602 18.2992 170.414 18.6296C170.226 18.9599 169.962 19.2405 169.644 19.448L160.829 24.5388V19.8255L169.644 14.7347C170.238 14.3915 170.725 14.6718 170.725 15.3582Z" fill="#E0E0E0"/>
<path d="M160.829 157.9L169.644 152.815C170.216 152.466 170.725 152.747 170.725 153.439V155.624C170.704 155.999 170.595 156.365 170.408 156.691C170.22 157.017 169.958 157.294 169.644 157.5L160.829 162.585V157.9Z" fill="#E0E0E0"/>
<path d="M180.751 72.9585V75.1493C180.73 75.5239 180.621 75.8884 180.433 76.2132C180.246 76.5381 179.984 76.8144 179.67 77.0197L169.66 82.7969C169.06 83.1459 168.579 82.8656 168.579 82.1735V79.9884C168.599 79.6127 168.707 79.2469 168.895 78.9209C169.083 78.5949 169.345 78.3179 169.66 78.1123L179.67 72.3351C180.265 71.9919 180.751 72.2721 180.751 72.9585Z" fill="#E0E0E0"/>
<path d="M170.725 61.3871V63.5722C170.704 63.9478 170.596 64.3134 170.408 64.6393C170.22 64.9652 169.958 65.2424 169.644 65.4483L160.829 70.5334V65.8487L169.644 60.7636C170.238 60.4147 170.725 60.695 170.725 61.3871Z" fill="#E0E0E0"/>
<path d="M171.6 97.589V95.404C171.62 95.0284 171.728 94.6628 171.916 94.3369C172.104 94.0109 172.366 93.7338 172.681 93.5278L182.691 87.7506C183.291 87.4074 183.772 87.682 183.772 88.3741V90.5649C183.752 90.9398 183.644 91.3048 183.456 91.6299C183.268 91.9549 183.006 92.231 182.691 92.4353L172.681 98.2125C172.057 98.5614 171.6 98.2812 171.6 97.589Z" fill="#E0E0E0"/>
<path d="M175.964 148.068L165.954 153.868C165.354 154.211 164.873 153.931 164.873 153.244V151.008C164.893 150.633 165.001 150.268 165.189 149.943C165.377 149.618 165.639 149.342 165.954 149.138L175.964 143.36C176.536 143.011 177.045 143.292 177.045 143.984V146.169C177.028 146.548 176.921 146.918 176.733 147.248C176.545 147.579 176.282 147.859 175.964 148.068Z" fill="#E0E0E0"/>
<path d="M165.954 22.5883L175.964 16.8111C176.536 16.4679 177.045 16.7482 177.045 17.4346V19.6254C177.024 20 176.915 20.3644 176.727 20.6893C176.54 21.0142 176.278 21.2904 175.964 21.4958L165.954 27.273C165.354 27.6219 164.873 27.3417 164.873 26.6495V24.4645C164.893 24.0888 165.001 23.723 165.189 23.397C165.377 23.071 165.639 22.7939 165.954 22.5883Z" fill="#E0E0E0"/>
<path d="M165.954 45.5998L175.964 39.8226C176.536 39.4794 177.045 39.7597 177.045 40.4461V42.6368C177.024 43.0115 176.915 43.3759 176.727 43.7008C176.54 44.0257 176.278 44.3019 175.964 44.5073L165.954 50.2902C165.354 50.6334 164.873 50.3531 164.873 49.661V47.476C164.893 47.1002 165.001 46.7345 165.189 46.4085C165.377 46.0825 165.639 45.8054 165.954 45.5998Z" fill="#E0E0E0"/>
<path d="M175.964 102.039L165.954 107.822C165.354 108.165 164.873 107.885 164.873 107.193V105.008C164.893 104.632 165.001 104.266 165.189 103.94C165.377 103.614 165.639 103.337 165.954 103.132L175.964 97.3543C176.536 97.0111 177.045 97.2914 177.045 97.9778V100.169C177.024 100.543 176.915 100.908 176.727 101.233C176.54 101.557 176.278 101.834 175.964 102.039Z" fill="#E0E0E0"/>
<path d="M160.829 134.889L169.644 129.798C170.216 129.455 170.725 129.735 170.725 130.422V132.612C170.703 132.987 170.595 133.351 170.407 133.676C170.219 134.001 169.958 134.277 169.644 134.483L160.829 139.568V134.889Z" fill="#E0E0E0"/>
<path d="M79.4395 158.764L151.649 200.474V25.9458L79.4395 67.6618V158.764Z" fill="#C8102E"/>
<path opacity="0.4" d="M79.4395 158.764L151.649 200.474V25.9458L79.4395 67.6618V158.764Z" fill="#C8102E"/>
<path d="M151.649 200.474L79.4395 158.764V242.15L151.649 200.474Z" fill="#E0E0E0"/>
<path d="M151.648 200.475L155.023 202.414V23.9954L151.648 25.9459V200.475Z" fill="#C8102E"/>
<path opacity="0.4" d="M151.648 200.475L155.023 202.414V23.9954L151.648 25.9459V200.475Z" fill="white"/>
<path opacity="0.1" d="M151.648 200.475L155.023 202.414V23.9954L151.648 25.9459V200.475Z" fill="black"/>
<path d="M155.024 202.414L160.83 199.062V11.7546L73.8398 61.9762L73.8456 249.283L79.4397 246.052V67.6619L155.024 23.9954V202.414Z" fill="#C8102E"/>
<path opacity="0.7" d="M155.024 202.414L160.83 199.062V11.7546L73.8398 61.9762L73.8456 249.283L79.4397 246.052V67.6619L155.024 23.9954V202.414Z" fill="white"/>
<path d="M160.83 11.7545L73.8399 61.9761L70.5166 60.0428L157.506 9.8269L160.83 11.7545Z" fill="#C8102E"/>
<path opacity="0.85" d="M160.83 11.7545L73.8399 61.9761L70.5166 60.0428L157.506 9.8269L160.83 11.7545Z" fill="white"/>
<path d="M73.8396 249.283V61.9761L70.5163 60.0427L70.4648 247.333L73.8396 249.283Z" fill="#C8102E"/>
<path opacity="0.6" d="M70.5163 60.0427L70.4648 247.333L73.8396 249.283V61.9761" fill="white"/>
<path d="M192.964 50.9079C193.605 50.852 194.25 50.8887 194.88 51.0166C195.487 51.1329 196.069 51.3577 196.596 51.6801C197.096 51.9853 197.523 52.3951 197.849 52.8813C198.143 53.3556 198.334 53.886 198.411 54.4386C198.488 54.9912 198.448 55.5538 198.295 56.0902C198.162 56.4978 197.969 56.8834 197.723 57.2342C197.485 57.579 197.217 57.9024 196.922 58.2009L196.087 59.036C195.834 59.2877 195.605 59.5614 195.401 59.854C195.218 60.1134 195.111 60.4183 195.092 60.7349C195.076 60.8813 195.023 61.0211 194.937 61.141C194.897 61.1984 194.844 61.2458 194.783 61.2795C194.721 61.3133 194.653 61.3324 194.583 61.3355L193.01 61.467C192.935 61.4736 192.86 61.4654 192.788 61.4428C192.716 61.4202 192.65 61.3837 192.592 61.3355C192.533 61.2917 192.486 61.2347 192.453 61.1691C192.42 61.1036 192.403 61.0313 192.403 60.958C192.378 60.4654 192.454 59.9729 192.627 59.5108C192.787 59.1034 193.001 58.7188 193.261 58.3668C193.512 58.027 193.792 57.7094 194.097 57.4173C194.4 57.1256 194.669 56.8453 194.932 56.5879C195.167 56.3501 195.376 56.0873 195.555 55.8042C195.711 55.5614 195.781 55.2736 195.755 54.9863C195.737 54.7336 195.658 54.4891 195.525 54.2739C195.391 54.0586 195.207 53.8791 194.989 53.7508C194.444 53.4357 193.811 53.3091 193.187 53.3904C192.628 53.4284 192.094 53.6384 191.659 53.9917C191.224 54.345 190.908 54.8243 190.756 55.3638C190.712 55.493 190.649 55.6146 190.567 55.7242C190.463 55.8161 190.329 55.867 190.19 55.8672L188.52 56.0044C188.461 56.0118 188.401 56.0069 188.344 55.9902C188.287 55.9735 188.234 55.9452 188.188 55.9072C188.14 55.8696 188.101 55.822 188.073 55.7677C188.045 55.7133 188.03 55.6535 188.028 55.5926C188.008 55.0686 188.118 54.5479 188.348 54.0768C188.585 53.5249 188.918 53.0194 189.332 52.5839C189.797 52.1196 190.334 51.7333 190.922 51.4399C191.56 51.1283 192.255 50.9474 192.964 50.9079ZM194.772 62.571C194.92 62.5624 195.065 62.6116 195.178 62.7083C195.235 62.7537 195.282 62.8109 195.316 62.876C195.349 62.9411 195.368 63.0127 195.372 63.0858L195.527 64.9048C195.537 65.052 195.49 65.1976 195.395 65.3109C195.348 65.3682 195.29 65.4151 195.224 65.4485C195.158 65.482 195.086 65.5014 195.012 65.5054L193.239 65.6541C193.165 65.6614 193.092 65.6535 193.022 65.6308C192.952 65.6082 192.887 65.5713 192.832 65.5225C192.775 65.4766 192.728 65.4194 192.693 65.3545C192.659 65.2896 192.638 65.2183 192.632 65.145L192.484 63.326C192.475 63.2529 192.482 63.1786 192.505 63.1085C192.527 63.0384 192.565 62.974 192.615 62.9199C192.66 62.8617 192.717 62.8138 192.782 62.7793C192.847 62.7448 192.919 62.7245 192.993 62.7197L194.772 62.571Z" fill="#C8102E"/>
<path d="M205.777 70.6363C206.264 70.7715 206.728 70.9777 207.155 71.2483C207.566 71.4981 207.928 71.8197 208.225 72.1979C208.502 72.5642 208.697 72.9855 208.797 73.4334C208.906 73.9124 208.886 74.4116 208.74 74.8805C208.645 75.2565 208.473 75.6089 208.236 75.9159C208.027 76.1809 207.781 76.414 207.504 76.608C207.233 76.7941 206.946 76.9568 206.646 77.0942L205.8 77.4831C205.545 77.5973 205.302 77.7352 205.073 77.895C204.865 78.0359 204.702 78.2347 204.604 78.467C204.552 78.5713 204.473 78.66 204.375 78.7244C204.33 78.7556 204.278 78.7759 204.223 78.7838C204.169 78.7918 204.113 78.7871 204.061 78.7701L202.865 78.4327C202.808 78.4187 202.754 78.3926 202.708 78.3561C202.662 78.3196 202.624 78.2735 202.597 78.221C202.566 78.1731 202.547 78.1186 202.541 78.0621C202.535 78.0055 202.542 77.9482 202.562 77.895C202.683 77.5259 202.878 77.1853 203.134 76.894C203.366 76.6352 203.629 76.4066 203.918 76.2133C204.197 76.0314 204.492 75.8745 204.799 75.7443C205.102 75.6127 205.371 75.4869 205.64 75.361C205.879 75.2528 206.105 75.1185 206.315 74.9606C206.5 74.8177 206.631 74.616 206.686 74.3886C206.748 74.1945 206.759 73.988 206.72 73.7882C206.681 73.5884 206.593 73.4015 206.463 73.2446C206.15 72.8636 205.72 72.5962 205.239 72.4839C204.816 72.3569 204.364 72.3641 203.945 72.5044C203.526 72.6448 203.161 72.9113 202.9 73.2675C202.834 73.3506 202.755 73.4222 202.665 73.4791C202.564 73.5173 202.452 73.5173 202.351 73.4791L201.081 73.1188C201.036 73.1079 200.993 73.0881 200.956 73.0606C200.919 73.0331 200.887 72.9984 200.863 72.9586C200.838 72.917 200.822 72.8705 200.816 72.8222C200.81 72.7738 200.815 72.7248 200.829 72.6783C200.959 72.2871 201.183 71.9336 201.481 71.6487C201.814 71.3217 202.201 71.0547 202.625 70.8594C203.096 70.6466 203.598 70.5095 204.112 70.4533C204.674 70.4057 205.239 70.4678 205.777 70.6363ZM203.895 79.7254C203.95 79.7404 204.002 79.7663 204.047 79.8017C204.093 79.837 204.13 79.8811 204.158 79.9313C204.187 79.982 204.206 80.038 204.212 80.096C204.219 80.1539 204.214 80.2127 204.198 80.2688L203.809 81.6473C203.794 81.7027 203.768 81.7545 203.733 81.7997C203.697 81.8449 203.653 81.8826 203.603 81.9104C203.552 81.9391 203.496 81.9574 203.438 81.9643C203.381 81.9712 203.322 81.9665 203.266 81.9505L201.916 81.5729C201.861 81.5575 201.809 81.5308 201.765 81.4943C201.72 81.4579 201.684 81.4126 201.658 81.3613C201.629 81.312 201.609 81.2572 201.601 81.2001C201.593 81.1431 201.597 81.085 201.613 81.0295L202.002 79.6453C202.018 79.5897 202.045 79.5378 202.081 79.4926C202.118 79.4475 202.162 79.41 202.213 79.3822C202.263 79.3533 202.318 79.3349 202.375 79.328C202.432 79.3211 202.49 79.3259 202.545 79.3421L203.895 79.7254Z" fill="#C8102E"/>
<g opacity="0.2">
<path d="M205.777 70.6363C206.264 70.7715 206.728 70.9777 207.155 71.2483C207.566 71.4981 207.928 71.8197 208.225 72.1979C208.502 72.5642 208.697 72.9855 208.797 73.4334C208.906 73.9124 208.886 74.4116 208.74 74.8805C208.645 75.2565 208.473 75.6089 208.236 75.9159C208.027 76.1809 207.781 76.414 207.504 76.608C207.233 76.7941 206.946 76.9568 206.646 77.0942L205.8 77.4831C205.545 77.5973 205.302 77.7352 205.073 77.895C204.865 78.0359 204.702 78.2347 204.604 78.467C204.552 78.5713 204.473 78.66 204.375 78.7244C204.33 78.7556 204.278 78.7759 204.223 78.7838C204.169 78.7918 204.113 78.7871 204.061 78.7701L202.865 78.4327C202.808 78.4187 202.754 78.3926 202.708 78.3561C202.662 78.3196 202.624 78.2735 202.597 78.221C202.566 78.1731 202.547 78.1186 202.541 78.0621C202.535 78.0055 202.542 77.9482 202.562 77.895C202.683 77.5259 202.878 77.1853 203.134 76.894C203.366 76.6352 203.629 76.4066 203.918 76.2133C204.197 76.0314 204.492 75.8745 204.799 75.7443C205.102 75.6127 205.371 75.4869 205.64 75.361C205.879 75.2528 206.105 75.1185 206.315 74.9606C206.5 74.8177 206.631 74.616 206.686 74.3886C206.748 74.1945 206.759 73.988 206.72 73.7882C206.681 73.5884 206.593 73.4015 206.463 73.2446C206.15 72.8636 205.72 72.5962 205.239 72.4839C204.816 72.3569 204.364 72.3641 203.945 72.5044C203.526 72.6448 203.161 72.9113 202.9 73.2675C202.834 73.3506 202.755 73.4222 202.665 73.4791C202.564 73.5173 202.452 73.5173 202.351 73.4791L201.081 73.1188C201.036 73.1079 200.993 73.0881 200.956 73.0606C200.919 73.0331 200.887 72.9984 200.863 72.9586C200.838 72.917 200.822 72.8705 200.816 72.8222C200.81 72.7738 200.815 72.7248 200.829 72.6783C200.959 72.2871 201.183 71.9336 201.481 71.6487C201.814 71.3217 202.201 71.0547 202.625 70.8594C203.096 70.6466 203.598 70.5095 204.112 70.4533C204.674 70.4057 205.239 70.4678 205.777 70.6363ZM203.895 79.7254C203.95 79.7404 204.002 79.7663 204.047 79.8017C204.093 79.837 204.13 79.8811 204.158 79.9313C204.187 79.982 204.206 80.038 204.212 80.096C204.219 80.1539 204.214 80.2127 204.198 80.2688L203.809 81.6473C203.794 81.7027 203.768 81.7545 203.733 81.7997C203.697 81.8449 203.653 81.8826 203.603 81.9104C203.552 81.9391 203.496 81.9574 203.438 81.9643C203.381 81.9712 203.322 81.9665 203.266 81.9505L201.916 81.5729C201.861 81.5575 201.809 81.5308 201.765 81.4943C201.72 81.4579 201.684 81.4126 201.658 81.3613C201.629 81.312 201.609 81.2572 201.601 81.2001C201.593 81.1431 201.597 81.085 201.613 81.0295L202.002 79.6453C202.018 79.5897 202.045 79.5378 202.081 79.4926C202.118 79.4475 202.162 79.41 202.213 79.3822C202.263 79.3533 202.318 79.3349 202.375 79.328C202.432 79.3211 202.49 79.3259 202.545 79.3421L203.895 79.7254Z" fill="black"/>
</g>
<path d="M211.971 64.121C212.019 64.1514 212.06 64.1916 212.092 64.2389C212.123 64.2862 212.145 64.3396 212.154 64.3956C212.166 64.4505 212.166 64.5071 212.155 64.5622C212.144 64.6172 212.123 64.6695 212.091 64.7159L211.308 65.8599C211.277 65.9079 211.237 65.949 211.19 65.9806C211.142 66.0121 211.089 66.0334 211.033 66.043C210.978 66.0542 210.922 66.0544 210.867 66.0436C210.812 66.0328 210.759 66.0112 210.713 65.98L209.569 65.2136C209.522 65.1828 209.481 65.1425 209.451 65.0952C209.42 65.0479 209.4 64.9947 209.391 64.939C209.38 64.8841 209.38 64.8275 209.391 64.7725C209.402 64.7175 209.423 64.6652 209.454 64.6187L210.238 63.4747C210.302 63.3881 210.396 63.3284 210.502 63.3073C210.608 63.2862 210.717 63.305 210.81 63.3603L211.971 64.121ZM216.49 56.2904C216.897 56.5658 217.262 56.8969 217.577 57.2742C217.88 57.6315 218.116 58.0403 218.275 58.4811C218.428 58.9036 218.487 59.3547 218.446 59.8024C218.4 60.28 218.231 60.7375 217.954 61.1295C217.749 61.446 217.485 61.7198 217.176 61.936C216.9 62.1147 216.599 62.2533 216.284 62.3478C215.976 62.4387 215.66 62.5019 215.34 62.5366L214.442 62.6338C214.171 62.6636 213.902 62.7192 213.641 62.7997C213.409 62.8656 213.199 62.9943 213.035 63.1715C212.959 63.2559 212.859 63.3156 212.749 63.3431C212.697 63.3579 212.641 63.3605 212.588 63.3506C212.534 63.3407 212.484 63.3185 212.44 63.2859L211.439 62.611C211.392 62.5798 211.351 62.5394 211.32 62.4922C211.288 62.4451 211.267 62.3921 211.256 62.3364C211.241 62.2814 211.239 62.2236 211.251 62.1678C211.263 62.1121 211.288 62.06 211.325 62.0161C211.549 61.7147 211.829 61.4585 212.148 61.261C212.442 61.0941 212.755 60.9653 213.081 60.8778C213.394 60.7935 213.713 60.7361 214.036 60.7062C214.356 60.7062 214.654 60.649 214.934 60.6147C215.187 60.5854 215.436 60.5298 215.678 60.4488C215.887 60.3751 216.067 60.2369 216.192 60.0541C216.302 59.8945 216.371 59.7107 216.394 59.5184C216.417 59.3261 216.393 59.1311 216.324 58.9502C216.153 58.5003 215.837 58.12 215.426 57.8691C215.074 57.6232 214.654 57.4914 214.225 57.4914C213.795 57.4914 213.376 57.6232 213.024 57.8691C212.938 57.927 212.843 57.9696 212.743 57.9949C212.636 58.0011 212.531 57.9686 212.446 57.9034L211.382 57.1998C211.343 57.1759 211.31 57.1443 211.285 57.1068C211.259 57.0694 211.242 57.0271 211.233 56.9825C211.222 56.9363 211.221 56.888 211.231 56.8415C211.241 56.7949 211.261 56.7512 211.29 56.7136C211.53 56.3935 211.844 56.1363 212.206 55.9643C212.616 55.7594 213.059 55.6315 213.516 55.5868C214.016 55.5318 214.522 55.5588 215.014 55.6669C215.541 55.779 216.042 55.9906 216.49 56.2904Z" fill="#C8102E"/>
<g opacity="0.6">
<path d="M211.971 64.121C212.019 64.1514 212.06 64.1916 212.092 64.2389C212.123 64.2862 212.145 64.3396 212.154 64.3956C212.166 64.4505 212.166 64.5071 212.155 64.5622C212.144 64.6172 212.123 64.6695 212.091 64.7159L211.308 65.8599C211.277 65.9079 211.237 65.949 211.19 65.9806C211.142 66.0121 211.089 66.0334 211.033 66.043C210.978 66.0542 210.922 66.0544 210.867 66.0436C210.812 66.0328 210.759 66.0112 210.713 65.98L209.569 65.2136C209.522 65.1828 209.481 65.1425 209.451 65.0952C209.42 65.0479 209.4 64.9947 209.391 64.939C209.38 64.8841 209.38 64.8275 209.391 64.7725C209.402 64.7175 209.423 64.6652 209.454 64.6187L210.238 63.4747C210.302 63.3881 210.396 63.3284 210.502 63.3073C210.608 63.2862 210.717 63.305 210.81 63.3603L211.971 64.121ZM216.49 56.2904C216.897 56.5658 217.262 56.8969 217.577 57.2742C217.88 57.6315 218.116 58.0403 218.275 58.4811C218.428 58.9036 218.487 59.3547 218.446 59.8024C218.4 60.28 218.231 60.7375 217.954 61.1295C217.749 61.446 217.485 61.7198 217.176 61.936C216.9 62.1147 216.599 62.2533 216.284 62.3478C215.976 62.4387 215.66 62.5019 215.34 62.5366L214.442 62.6338C214.171 62.6636 213.902 62.7192 213.641 62.7997C213.409 62.8656 213.199 62.9943 213.035 63.1715C212.959 63.2559 212.859 63.3156 212.749 63.3431C212.697 63.3579 212.641 63.3605 212.588 63.3506C212.534 63.3407 212.484 63.3185 212.44 63.2859L211.439 62.611C211.392 62.5798 211.351 62.5394 211.32 62.4922C211.288 62.4451 211.267 62.3921 211.256 62.3364C211.241 62.2814 211.239 62.2236 211.251 62.1678C211.263 62.1121 211.288 62.06 211.325 62.0161C211.549 61.7147 211.829 61.4585 212.148 61.261C212.442 61.0941 212.755 60.9653 213.081 60.8778C213.394 60.7935 213.713 60.7361 214.036 60.7062C214.356 60.7062 214.654 60.649 214.934 60.6147C215.187 60.5854 215.436 60.5298 215.678 60.4488C215.887 60.3751 216.067 60.2369 216.192 60.0541C216.302 59.8945 216.371 59.7107 216.394 59.5184C216.417 59.3261 216.393 59.1311 216.324 58.9502C216.153 58.5003 215.837 58.12 215.426 57.8691C215.074 57.6232 214.654 57.4914 214.225 57.4914C213.795 57.4914 213.376 57.6232 213.024 57.8691C212.938 57.927 212.843 57.9696 212.743 57.9949C212.636 58.0011 212.531 57.9686 212.446 57.9034L211.382 57.1998C211.343 57.1759 211.31 57.1443 211.285 57.1068C211.259 57.0694 211.242 57.0271 211.233 56.9825C211.222 56.9363 211.221 56.888 211.231 56.8415C211.241 56.7949 211.261 56.7512 211.29 56.7136C211.53 56.3935 211.844 56.1363 212.206 55.9643C212.616 55.7594 213.059 55.6315 213.516 55.5868C214.016 55.5318 214.522 55.5588 215.014 55.6669C215.541 55.779 216.042 55.9906 216.49 56.2904Z" fill="white"/>
</g>
<path d="M164.793 219.076C164.667 220.438 165.553 223.984 165.553 223.984C165.553 223.984 166.308 225.128 168.459 225.654L168.608 220.506L164.793 219.076Z" fill="#263238"/>
<path d="M168.459 225.626L172.703 223.481L173.172 219.356L168.545 222.657L168.459 225.626Z" fill="black"/>
<path d="M171.686 213.133L171.6 212.269C172.252 212.475 173.962 217.297 176.279 220.375C178.395 223.183 181.919 224.379 183.183 225.557C184.87 227.118 182.468 229.835 177.898 229.561C175.61 229.424 172.092 228.531 170.965 227.187C169.838 225.843 169.112 223.183 168.208 222.188C167.304 221.192 165.348 220.226 164.804 219.042C164.496 218.39 164.61 216.88 164.804 215.61C164.976 214.426 165.165 213.127 165.571 213.19C165.571 213.333 165.668 213.917 165.668 213.917C165.805 214.489 166.566 215.095 168.94 214.838C169.992 214.712 171.874 214.306 171.686 213.133Z" fill="#455A64"/>
<path d="M124.873 192.707C124.147 193.708 122.865 200.715 122.865 200.715C122.865 200.715 124.541 203.163 125.508 203.907L128.614 197.317L124.873 192.707Z" fill="#263238"/>
<path d="M125.508 203.878L131.205 202.568L133.321 198.181L127.39 199.834L125.508 203.878Z" fill="black"/>
<path d="M129.117 188.263C128.791 188.017 128.322 188.657 127.184 189.675C126.383 190.39 124.655 191.065 124.655 193.107C124.655 194.577 125.633 196.391 126.571 197.912C127.51 199.434 127.647 200.801 127.641 202.963C127.641 205.577 127.161 207.179 130.375 209.507C132.949 211.366 138.177 211.709 139.327 210.651C141.295 208.809 136.702 206.281 135.952 202.511C134.923 197.312 134.808 196.442 134.951 192.787L129.117 188.263Z" fill="#455A64"/>
<path d="M179.419 124.353C176.914 125.709 169.306 126.069 158.633 123.781L159.897 154.669C159.897 154.669 150.545 161.304 147.667 164.925C144.79 168.546 130.954 186.135 130.954 186.135L129.043 188.348C127.859 189.721 128.471 191.574 129.844 192.758C131.165 193.845 132.887 194.612 134.174 193.491L135.753 192.118C135.753 192.118 166.675 168.283 167.785 166.761C168.894 165.24 171.497 161.464 174.306 153.496C177.932 143.275 178.538 135.873 179.419 124.353Z" fill="#FFA8A7"/>
<path d="M179.413 124.353C172.658 127.453 159.078 126.395 159.078 126.395L159.702 154.623C156.287 156.701 153.091 159.117 150.161 161.836C146.111 165.737 139.934 173.848 139.934 173.848C142.05 179.803 148.079 182.583 148.079 182.583C148.079 182.583 160.76 173.699 167.853 168.672C171.565 166.046 174.357 164.582 175.472 160.309C176.349 157.038 177.025 153.716 177.497 150.362C178.103 146.672 178.395 142.474 178.75 139.368C179.354 134.387 179.575 129.368 179.413 124.353Z" fill="#C8102E"/>
<path opacity="0.4" d="M179.413 124.353C172.658 127.453 159.078 126.395 159.078 126.395L159.702 154.623C156.287 156.701 153.091 159.117 150.161 161.836C146.111 165.737 139.934 173.848 139.934 173.848C142.05 179.803 148.079 182.583 148.079 182.583C148.079 182.583 160.76 173.699 167.853 168.672C171.565 166.046 174.357 164.582 175.472 160.309C176.349 157.038 177.025 153.716 177.497 150.362C178.103 146.672 178.395 142.474 178.75 139.368C179.354 134.387 179.575 129.368 179.413 124.353Z" fill="#C8102E"/>
<path opacity="0.1" d="M168.133 160.978L167.058 145.374L163.054 141.65L159.622 150.831L159.708 154.623C157.493 155.977 155.363 157.465 153.33 159.079L153.902 160.458L157.157 168.323C157.157 168.323 156.013 173.688 156.493 176.651C160.24 174.02 164.501 171.017 167.699 168.757L168.133 160.978Z" fill="black"/>
<path d="M171.903 213.814V213.173C171.411 207.402 172.206 175.667 172.172 167.104C172.132 157.832 170.456 135.37 170.456 135.37C170.456 135.37 175.935 128.214 179.465 124.353C176.13 128.168 159.313 126.235 158.301 118.89C156.922 121.785 152.009 124.771 151.603 134.283C151.031 146.404 159.611 167.836 159.611 167.836C159.285 169.455 157.814 176.239 158.678 182.502C160.04 192.387 164.924 209.861 165.439 212.246L165.754 214.277C166.823 215.604 171.131 215.404 171.903 213.814Z" fill="#FFA8A7"/>
<path d="M172.292 150.144L171.8 137.486C171.8 137.486 176.896 136.159 178.961 131.875C179.347 129.387 179.5 126.869 179.419 124.353C179.419 124.353 174.963 126.418 168.7 124.891C164.751 123.836 161.146 121.767 158.243 118.89C158.243 118.89 157.042 120.074 154.577 123.752C153.399 125.508 151.408 130.044 151.236 133.585C150.842 141.667 153.421 150.293 153.421 150.293C154.737 156.619 158.73 168.134 158.73 168.134C158.73 168.134 157.208 176.519 157.975 182.531C158.741 188.543 161.172 195.338 161.172 195.338C161.172 195.338 167.95 197.626 172.406 194.972C172.406 194.972 172.618 174.065 172.698 165.909C172.778 157.752 172.292 150.144 172.292 150.144Z" fill="#C8102E"/>
<path opacity="0.3" d="M172.292 150.144L171.8 137.486C171.8 137.486 176.896 136.159 178.961 131.875C179.347 129.387 179.5 126.869 179.419 124.353C179.419 124.353 174.963 126.418 168.7 124.891C164.751 123.836 161.146 121.767 158.243 118.89C158.243 118.89 157.042 120.074 154.577 123.752C153.399 125.508 151.408 130.044 151.236 133.585C150.842 141.667 153.421 150.293 153.421 150.293C154.737 156.619 158.73 168.134 158.73 168.134C158.73 168.134 157.208 176.519 157.975 182.531C158.741 188.543 161.172 195.338 161.172 195.338C161.172 195.338 167.95 197.626 172.406 194.972C172.406 194.972 172.618 174.065 172.698 165.909C172.778 157.752 172.292 150.144 172.292 150.144Z" fill="#C8102E"/>
<path d="M195.263 97.0971C196.036 96.2205 196.488 95.1069 196.544 93.9395C196.6 92.7721 196.257 91.6203 195.572 90.6736C193.221 86.9956 187.672 88.4256 187.672 88.4256L186.191 86.0404C186.75 85.8919 187.334 85.8569 187.907 85.9374C188.947 85.9771 189.985 85.8299 190.973 85.5027C192.033 85.2098 192.955 84.5512 193.575 83.6437C193.87 83.184 194.004 82.639 193.954 82.095C193.904 81.5511 193.674 81.0393 193.301 80.6407C193.851 80.6445 194.396 80.5313 194.899 80.3084C195.402 80.0856 195.852 79.7582 196.219 79.3481C196.585 78.938 196.861 78.4546 197.026 77.9299C197.192 77.4052 197.244 76.8513 197.179 76.3049C197.158 75.9707 197.034 75.6511 196.824 75.3897C196.528 75.1274 196.17 74.9444 195.783 74.8578C194.739 74.4916 193.786 73.9066 192.986 73.1418C191.402 71.626 190.733 69.847 188.542 68.4228C186.688 67.2028 184.515 66.558 182.296 66.5695C179.785 66.5695 177.519 67.2902 175.821 69.3666C173.018 69.3666 169.368 71.0311 166.874 77.9466C164.421 84.7534 165.313 92.7042 169.952 99.8141C173.012 104.505 185.213 112.295 193.936 109.224C202.659 106.152 198.992 97.3145 195.263 97.0971Z" fill="#263238"/>
<path d="M180.711 95.2554C187.484 96.5138 187.873 99.8943 188.216 102.852C189.102 110.556 187.575 123.283 187.043 126.086C187.043 126.086 177.937 123.306 178.04 122.854C178.143 122.402 180.711 95.2554 180.711 95.2554Z" fill="#FFA8A7"/>
<path d="M180.82 121.619C180.82 121.619 183.886 120.904 186.203 121.619C186.203 121.619 184.298 119.64 179.945 120.927L180.82 121.619Z" fill="#F28F8F"/>
<path d="M180.042 123.804C181.022 121.34 181.788 118.797 182.33 116.202C186.855 113.874 187.844 110.402 186.906 107.147C184.962 100.449 183.068 97.1887 181.329 95.2553C179.979 94.3001 175.175 92.9673 175.175 92.9673C174.317 92.8301 166.543 91.852 164.169 91.6575C162.885 92.6505 161.91 93.9873 161.355 95.5127C160.897 96.9313 160.097 98.1382 160.097 102.989L161 111.66C161 111.66 161.241 114.257 160.331 115.767C159.422 117.277 155.715 120.04 154.005 123.775C154.005 123.775 154.211 129.461 164.667 131.835C173.173 133.768 179.482 130.691 179.482 130.691C179.855 128.414 180.042 126.111 180.042 123.804Z" fill="#F5F5F5"/>
<path d="M187.147 110.339C186.864 109.98 186.455 109.742 186.003 109.675C185.019 109.555 184.086 110.07 183.177 110.476C181.495 111.226 179.562 111.62 177.806 111.077C175.907 110.465 174.374 108.789 172.4 108.617C170.519 108.468 168.837 109.761 167.453 111.025C165.405 112.93 163.506 115.029 161.161 116.568C160.154 117.213 159.112 117.799 158.037 118.324L157.58 118.805L157.488 118.902C157.139 119.274 156.779 119.668 156.43 120.08L156.299 120.24L155.921 120.698L155.738 120.932L155.423 121.35L155.235 121.613L154.943 122.048L154.771 122.317C154.668 122.477 154.577 122.637 154.48 122.803L154.342 123.043C154.211 123.289 154.079 123.541 153.965 123.798C154.001 124.19 154.092 124.575 154.234 124.942C154.459 125.536 154.761 126.097 155.132 126.612C155.286 126.824 155.452 127.036 155.641 127.253C157.077 128.895 159.725 130.736 164.621 131.829C166.559 132.271 168.542 132.484 170.53 132.464C171.199 132.464 171.84 132.424 172.452 132.367C173.064 132.309 173.642 132.241 174.168 132.155C174.889 132.041 175.552 131.903 176.147 131.76C177.273 131.504 178.371 131.136 179.425 130.662C179.686 129.11 179.854 127.544 179.928 125.972C179.928 125.634 179.962 125.285 179.974 124.919C179.985 124.553 179.974 124.17 179.974 123.775C180.546 122.156 181.072 120.686 181.461 119.405C181.558 119.085 181.65 118.776 181.73 118.478C181.951 117.727 182.128 116.963 182.262 116.19C185.385 114.629 186.826 112.535 187.147 110.339Z" fill="#EBEBEB"/>
<path d="M190.121 75.8245C190.619 76.9399 191.397 78.7245 189.635 85.7258C188.142 91.6574 185.877 92.6927 184.807 92.8929C183.738 93.0931 181.947 92.4182 180.666 91.9263L178.572 95.6443C178.761 97.2459 179.31 100.472 178.252 102.508C175.175 100.163 172.029 97.3259 169.872 92.8872L173.247 85.5027C173.247 85.5027 171.291 86.4408 170.244 84.1985C169.277 82.1336 169.638 80.4119 171.073 79.491C171.408 79.2768 171.792 79.1505 172.189 79.124C172.585 79.0974 172.982 79.1714 173.343 79.3391C173.703 79.5068 174.016 79.7628 174.251 80.0833C174.486 80.4038 174.637 80.7785 174.689 81.1727C174.997 82.9401 176.713 83.0717 177.188 80.4462C177.331 79.6454 178.006 75.2982 181.101 74.3315C184.756 78.9361 189.412 78.2898 190.121 75.8245Z" fill="#FFA8A7"/>
<path d="M182.125 81.8762C182.091 82.0305 182.013 82.1716 181.9 82.2819C181.787 82.3922 181.644 82.4668 181.489 82.4966C181.334 82.5263 181.173 82.5098 181.027 82.4492C180.881 82.3886 180.757 82.2864 180.668 82.1555C180.58 82.0245 180.532 81.8705 180.53 81.7126C180.529 81.5546 180.574 81.3997 180.659 81.267C180.745 81.1343 180.868 81.0296 181.012 80.9661C181.157 80.9026 181.317 80.8829 181.473 80.9095C181.579 80.93 181.68 80.9714 181.771 81.0311C181.861 81.0908 181.939 81.1678 181.999 81.2576C182.06 81.3474 182.102 81.4482 182.124 81.5544C182.145 81.6605 182.146 81.7699 182.125 81.8762Z" fill="#263238"/>
<path d="M183.039 88.1683C183.024 88.2699 182.988 88.3675 182.935 88.4554C182.882 88.5432 182.812 88.6197 182.729 88.6803C182.646 88.741 182.552 88.7846 182.452 88.8086C182.352 88.8326 182.248 88.8366 182.147 88.8204C181.988 88.7996 181.839 88.7317 181.72 88.6255C181.6 88.5194 181.515 88.3798 181.475 88.2247C181.436 88.0697 181.443 87.9064 181.497 87.7558C181.551 87.6052 181.649 87.4742 181.779 87.3798C181.908 87.2854 182.062 87.2319 182.222 87.2261C182.382 87.2203 182.54 87.2626 182.676 87.3475C182.811 87.4323 182.918 87.5558 182.983 87.7022C183.048 87.8485 183.067 88.0108 183.039 88.1683Z" fill="#B16668"/>
<path d="M188.92 80.778L187.645 79.3766C187.729 79.2877 187.832 79.2169 187.945 79.1685C188.058 79.1202 188.179 79.0952 188.302 79.0952C188.425 79.0952 188.547 79.1202 188.66 79.1685C188.773 79.2169 188.875 79.2877 188.96 79.3766C189.14 79.5683 189.236 79.8231 189.229 80.0856C189.221 80.3481 189.11 80.597 188.92 80.778Z" fill="#263238"/>
<path d="M181.862 78.5414L180.117 79.2735C180.063 79.1618 180.033 79.0403 180.028 78.9165C180.023 78.7926 180.043 78.669 180.088 78.5533C180.132 78.4376 180.2 78.3322 180.287 78.2436C180.373 78.155 180.477 78.085 180.592 78.038C180.828 77.9426 181.091 77.9417 181.328 78.0355C181.564 78.1292 181.755 78.3104 181.862 78.5414Z" fill="#263238"/>
<path d="M188.125 82.9917C188.106 83.0961 188.068 83.1958 188.011 83.2853C187.954 83.3747 187.88 83.452 187.793 83.5128C187.706 83.5736 187.608 83.6168 187.505 83.6397C187.401 83.6627 187.294 83.665 187.19 83.6466C187.085 83.6282 186.985 83.5894 186.896 83.5325C186.807 83.4755 186.729 83.4015 186.668 83.3146C186.608 83.2278 186.565 83.1298 186.542 83.0263C186.519 82.9228 186.516 82.8158 186.535 82.7114C186.572 82.5005 186.691 82.313 186.867 82.1902C187.042 82.0674 187.259 82.0193 187.47 82.0564C187.681 82.0936 187.868 82.213 187.991 82.3884C188.114 82.5638 188.162 82.7808 188.125 82.9917Z" fill="#263238"/>
<path d="M184.441 81.4072L184.063 86.7211L186.895 86.1205L184.441 81.4072Z" fill="#F28F8F"/>
<path d="M180.666 91.9261C178.807 91.2397 174.626 88.9803 174.374 87.2815C174.445 88.1202 174.768 88.9178 175.301 89.5695C176.25 90.8451 179.974 93.1388 179.974 93.1388L180.666 91.9261Z" fill="#F28F8F"/>
<path d="M182.913 94.626C182.713 93.9911 181.895 93.9281 181.895 93.9281C181.958 93.6796 181.965 93.42 181.914 93.1686C181.864 92.9172 181.758 92.6802 181.603 92.4753C181.325 92.2717 180.987 92.1669 180.642 92.1778C180.848 91.7259 180.58 90.6963 180.019 90.5705C179.486 90.5141 178.948 90.5392 178.423 90.6449C177.876 91.0116 177.403 91.4771 177.027 92.0177L177.891 90.376C178.654 90.1783 179.403 89.9318 180.133 89.6382C180.991 89.2034 180.951 88.2653 180.62 88.2139C179.869 88.228 179.121 88.3045 178.383 88.4427C177.445 88.5971 176.261 88.5914 175.941 89.1748C175.62 89.7583 175.266 90.4561 174.608 91.7946C173.95 93.1331 173.767 93.5392 173.853 94.3057C173.939 95.0721 173.927 96.5937 174.162 98.4984C174.396 100.403 174.019 100.849 173.178 101.93C172.606 102.657 169.071 106.163 165.341 109.572L165.851 102.165C165.851 102.165 167.063 94.5459 164.175 91.6973C160.285 91.0681 158.397 92.8413 157.534 94.9291C156.018 98.6243 156.464 109.155 156.756 114.697C157.047 120.24 159.227 122.339 160.897 122.705C162.567 123.072 167.143 121.144 170.141 117.203C172.497 114.497 177.542 105.586 178.28 104.344C178.819 103.385 179.478 102.499 180.242 101.707C180.814 101.135 181.272 98.8473 181.272 97.4803C181.397 97.9093 181.844 98.2525 182.204 97.9836C182.278 97.2801 182.97 95.0893 182.913 94.626Z" fill="#FFA8A7"/>
<path d="M173.161 101.913C173.46 101.559 173.722 101.176 173.945 100.769C174.134 100.34 174.219 99.8711 174.191 99.4023C174.191 98.9333 174.111 98.4643 174.059 98.0009C174.008 97.5376 173.968 97.0629 173.933 96.5938L173.853 95.1867L173.807 94.4831C173.775 94.2463 173.765 94.0068 173.779 93.7681C173.858 93.2985 174.013 92.8446 174.236 92.4239C174.431 91.9949 174.643 91.5774 174.86 91.1598L175.495 89.8957L175.815 89.2665C175.916 89.0369 176.103 88.8561 176.336 88.7631C176.784 88.6043 177.251 88.5062 177.726 88.4714C178.195 88.4199 178.652 88.3284 179.121 88.2712C179.59 88.214 180.054 88.1568 180.534 88.1454C180.611 88.1417 180.686 88.1661 180.746 88.214C180.798 88.2627 180.837 88.3236 180.86 88.3913C180.892 88.5171 180.892 88.6488 180.86 88.7746C180.82 89.0223 180.702 89.2508 180.523 89.4267C180.144 89.7261 179.705 89.9406 179.236 90.0559C178.784 90.2046 178.332 90.3361 177.88 90.462L177.932 90.4219L177.079 92.075L176.948 91.9949C177.153 91.7351 177.373 91.4869 177.606 91.2513C177.72 91.1331 177.84 91.0187 177.966 90.9081C178.089 90.7887 178.227 90.6867 178.378 90.605C178.667 90.5487 178.959 90.5124 179.253 90.4963C179.555 90.4592 179.862 90.4905 180.151 90.5878C180.412 90.76 180.596 91.0264 180.666 91.3314C180.763 91.6248 180.763 91.9418 180.666 92.2352L180.603 92.1437C180.824 92.1434 181.044 92.1781 181.255 92.2466C181.366 92.2814 181.469 92.3377 181.558 92.4125C181.638 92.4931 181.707 92.5834 181.764 92.6813C181.972 93.0769 182.025 93.5358 181.913 93.9683L181.861 93.894C182.088 93.9202 182.306 93.9943 182.502 94.1113C182.702 94.2302 182.852 94.417 182.925 94.6376C182.916 94.9274 182.874 95.2153 182.799 95.4956L182.588 96.325C182.45 96.897 182.285 97.4232 182.187 97.9723C182.093 98.035 181.983 98.0685 181.87 98.0685C181.757 98.0685 181.646 98.035 181.552 97.9723C181.372 97.8461 181.242 97.6595 181.186 97.4461H181.272C181.259 98.0918 181.188 98.7349 181.06 99.368C180.939 100.003 180.747 100.623 180.488 101.216C180.346 101.504 180.152 101.764 179.916 101.982C179.699 102.222 179.487 102.463 179.293 102.714C178.901 103.223 178.541 103.756 178.218 104.31C178.535 103.751 178.886 103.213 179.27 102.697C179.465 102.445 179.67 102.199 179.888 101.959C180.125 101.742 180.319 101.482 180.46 101.193C180.704 100.601 180.881 99.9827 180.986 99.3509C181.107 98.7228 181.174 98.0856 181.186 97.4461V97.1429L181.272 97.4347C181.326 97.6241 181.443 97.7895 181.604 97.9037C181.679 97.9621 181.772 97.9939 181.867 97.9939C181.962 97.9939 182.055 97.9621 182.13 97.9037V97.938C182.233 97.366 182.393 96.8283 182.53 96.2735L182.731 95.4498C182.803 95.181 182.844 94.9045 182.851 94.6261C182.767 94.4361 182.631 94.2736 182.459 94.1573C182.287 94.0409 182.086 93.9754 181.878 93.9683H181.81V93.8997C181.908 93.497 181.857 93.0724 181.667 92.7042C181.623 92.6148 181.561 92.5352 181.485 92.4704C181.41 92.4055 181.321 92.3566 181.226 92.3267C181.028 92.2647 180.822 92.2339 180.614 92.2352H180.523L180.557 92.1437C180.643 91.8797 180.643 91.5954 180.557 91.3314C180.498 91.0618 180.335 90.8259 180.105 90.6736C179.837 90.5903 179.554 90.5649 179.276 90.5993C178.99 90.6182 178.705 90.6545 178.424 90.7079C178.292 90.7902 178.167 90.884 178.052 90.9882C177.932 91.0969 177.811 91.2113 177.703 91.3257C177.474 91.5602 177.262 91.8062 177.056 92.0636L176.587 92.6356L176.925 91.9721L177.777 90.3133V90.2789H177.811C178.263 90.1531 178.715 90.0273 179.156 89.8785C179.604 89.7784 180.025 89.5834 180.391 89.3065C180.545 89.149 180.65 88.9504 180.694 88.7345C180.729 88.5343 180.694 88.2483 180.488 88.2712C180.021 88.2811 179.555 88.3193 179.093 88.3856C178.629 88.4428 178.166 88.5286 177.697 88.5801C177.233 88.6097 176.775 88.7021 176.336 88.8547C176.126 88.9383 175.958 89.1005 175.867 89.3065L175.546 89.9357L174.906 91.1884C174.694 91.606 174.477 92.0235 174.277 92.4525C174.057 92.8617 173.906 93.3043 173.83 93.7624C173.805 93.9924 173.805 94.2245 173.83 94.4545L173.87 95.1638L173.939 96.5709C173.968 97.04 174.002 97.509 174.048 97.9781C174.093 98.4471 174.156 98.9104 174.162 99.3852C174.183 99.8576 174.091 100.328 173.893 100.758C173.689 101.167 173.444 101.554 173.161 101.913Z" fill="#B16668"/>
<path d="M180.666 92.2467C180.711 92.0851 180.727 91.9163 180.711 91.749C180.242 91.8749 179.636 91.9378 179.247 92.0751C178.931 92.1922 178.671 92.4254 178.521 92.7271C178.721 92.5155 179.293 92.2409 180.666 92.2467Z" fill="#B16668"/>
<path d="M180.242 94.3401C180.744 94.0625 181.318 93.9391 181.89 93.9855C181.918 93.8287 181.936 93.67 181.941 93.5107C180.603 93.7052 180.242 94.3401 180.242 94.3401Z" fill="#B16668"/>
<path d="M181.197 97.8121C181.25 97.2079 181.235 96.5997 181.152 95.9989C181.089 95.6385 181.066 95.4269 181.472 95.4898C181.878 95.5527 182.439 95.0551 182.33 95.3926C182.273 95.5756 181.552 95.8788 181.506 96.1362C181.459 96.7036 181.355 97.265 181.197 97.8121Z" fill="#B16668"/>
<path d="M165.308 109.555C164.278 110.408 160.789 113.073 160.303 115.79C160.303 115.79 159.817 113.754 161.819 111.489C162.944 110.201 164.148 108.984 165.422 107.845L165.308 109.555Z" fill="#F28F8F"/>
<path d="M187.044 126.086C186.695 128.117 186.049 128.86 183.978 129.77C180.603 131.251 167.087 135.078 163.094 135.106C160.826 135.148 158.568 134.808 156.413 134.1C156.026 134.008 155.68 133.791 155.429 133.482C155.284 133.219 155.09 132.986 154.857 132.796C154.57 132.623 154.272 132.468 153.965 132.332C153.605 132.108 153.345 131.754 153.239 131.343C153.219 131.073 153.135 130.812 152.993 130.582C152.822 130.406 152.669 130.215 152.535 130.01C152.381 129.736 152.304 129.426 152.312 129.112C152.325 128.954 152.311 128.796 152.272 128.643C152.21 128.504 152.121 128.38 152.009 128.277C151.89 128.144 151.779 128.005 151.677 127.859C151.572 127.741 151.506 127.593 151.488 127.436C151.509 127.309 151.56 127.19 151.637 127.087C152.106 126.349 153.159 126.515 153.925 126.595C154.834 126.698 155.727 126.875 156.636 126.984C157.902 127.136 159.18 127.164 160.452 127.07V124.719C161.372 124.923 162.244 125.304 163.02 125.84C164.507 126.755 165.405 127.991 168.168 127.259C170.931 126.526 177.514 122.786 180.82 121.63C184.127 120.475 187.244 124.885 187.044 126.086Z" fill="#FFA8A7"/>
<path d="M79.4395 243.169L160.44 230.596V55.0608L79.4395 67.6619V243.169Z" fill="#455A64"/>
<path d="M157.975 53.6365L160.44 55.0608L79.4395 67.6619L83.7237 65.1852L157.975 53.6365Z" fill="#37474F"/>
<path d="M88.9463 158.541L145.631 149.732V221.078L88.9463 229.881V158.541Z" fill="#455A64"/>
<path opacity="0.1" d="M88.9463 158.541L145.631 149.732V221.078L88.9463 229.881V158.541Z" fill="black"/>
<path d="M93.2021 162.185L141.382 154.692V217.429L93.2021 224.922V162.185Z" fill="#455A64"/>
<path d="M88.9463 229.881L93.202 224.922L141.382 217.429L145.631 221.078L88.9463 229.881Z" fill="#263238"/>
<path d="M88.9463 158.541L93.202 162.185V224.922L88.9463 229.881V158.541Z" fill="#37474F"/>
<path d="M141.381 154.692L145.631 149.732V221.078L141.381 217.429V154.692Z" fill="#37474F"/>
<path d="M121.149 72.1464L145.631 68.3369V139.682L121.155 143.486L121.149 72.1464Z" fill="#455A64"/>
<path opacity="0.1" d="M121.149 72.1464L145.631 68.3369V139.682L121.155 143.486L121.149 72.1464Z" fill="black"/>
<path d="M125.405 75.79L141.381 73.3018V136.039L125.405 138.527V75.79Z" fill="#455A64"/>
<path d="M121.155 143.486L125.405 138.527L141.381 136.039L145.631 139.682L121.155 143.486Z" fill="#263238"/>
<path d="M121.149 72.1465L125.405 75.7901V138.527L121.155 143.486L121.149 72.1465Z" fill="#37474F"/>
<path d="M141.381 73.3019L145.631 68.3369V139.682L141.381 136.039V73.3019Z" fill="#37474F"/>
<path d="M88.9863 77.1286L113.468 73.3191V144.665L88.9863 148.468V77.1286Z" fill="#455A64"/>
<path opacity="0.1" d="M88.9863 77.1286L113.468 73.3191V144.665L88.9863 148.468V77.1286Z" fill="black"/>
<path d="M93.2363 80.7722L109.212 78.2783L109.218 141.021L93.2363 143.509V80.7722Z" fill="#455A64"/>
<path d="M88.9863 148.468L93.2363 143.509L109.218 141.021L113.468 144.665L88.9863 148.468Z" fill="#263238"/>
<path d="M88.9863 77.1284L93.2363 80.7721V143.509L88.9863 148.468V77.1284Z" fill="#37474F"/>
<path d="M109.212 78.2783L113.468 73.3191V144.665L109.218 141.021L109.212 78.2783Z" fill="#37474F"/>
<path d="M149.526 136.742L150.63 137.858V156.185L149.526 155.075V136.742Z" fill="#E0E0E0"/>
<path d="M150.63 137.858L156.584 136.965V155.298L150.63 156.185V137.858Z" fill="#FAFAFA"/>
<path opacity="0.05" d="M156.584 142.01L150.63 142.88V146.466L156.584 145.603V142.01Z" fill="black"/>
<path d="M156.585 136.965L155.481 135.856L149.526 136.742L150.63 137.858L156.585 136.965Z" fill="#EBEBEB"/>
<path d="M152.912 141.33L155.646 144.075L156.739 142.645L154.005 139.905C153.935 139.834 153.85 139.78 153.755 139.748C153.661 139.716 153.56 139.707 153.461 139.722C153.236 139.775 153.036 139.904 152.895 140.088C152.754 140.271 152.682 140.498 152.689 140.729C152.683 140.951 152.763 141.166 152.912 141.33Z" fill="#E0E0E0"/>
<path opacity="0.1" d="M150.63 142.914L154.971 143.395V142.091L156.03 141.936L155.034 140.935L150.63 141.604V142.914Z" fill="black"/>
<path d="M141.689 144.487V147.347L157.202 145.025V142.165L141.689 144.487Z" fill="#FAFAFA"/>
<path d="M141.69 144.487L140.7 143.486V146.352L141.69 147.347V144.487Z" fill="#E0E0E0"/>
<path d="M157.202 142.165L156.207 141.164L140.7 143.486L141.69 144.487L157.202 142.165Z" fill="#EBEBEB"/>
<path d="M152.603 149.292C152.596 148.992 152.692 148.698 152.876 148.459C153.059 148.221 153.318 148.053 153.61 147.982C153.746 147.97 153.882 147.987 154.01 148.034C154.138 148.08 154.254 148.155 154.35 148.252C154.446 148.349 154.519 148.465 154.564 148.594C154.609 148.722 154.625 148.859 154.611 148.995C154.61 149.22 154.554 149.442 154.449 149.641C154.343 149.84 154.191 150.011 154.005 150.139V152.009C154.008 152.111 153.976 152.21 153.915 152.292C153.853 152.373 153.766 152.431 153.667 152.455H153.547C153.501 152.46 153.455 152.454 153.411 152.438C153.368 152.423 153.329 152.397 153.296 152.364C153.264 152.332 153.239 152.292 153.224 152.248C153.209 152.204 153.204 152.158 153.21 152.112V150.242C153.024 150.164 152.866 150.032 152.757 149.862C152.649 149.692 152.595 149.493 152.603 149.292Z" fill="#455A64"/>
<path d="M70.7218 259.585C75.5895 254.563 78.4495 234.108 73.7019 230.121H49.5292C44.7816 234.125 47.6359 254.551 52.5036 259.579L52.6409 259.722L52.8068 259.888C52.9441 260.02 53.0928 260.151 53.2472 260.283C53.2878 260.31 53.3261 260.341 53.3616 260.374C53.4817 260.466 53.6019 260.563 53.7334 260.655C53.9348 260.803 54.1449 260.938 54.3626 261.061C58.3666 263.4 64.8645 263.4 68.8685 261.061C69.0895 260.938 69.3016 260.801 69.5035 260.649C69.6236 260.569 69.7323 260.477 69.8467 260.392L69.9897 260.277C70.1384 260.151 70.2814 260.025 70.4129 259.894L70.6074 259.705L70.7218 259.585Z" fill="#455A64"/>
<path d="M51.6287 228.514C46.1146 231.734 46.1146 236.957 51.6287 240.177C57.1428 243.397 66.0832 243.397 71.603 240.177C77.1228 236.957 77.117 231.734 71.603 228.514C66.0889 225.294 57.1428 225.294 51.6287 228.514Z" fill="#455A64"/>
<g opacity="0.1">
<path d="M51.6287 228.514C46.1146 231.734 46.1146 236.957 51.6287 240.177C57.1428 243.397 66.0832 243.397 71.603 240.177C77.1228 236.957 77.117 231.734 71.603 228.514C66.0889 225.294 57.1428 225.294 51.6287 228.514Z" fill="white"/>
</g>
<path d="M54.2824 230.064C50.2327 232.426 50.2327 236.265 54.2824 238.644C58.3322 241.024 64.8988 241.012 68.9485 238.644C72.9983 236.276 72.9983 232.444 68.9485 230.064C64.8988 227.685 58.3436 227.702 54.2824 230.064Z" fill="#263238"/>
<path d="M68.9488 234.131C64.899 231.763 58.3325 231.763 54.2827 234.131C53.2978 234.664 52.4636 235.437 51.8574 236.379C52.4669 237.318 53.3004 238.09 54.2827 238.627C58.3325 240.995 64.899 240.995 68.9488 238.627C69.9311 238.09 70.7645 237.318 71.3741 236.379C70.7679 235.437 69.9337 234.664 68.9488 234.131Z" fill="#F5F5F5"/>
<path d="M48.214 190.442L57.8808 197.054L48.7288 193.593C48.808 196.039 49.4252 198.437 50.5363 200.618C50.5363 200.618 56.5709 203.546 59.8542 206.635L51.8233 204.107C51.5714 205.508 51.6577 206.95 52.075 208.311C52.1265 208.494 52.1837 208.688 52.2466 208.883C52.6699 210.17 53.2762 212.601 54.3058 215.484C55.1789 218.006 56.2917 220.439 57.6291 222.748C58.2908 223.885 59.0284 224.977 59.837 226.014C59.8828 226.083 59.9343 226.146 59.9858 226.209C61.4768 225.214 63.0288 224.239 64.6418 223.286C65.5742 220.918 66.5981 215.152 66.7811 210.473C67.4961 192.57 53.3391 183.337 42.3281 180.683C42.3281 180.683 46.3321 185.076 48.214 190.442Z" fill="#C8102E"/>
<path opacity="0.3" d="M48.214 190.442L57.8808 197.054L48.7288 193.593C48.808 196.039 49.4252 198.437 50.5363 200.618C50.5363 200.618 56.5709 203.546 59.8542 206.635L51.8233 204.107C51.5714 205.508 51.6577 206.95 52.075 208.311C52.1265 208.494 52.1837 208.688 52.2466 208.883C52.6699 210.17 53.2762 212.601 54.3058 215.484C55.1789 218.006 56.2917 220.439 57.6291 222.748C58.2908 223.885 59.0284 224.977 59.837 226.014C59.8828 226.083 59.9343 226.146 59.9858 226.209C61.4768 225.214 63.0288 224.239 64.6418 223.286C65.5742 220.918 66.5981 215.152 66.7811 210.473C67.4961 192.57 53.3391 183.337 42.3281 180.683C42.3281 180.683 46.3321 185.076 48.214 190.442Z" fill="black"/>
<path d="M55.9248 190.647C56.9071 191.526 57.7534 192.546 58.4359 193.673C59.1123 194.804 59.7031 195.984 60.2034 197.203C61.1936 199.641 61.9129 202.181 62.3484 204.776C63.2991 209.956 63.007 215.289 61.4961 220.334C61.4763 220.4 61.4832 220.471 61.5153 220.532C61.5474 220.593 61.6021 220.639 61.6677 220.66C61.7329 220.68 61.8033 220.673 61.8633 220.641C61.9233 220.609 61.9682 220.554 61.988 220.489C63.4357 215.358 63.6454 209.957 62.6 204.73C62.1156 202.128 61.3484 199.587 60.312 197.151C59.789 195.937 59.1772 194.763 58.4816 193.639C57.7795 192.523 56.9182 191.515 55.9248 190.647Z" fill="#FAFAFA"/>
<path d="M89.7187 199.588C89.5014 199.868 86.0751 202.854 80.8241 211.783L70.1735 214.5L78.8336 215.278L74.8296 222.233L65.7805 224.453L72.9591 225.368C72.9591 225.368 71.2431 232.426 66.2439 235.532C63.4754 237.248 62.1083 237.546 61.2274 236.774C60.6097 236.23 60.3465 232.89 59.7345 229.91C59.1225 226.929 58.8937 222.085 61.4848 216.119C62.1918 214.52 63.1241 213.031 64.2533 211.697C70.7341 203.872 83.3867 199.742 89.7187 199.588Z" fill="#C8102E"/>
<path opacity="0.15" d="M89.7187 199.588C89.5014 199.868 86.0751 202.854 80.8241 211.783L70.1735 214.5L78.8336 215.278L74.8296 222.233L65.7805 224.453L72.9591 225.368C72.9591 225.368 71.2431 232.426 66.2439 235.532C63.4754 237.248 62.1083 237.546 61.2274 236.774C60.6097 236.23 60.3465 232.89 59.7345 229.91C59.1225 226.929 58.8937 222.085 61.4848 216.119C62.1918 214.52 63.1241 213.031 64.2533 211.697C70.7341 203.872 83.3867 199.742 89.7187 199.588Z" fill="black"/>
<path opacity="0.1" d="M63.4921 219.133C62.5127 221.625 61.8944 224.245 61.656 226.912C61.49 230.286 61.5301 233.667 61.7761 237.037C61.5832 236.975 61.4043 236.876 61.2499 236.745C60.6321 236.202 60.369 232.861 59.757 229.881C59.1449 226.901 58.9161 222.056 61.5073 216.09C62.2143 214.492 63.1466 213.003 64.2758 211.668C70.7565 203.861 83.4092 199.731 89.7412 199.576C80.0858 201.538 69.8928 208.408 65.0251 216.124C64.4303 217.082 63.9175 218.089 63.4921 219.133Z" fill="black"/>
<path d="M80.0801 203.009C75.3497 205.297 70.9281 208.38 67.4961 212.447C65.7546 214.463 64.3451 216.743 63.3205 219.202C62.3257 221.663 61.7459 224.273 61.6045 226.924C61.6137 226.927 61.6239 226.927 61.6331 226.924C62.0278 224.334 62.7505 221.804 63.7838 219.396C64.8115 216.996 66.1583 214.745 67.7878 212.704C69.4519 210.676 71.3487 208.85 73.4392 207.264C75.5374 205.665 77.7753 204.258 80.1259 203.06V203.014L80.0801 203.009Z" fill="#FAFAFA"/>
<path d="M33.3076 206.349C34.0887 206.302 34.8718 206.302 35.6528 206.349C38.7323 206.536 41.7772 207.101 44.719 208.031C45.8115 208.374 46.9098 208.763 47.9909 209.209C48.5343 209.432 49.0719 209.667 49.5982 209.918C52.2306 211.111 54.6452 212.735 56.7425 214.723C57.7209 215.674 58.576 216.745 59.2879 217.909C59.3794 218.058 59.4766 218.207 59.5624 218.361C59.7798 218.761 59.9857 219.15 60.1745 219.539C61.9597 222.89 62.8651 226.64 62.8057 230.436C62.8571 233.113 62.1135 236.213 61.6273 236.728C61.5598 236.798 61.485 236.862 61.4043 236.917C60.6664 237.443 59.4423 237.226 57.1143 236.087C52.441 233.799 50.3075 227.507 50.3075 227.507L56.5423 226.089L48.3684 224.945L44.7991 220.003L50.7879 218.504L42.5054 217.703C39.6732 213.742 36.6056 209.954 33.3191 206.36L33.3076 206.349Z" fill="#C8102E"/>
<path opacity="0.05" d="M35.653 206.326C38.7325 206.514 41.7773 207.078 44.7192 208.008C45.8117 208.351 46.9099 208.74 47.991 209.186C48.5344 209.409 49.0721 209.644 49.5983 209.895C52.2307 211.088 54.6454 212.712 56.7426 214.7C57.721 215.652 58.5762 216.722 59.288 217.886C59.3795 218.035 59.4768 218.184 59.5626 218.338C59.7799 218.739 59.9858 219.128 60.1746 219.516C61.9599 222.867 62.8652 226.617 62.8058 230.413C62.8573 233.09 62.1137 236.19 61.6275 236.705C61.5599 236.776 61.4852 236.839 61.4044 236.894C61.2542 236.993 61.0876 237.064 60.9125 237.105C61.2442 232.936 58.6245 222.56 55.3069 218.413C51.8749 214.105 43.8669 208.014 33.3135 206.349C34.0922 206.297 34.8733 206.29 35.653 206.326Z" fill="black"/>
<path d="M225.871 193.073C225.208 195.172 221.421 200.509 220.151 201.968C218.881 203.426 218.687 209.712 218.698 211.022C218.71 212.332 219.585 213.573 220.14 214.414C220.694 215.255 219.734 216.702 217.714 216.039C215.695 215.375 215.083 213.333 214.786 211.966C214.488 210.599 213.819 202.763 214.648 197.895C214.648 197.912 218.767 192.667 225.871 193.073Z" fill="#37474F"/>
<path d="M194.874 173.402C191.677 173.471 187.261 170.925 185.722 166.538C184.184 162.151 185.104 155.67 186.758 151.986C187.701 149.893 187.41 148.554 186.609 148.16C185.43 147.588 184.246 148.234 183.371 150.087C182.262 152.467 180.031 161.344 182.039 166.75C184.046 172.155 187.701 175.061 189.852 175.902L194.874 173.402Z" fill="#37474F"/>
<path d="M193.867 185.723C194.062 190.024 196.121 197.638 197.299 199.497C198.535 201.459 199.496 202.019 201.492 202.076C203.488 202.134 203.78 200.4 201.246 198.85C200.766 198.17 200.588 194.846 200.863 191.386C201.137 187.925 193.867 185.723 193.867 185.723Z" fill="#37474F"/>
<path d="M228.714 177.137C228.714 179.425 229.126 185.545 227.684 189.504C226.311 193.273 223.812 196.728 218.2 197.603C212.589 198.478 207.641 197.277 204.404 195.407C201.166 193.536 198.003 189.767 195.721 189.338C194.171 190.782 192.236 191.746 190.15 192.112C186.437 192.873 184.567 191.935 184.567 191.935C184.567 191.935 183.48 194.966 183.423 196.511C183.366 198.055 183.423 199.525 184.601 200.326C185.779 201.127 186.357 201.533 186.231 202.379C186.231 202.379 186.231 203.318 183.812 203.249C181.392 203.18 181.329 202.791 180.603 200.618C179.876 198.444 178.95 192.804 178.813 190.922C178.675 189.04 180.975 188.794 182.119 187.244C183.399 185.57 184.368 183.679 184.979 181.662C185.757 179.185 187.57 175.341 191.499 174.071C195.429 172.801 199.41 173.145 204.919 175.553C210.427 177.961 213.178 178.985 215.884 177.492C219.556 175.444 219.184 172.218 219.184 172.218C223.16 171.663 227.684 169.57 228.714 177.137Z" fill="#455A64"/>
<path d="M215.518 197.866L215.203 196.522L212.578 195.218L211.771 195.739C212.252 196.391 212.655 197.098 212.973 197.843C213.82 197.897 214.67 197.905 215.518 197.866Z" fill="#37474F"/>
<path d="M211.771 195.739C213.35 196.791 214.603 199.125 216.828 200.509C218.082 201.315 219.481 201.87 220.946 202.145C221.576 203.198 222.05 204.337 222.353 205.526C222.857 207.505 223.435 209.964 225.116 211.057C226.798 212.149 229.469 211.423 228.085 209.484C227.101 208.105 226.638 206.349 226.169 204.582C225.545 202.248 226.083 201.15 224.905 199.6C223.544 197.935 222.541 196.007 221.959 193.937C221.959 193.937 214.151 192.255 211.771 195.739Z" fill="#455A64"/>
<path d="M196.602 189.635C197.253 188.419 197.5 187.026 197.305 185.66C197.075 186.994 196.532 188.254 195.721 189.338C196.026 189.4 196.322 189.5 196.602 189.635Z" fill="#37474F"/>
<path d="M220.791 175.078C225.527 179.608 219.682 182.514 219.83 188.365C219.876 190.299 220.757 192.369 222.69 196.036C225.121 194.55 226.962 192.268 227.901 189.578C228.988 186.592 228.977 181.776 228.754 179.437C228.574 177.585 227.988 175.796 227.038 174.197C227.038 174.197 216.044 170.548 220.791 175.078Z" fill="#E0E0E0"/>
<path d="M216.118 177.366C218.038 178.266 220.189 178.556 222.279 178.195C223.364 178.031 224.384 177.57 225.224 176.864C226.065 176.157 226.695 175.232 227.043 174.191L218.95 174.002C218.455 175.436 217.446 176.634 216.118 177.366Z" fill="#37474F"/>
<path d="M223.48 163.312C224.727 161.847 227.959 160.692 229.664 162.139C230.625 162.957 228.062 167.396 228.062 167.396C228.062 167.396 224.75 165.617 223.48 163.312Z" fill="#37474F"/>
<path d="M224.796 164.845C226.375 166.16 228.051 167.396 228.051 167.396C228.051 167.396 230.613 162.957 229.652 162.139C228.994 161.733 226.792 162.094 224.796 164.845Z" fill="#FFA8A7"/>
<path d="M227.97 166.315C228.108 166.128 228.276 165.965 228.468 165.834C228.611 165.554 228.777 165.222 228.943 164.868C228.447 164.56 227.895 164.355 227.318 164.267C227.385 163.884 227.588 163.539 227.89 163.295C227.437 163.18 226.957 163.239 226.545 163.46C226.133 163.681 225.819 164.049 225.665 164.49C225.788 164.927 226 165.335 226.289 165.686C226.643 165.926 226.969 166.126 227.232 166.292C227.474 166.353 227.725 166.361 227.97 166.315Z" fill="#F28F8F"/>
<path d="M225.939 164.896C226.088 164.539 226.344 164.237 226.672 164.032C227 163.828 227.384 163.73 227.77 163.752C227.521 164.039 227.386 164.408 227.392 164.788C227.392 164.788 229.223 164.69 229.68 165.628C229.331 165.631 228.989 165.726 228.688 165.903C228.387 166.079 228.137 166.332 227.964 166.635C226.391 167.247 225.939 164.896 225.939 164.896Z" fill="#455A64"/>
<path d="M213.075 161.876C214.396 163.252 215.137 165.083 215.146 166.99L216.496 166.017C216.496 166.017 216.53 163.638 215.523 162.797C214.813 162.262 213.963 161.942 213.075 161.876Z" fill="#F28F8F"/>
<path d="M219.264 163.432C218.618 162.133 215.26 160.446 213.075 161.899C213.075 161.899 215.935 162.82 216.072 165.794L219.264 163.432Z" fill="#37474F"/>
<path d="M228.714 177.189C228.531 174.466 229.229 170.834 228.8 168.763C228.296 166.349 226.821 163.272 222.125 163.014C217.428 162.757 215.14 165.251 214.322 168.374C213.836 169.93 213.178 170.605 213.379 172.327C213.471 173.401 213.904 174.418 214.615 175.229C215.326 176.04 216.278 176.602 217.331 176.834C219.31 177.406 224.567 177.566 227.055 174.197L228.725 177.189" fill="#455A64"/>
<path d="M216.039 165.382C216.039 165.382 215.964 164.913 215.164 164.416C214.865 164.249 214.537 164.142 214.197 164.102C213.858 164.061 213.514 164.088 213.184 164.181C213.184 164.181 214.26 165.062 214.38 165.777C213.978 165.65 213.548 165.636 213.139 165.737C213.139 165.737 214.712 166.818 214.409 168.483C214.409 168.483 216.073 166.521 216.039 165.382Z" fill="#455A64"/>
<path d="M218.824 173.127C218.768 173.124 218.716 173.1 218.678 173.06C218.639 173.019 218.618 172.966 218.618 172.91L218.652 171.829C218.655 171.773 218.68 171.721 218.72 171.683C218.761 171.644 218.814 171.623 218.87 171.623C218.898 171.624 218.925 171.63 218.95 171.641C218.976 171.653 218.999 171.669 219.018 171.689C219.037 171.709 219.052 171.733 219.062 171.759C219.072 171.785 219.077 171.813 219.076 171.84L219.041 172.921C219.039 172.977 219.014 173.03 218.974 173.068C218.933 173.106 218.88 173.127 218.824 173.127Z" fill="#263238"/>
<path d="M219.819 173.808C219.78 173.807 219.743 173.795 219.71 173.774L218.824 173.167L217.92 173.739C217.873 173.761 217.819 173.765 217.769 173.75C217.719 173.735 217.677 173.701 217.65 173.657C217.623 173.612 217.613 173.559 217.623 173.508C217.633 173.456 217.661 173.411 217.703 173.379L218.721 172.761C218.754 172.738 218.794 172.725 218.835 172.725C218.876 172.725 218.916 172.738 218.95 172.761L219.945 173.442C219.991 173.473 220.023 173.521 220.033 173.576C220.044 173.631 220.033 173.687 220.002 173.734C219.98 173.76 219.952 173.781 219.92 173.794C219.888 173.807 219.853 173.812 219.819 173.808Z" fill="#263238"/>
<path d="M218.887 170.542C217.8 170.491 217.669 170.817 217.777 171.206C218.006 171.622 218.378 171.941 218.824 172.104C219.081 172.144 220.065 171.657 220.105 171.24C220.145 170.822 219.911 170.593 218.887 170.542Z" fill="#F28F8F"/>
<path d="M222.616 171.6C222.601 171.581 222.591 171.559 222.584 171.536C222.578 171.512 222.577 171.488 222.58 171.464C222.583 171.44 222.591 171.417 222.603 171.396C222.615 171.375 222.631 171.357 222.65 171.343C223.156 170.879 223.792 170.581 224.472 170.49C225.153 170.399 225.844 170.519 226.454 170.834C226.499 170.856 226.533 170.896 226.548 170.944C226.564 170.991 226.56 171.043 226.537 171.088C226.514 171.133 226.475 171.167 226.427 171.182C226.379 171.198 226.327 171.194 226.283 171.171C225.733 170.885 225.108 170.776 224.494 170.858C223.88 170.94 223.306 171.209 222.851 171.629C222.815 171.655 222.771 171.666 222.728 171.661C222.684 171.656 222.644 171.634 222.616 171.6Z" fill="#263238"/>
<path d="M222.931 172.172L222.897 172.115C222.881 172.069 222.882 172.018 222.901 171.972C222.92 171.927 222.955 171.89 223 171.869C223.414 171.711 223.857 171.642 224.3 171.668C224.742 171.693 225.175 171.813 225.568 172.018C225.611 172.044 225.642 172.086 225.655 172.134C225.667 172.183 225.66 172.235 225.634 172.278C225.621 172.299 225.604 172.318 225.584 172.333C225.564 172.348 225.541 172.359 225.517 172.365C225.468 172.377 225.417 172.37 225.373 172.344C225.03 172.165 224.653 172.061 224.267 172.037C223.881 172.013 223.494 172.071 223.131 172.207C223.099 172.223 223.062 172.228 223.026 172.222C222.989 172.216 222.956 172.199 222.931 172.172Z" fill="#263238"/>
<path d="M222.599 172.881C222.586 172.868 222.575 172.852 222.568 172.834C222.561 172.816 222.558 172.797 222.559 172.778C222.556 172.729 222.572 172.679 222.604 172.641C222.636 172.603 222.681 172.578 222.731 172.572C223.311 172.545 223.89 172.658 224.417 172.903C224.944 173.148 225.404 173.518 225.756 173.98C225.771 173.999 225.782 174.021 225.788 174.044C225.795 174.067 225.796 174.091 225.793 174.115C225.79 174.139 225.782 174.162 225.77 174.183C225.758 174.204 225.741 174.222 225.722 174.237C225.706 174.254 225.687 174.268 225.665 174.278C225.643 174.287 225.62 174.292 225.596 174.292C225.573 174.292 225.549 174.287 225.528 174.278C225.506 174.268 225.487 174.254 225.47 174.237C225.153 173.82 224.74 173.487 224.266 173.265C223.792 173.042 223.271 172.938 222.748 172.961C222.718 172.963 222.688 172.957 222.662 172.943C222.636 172.928 222.614 172.907 222.599 172.881Z" fill="#263238"/>
<path d="M216.216 171.297C216.25 171.262 216.269 171.214 216.269 171.165C216.269 171.116 216.25 171.069 216.216 171.034C215.812 170.479 215.248 170.061 214.599 169.838C213.95 169.615 213.248 169.597 212.589 169.787C212.547 169.805 212.512 169.838 212.492 169.879C212.472 169.921 212.468 169.968 212.481 170.013C212.494 170.057 212.522 170.095 212.561 170.12C212.6 170.145 212.646 170.154 212.692 170.147C213.287 169.981 213.919 170.001 214.502 170.206C215.086 170.41 215.592 170.789 215.952 171.291C215.969 171.31 215.989 171.325 216.011 171.336C216.034 171.346 216.058 171.352 216.083 171.352C216.108 171.353 216.132 171.348 216.155 171.339C216.178 171.329 216.199 171.315 216.216 171.297Z" fill="#263238"/>
<path d="M215.821 171.766C215.837 171.754 215.85 171.738 215.861 171.72C215.885 171.677 215.891 171.627 215.88 171.579C215.868 171.531 215.839 171.49 215.798 171.463C215.407 171.25 214.975 171.123 214.531 171.091C214.087 171.058 213.642 171.121 213.224 171.274C213.181 171.296 213.148 171.334 213.132 171.38C213.116 171.426 213.118 171.476 213.138 171.52C213.158 171.564 213.194 171.598 213.239 171.616C213.283 171.634 213.333 171.635 213.378 171.617C213.742 171.487 214.128 171.434 214.513 171.461C214.898 171.489 215.274 171.597 215.615 171.777C215.645 171.799 215.682 171.81 215.72 171.808C215.757 171.805 215.793 171.791 215.821 171.766Z" fill="#263238"/>
<path d="M216.09 172.533C216.118 172.505 216.136 172.469 216.142 172.43C216.149 172.381 216.137 172.332 216.11 172.292C216.082 172.252 216.04 172.223 215.993 172.212C215.419 172.119 214.832 172.167 214.281 172.351C213.73 172.536 213.232 172.851 212.83 173.27C212.796 173.306 212.776 173.353 212.776 173.402C212.776 173.451 212.796 173.498 212.83 173.534C212.845 173.551 212.864 173.565 212.885 173.574C212.907 173.583 212.93 173.588 212.953 173.588C212.976 173.588 212.999 173.583 213.02 173.574C213.041 173.565 213.06 173.551 213.076 173.534C213.439 173.153 213.888 172.866 214.387 172.698C214.885 172.53 215.416 172.485 215.936 172.567C215.962 172.576 215.99 172.577 216.018 172.571C216.045 172.565 216.07 172.552 216.09 172.533Z" fill="#263238"/>
<path d="M223.365 168.74C223.361 168.882 223.314 169.018 223.232 169.133C223.15 169.248 223.035 169.336 222.903 169.386C222.77 169.436 222.626 169.445 222.489 169.413C222.351 169.381 222.226 169.309 222.129 169.206C222.032 169.103 221.968 168.974 221.945 168.834C221.922 168.695 221.941 168.551 221.999 168.423C222.057 168.294 222.152 168.185 222.272 168.11C222.392 168.035 222.532 167.998 222.673 168.002C222.767 168.005 222.859 168.027 222.945 168.065C223.031 168.104 223.108 168.159 223.172 168.228C223.236 168.296 223.286 168.377 223.32 168.465C223.353 168.553 223.368 168.646 223.365 168.74Z" fill="#263238"/>
<path d="M217.6 168.511C217.596 168.653 217.551 168.791 217.469 168.906C217.387 169.022 217.272 169.111 217.14 169.162C217.007 169.212 216.862 169.222 216.724 169.19C216.586 169.158 216.46 169.086 216.363 168.983C216.266 168.879 216.202 168.749 216.179 168.609C216.156 168.469 216.176 168.325 216.235 168.196C216.294 168.067 216.39 167.959 216.51 167.884C216.631 167.81 216.772 167.773 216.913 167.779C217.006 167.782 217.098 167.803 217.183 167.842C217.268 167.88 217.345 167.935 217.408 168.003C217.472 168.071 217.522 168.151 217.555 168.238C217.587 168.325 217.603 168.418 217.6 168.511Z" fill="#263238"/>
</svg>
