<svg width="24" height="24" viewBox="0 0 24 24" fill="none" xmlns="http://www.w3.org/2000/svg">
<g clip-path="url(#clip0_130_42)">
<path d="M14.9998 13C14.4469 13 13.9999 13.4481 13.9999 14V18.0001C13.9999 18.551 13.5519 19 12.9998 19H9.99983V4.00014C9.99983 3.14615 9.45583 2.38315 8.63791 2.09916L8.34183 2.0001H12.9998C13.5519 2.0001 13.9999 2.44907 13.9999 3.00021V6.00018C13.9999 6.55206 14.4469 7.00011 14.9998 7.00011C15.5528 7.00011 15.9998 6.55206 15.9998 6.00018V3.00021C15.9998 1.34624 14.6538 0.000244141 12.9998 0.000244141H2.24998C2.21189 0.000244141 2.18003 0.0172728 2.14304 0.0222166C2.09489 0.0181883 2.04893 0.000244141 2.00004 0.000244141C0.897024 0.000244141 0 0.897085 0 2.0001V19.9999C0 20.8539 0.544001 21.6169 1.36192 21.9009L7.37999 23.907C7.58397 23.97 7.78684 24 7.99998 24C9.10299 24 9.99983 23.103 9.99983 22V21H12.9998C14.6538 21 15.9998 19.654 15.9998 18.0001V14C15.9998 13.4481 15.5528 13 14.9998 13Z" fill="#030303"/>
<path d="M23.7068 9.29317L19.7067 5.29327C19.4209 5.00726 18.9908 4.9212 18.6169 5.07611C18.2439 5.2312 17.9998 5.59612 17.9998 6.00023V9.0002H13.9999C13.4479 9.0002 12.9998 9.44807 12.9998 10.0001C12.9998 10.5522 13.4479 11.0001 13.9999 11.0001H17.9998V14C17.9998 14.4041 18.2439 14.7691 18.6169 14.9241C18.9908 15.0791 19.4209 14.993 19.7067 14.7072L23.7068 10.7071C24.0977 10.3162 24.0977 9.68409 23.7068 9.29317Z" fill="#030303"/>
</g>
<defs>
<clipPath id="clip0_130_42">
<rect width="24" height="24" fill="white"/>
</clipPath>
</defs>
</svg>
