<svg width="56" height="56" viewBox="0 0 56 56" fill="none" xmlns="http://www.w3.org/2000/svg">
<path d="M42.5367 41.2887C42.5367 41.8691 42.5367 42.2753 42.5367 42.4494C42.5367 42.9136 42.4206 43.3198 42.1885 43.552C41.9564 43.8421 41.6082 43.9582 41.0859 43.9582C40.6217 43.9582 40.2154 43.8421 39.9833 43.61C39.6932 43.3779 39.5771 43.0297 39.5191 42.6235C39.5191 42.4494 39.5191 41.8691 39.5191 40.9986C39.5191 40.3022 39.5191 39.4317 39.5191 38.4452V34.6152V32.5841C39.5191 32.352 39.5771 32.1779 39.6932 32.0038C39.8092 31.8297 39.9253 31.7136 40.1574 31.5975C40.5056 31.3654 40.9118 31.2494 41.318 31.2494C41.4921 31.2494 41.6662 31.2494 41.8403 31.3074C42.0144 31.3654 42.1305 31.4235 42.2465 31.5395C42.3626 31.5975 42.4786 31.7136 42.5947 31.8877C42.7108 32.0038 42.8268 32.1779 42.9429 32.352L46.889 37.8649L47.2952 38.4452C47.2952 37.6908 47.2952 36.9944 47.2952 36.4141L47.2372 32.9903C47.2372 32.7001 47.2952 32.468 47.2952 32.2939C47.3533 32.0618 47.4693 31.8877 47.5854 31.7716C47.7014 31.6556 47.8755 31.5395 48.1077 31.4815C48.2818 31.4235 48.5139 31.3654 48.804 31.3654C49.7906 31.3654 50.2548 31.8877 50.2548 32.8742V38.9095V39.3737V40.3022C50.2548 41.1727 50.2548 41.9851 50.2548 42.6815C50.2548 42.9136 50.1968 43.0877 50.1388 43.2618C50.0227 43.4359 49.9066 43.61 49.7325 43.726C49.3843 43.9582 48.9781 44.0742 48.5139 44.0742C48.3398 44.0742 48.1657 44.0742 47.9916 44.0162C47.8175 43.9582 47.7014 43.9001 47.5854 43.7841C47.4693 43.668 47.3533 43.61 47.2372 43.4359C47.1211 43.3198 47.0051 43.1457 46.889 42.9716L42.4206 36.5882C42.4206 36.7623 42.4206 36.9364 42.4206 37.1685C42.4206 37.7488 42.4206 38.5032 42.4206 39.3157C42.5367 40.0701 42.5367 40.7665 42.5367 41.2887ZM29.8279 34.6732C29.8279 33.8608 29.8279 33.2224 29.8279 32.6421C29.8279 32.41 29.8859 32.2359 29.9439 32.0618C30.002 31.8877 30.1761 31.7136 30.2921 31.5975C30.5823 31.3654 30.9885 31.2494 31.3947 31.2494H32.0911C33.2517 31.2494 34.2382 31.2494 35.1087 31.2494H36.1533H36.6175C36.7916 31.2494 37.0237 31.2494 37.1398 31.3074C37.3139 31.3654 37.4299 31.4815 37.604 31.5975C37.7201 31.7136 37.8362 31.8297 37.8942 32.0038C37.9522 32.1779 38.0103 32.2939 38.0103 32.526C38.0103 32.8742 37.9522 33.1644 37.8362 33.3965C37.7201 33.6286 37.488 33.8027 37.1978 33.9188H37.1398C37.0237 33.9188 36.6175 33.9768 35.9211 33.9768C35.2248 33.9768 34.2963 33.9768 33.1356 33.9768H32.7875V34.9053L32.7294 36.3561H33.0196C34.0061 36.3561 34.8766 36.3561 35.631 36.2981C35.8631 36.2981 36.0952 36.2981 36.2693 36.3561C36.4434 36.4141 36.6175 36.4722 36.7916 36.5302C37.0818 36.7043 37.2558 37.1105 37.1978 37.6328C37.1978 38.039 37.0818 38.3872 36.7916 38.6193C36.5595 38.8514 36.2113 38.9675 35.8051 38.9675H32.6714C32.6714 39.1416 32.6714 39.3737 32.6714 39.6639V41.1727C33.3097 41.1727 33.89 41.1727 34.2963 41.1727C34.8766 41.1727 35.3408 41.1727 35.8051 41.1727C35.9792 41.1727 36.1533 41.1727 36.3854 41.1727C36.6175 41.1727 36.7916 41.1727 36.9077 41.1727C37.3139 41.1727 37.604 41.2887 37.8362 41.5209C38.0683 41.753 38.1263 42.1012 38.1263 42.5074C38.1263 42.9716 38.0103 43.3198 37.7781 43.552C37.546 43.7841 37.1978 43.9582 36.7336 43.9582H31.859C31.5108 43.9582 31.1626 43.9582 30.9305 43.9001C30.6403 43.8421 30.4082 43.7841 30.2921 43.668C30.118 43.552 29.9439 43.3779 29.8859 43.2038C29.7698 43.0297 29.7118 42.7975 29.7118 42.5074C29.7118 42.3913 29.7118 42.2753 29.7118 42.1592C29.7118 42.0431 29.7118 41.9271 29.7118 41.8691V41.6369V41.0566C29.7118 40.8245 29.7118 40.5343 29.7118 40.1861C29.7118 39.838 29.7118 39.4898 29.7118 39.0255C29.7118 38.2131 29.7118 37.4587 29.7118 36.6463V35.7758L29.8279 34.6732ZM22.4579 34.7312C22.4579 35.3696 22.4579 35.8918 22.4579 36.2981C22.4579 36.4722 22.4579 36.6463 22.4579 36.8784V37.1685H22.9802C23.3864 37.1685 23.6766 37.1685 23.9667 37.1685C24.2569 37.1685 24.431 37.1105 24.6051 37.0525C24.8952 36.9944 25.1854 36.7623 25.3595 36.4722C25.4755 36.2981 25.5336 36.124 25.5916 35.9499C25.6496 35.7758 25.6496 35.6017 25.7077 35.4276C25.7077 35.0794 25.6496 34.8473 25.5336 34.6152C25.4175 34.383 25.1854 34.2089 24.9533 34.0929C24.6631 33.9188 24.1989 33.8608 23.6185 33.8608C23.1543 33.8608 22.8641 33.8608 22.69 33.8608H22.4579V33.9188V34.7312ZM19.3823 42.6815C19.3823 41.811 19.3823 39.7219 19.4403 36.4722C19.4403 36.2981 19.4403 36.182 19.4403 36.0079C19.4403 35.7758 19.4403 35.5437 19.4403 35.1955C19.4403 34.4991 19.4403 34.0929 19.4403 33.9768C19.4403 33.9188 19.4403 33.8608 19.4403 33.8027V33.5706C19.4403 33.4545 19.4403 33.3965 19.4403 33.3385V33.1644C19.4403 33.1064 19.4403 33.0483 19.4403 32.9903C19.4403 32.9323 19.4403 32.8162 19.4403 32.7582C19.4403 32.5841 19.4983 32.468 19.4983 32.2939C19.7305 31.6556 20.1947 31.3074 20.8911 31.2494C20.9491 31.2494 21.2393 31.2494 21.7035 31.2494C22.1678 31.2494 22.7481 31.2494 23.5605 31.1913C24.1989 31.1913 24.8372 31.2494 25.3595 31.3654C25.9398 31.4815 26.4621 31.7136 26.9263 32.0038C27.5647 32.41 27.9709 32.8742 28.261 33.5126C28.5512 34.0929 28.6672 34.7893 28.6672 35.6017C28.6672 36.0659 28.5512 36.5302 28.4351 36.9944C28.261 37.4587 28.0289 37.8649 27.7388 38.2711C27.4486 38.6773 27.1004 39.0255 26.6942 39.2577C26.288 39.4898 25.8818 39.7219 25.4175 39.7799C25.1854 39.838 24.8952 39.838 24.431 39.896C24.0248 39.896 23.5025 39.954 22.8641 39.954H22.3999C22.3999 40.0701 22.3999 40.1861 22.3999 40.3022C22.3999 40.5924 22.3999 40.8825 22.3999 41.1727C22.3999 41.869 22.3999 42.3913 22.3999 42.6235C22.3999 43.0877 22.2838 43.4359 21.9937 43.668C21.7035 43.9001 21.3553 44.0162 20.8331 44.0162C19.9046 43.9582 19.3823 43.552 19.3823 42.6815ZM14.7978 38.9095C14.9719 38.5032 15.0299 38.039 15.0299 37.5167C15.0299 36.9944 14.9139 36.5302 14.7978 36.0659C14.6237 35.6017 14.3336 35.2535 14.0434 34.9634C13.6952 34.6152 13.347 34.383 12.9989 34.267C12.5926 34.0929 12.1864 34.0349 11.7222 34.0349C10.8517 34.0349 10.1553 34.383 9.57502 35.0794C9.28486 35.4276 9.05274 35.8338 8.93668 36.24C8.76258 36.7043 8.70455 37.1685 8.70455 37.7488C8.70455 38.2711 8.76258 38.7934 8.93668 39.1996C9.11077 39.6058 9.3429 40.0121 9.63305 40.3022C9.92321 40.6504 10.2714 40.8825 10.6776 40.9986C11.0258 41.1727 11.49 41.2307 11.9543 41.2307C12.8248 41.2307 13.5211 40.8825 14.1595 40.1281C14.3916 39.7219 14.6237 39.3157 14.7978 38.9095ZM7.54393 32.9903C8.82062 31.7136 10.2714 31.1333 11.8382 31.1333C12.7087 31.1333 13.4631 31.3074 14.2175 31.5975C14.9719 31.8877 15.6103 32.352 16.2486 32.9323C17.4672 34.1509 18.1056 35.6597 18.1056 37.4587C18.1056 38.3872 17.9315 39.1996 17.6413 40.0121C17.3512 40.7665 16.8869 41.5209 16.3066 42.1592C15.7263 42.7975 15.0299 43.2618 14.2755 43.61C13.5211 43.9582 12.7087 44.0742 11.8382 44.0742C11.0258 44.0742 10.2714 43.9582 9.51699 43.668C8.82062 43.3779 8.12424 42.9716 7.4859 42.3913C6.26725 41.2307 5.62891 39.7219 5.62891 37.9229C5.62891 36.9364 5.803 36.0659 6.09316 35.2535C6.44134 34.325 6.90559 33.6286 7.54393 32.9903Z" fill="white"/>
<path d="M39.5194 40.999V38.4456V34.6156V32.5845C39.5194 32.3523 39.5774 32.1782 39.6935 32.0042C39.8096 31.8301 39.9256 31.714 40.1577 31.5979C40.5059 31.3658 40.9121 31.2497 41.3184 31.2497C41.4925 31.2497 41.6665 31.2497 41.8406 31.3078C42.0147 31.3658 42.1308 31.4238 42.2469 31.5399C42.3629 31.5979 42.479 31.714 42.595 31.8881C42.7111 32.0042 42.8272 32.1782 42.9432 32.3523L46.8893 37.8653L47.2956 38.4456C47.2956 37.6912 47.2956 36.9948 47.2956 36.4145L47.2375 32.9907C47.2375 32.7005 47.2956 32.4684 47.2956 32.2943C47.3536 32.0622 47.4697 31.8881 47.5857 31.772C47.7018 31.656 47.8759 31.5399 48.108 31.4819C48.2821 31.4238 48.5142 31.3658 48.8044 31.3658C49.7909 31.3658 50.2551 31.8881 50.2551 32.8746V38.9099V39.3741V40.3026V42.6819C50.2551 42.914 50.1971 43.0881 50.1391 43.2622C50.023 43.4363 49.907 43.6104 49.7329 43.7264C49.3847 43.9586 48.9785 44.0746 48.5142 44.0746C48.3401 44.0746 48.166 44.0746 47.9919 44.0166C47.8178 43.9586 47.7018 43.9005 47.5857 43.7845C47.4697 43.6684 47.3536 43.6104 47.2375 43.4363C47.1215 43.3202 47.0054 43.1461 46.8893 42.972L42.421 36.5886C42.421 36.7627 42.421 36.9368 42.421 37.1689V39.3161V41.3472V42.5078C42.421 42.972 42.3049 43.3782 42.0728 43.6104C41.8406 43.9005 41.4925 44.0166 40.9702 44.0166C40.5059 44.0166 40.0997 43.9005 39.8676 43.6684C39.5774 43.4363 39.4614 43.0881 39.4033 42.6819L39.5194 40.999ZM29.8282 39.0839C29.8282 38.2715 29.8282 37.5171 29.8282 36.7047V35.8342V34.6156V32.5845C29.8282 32.3523 29.8862 32.1782 29.9443 32.0042C30.0023 31.8301 30.1764 31.656 30.2925 31.5399C30.5826 31.3078 30.9888 31.1917 31.395 31.1917H32.0914C33.252 31.1917 34.2386 31.1917 35.109 31.1917H36.1536H36.6178C36.7919 31.1917 37.0241 31.1917 37.1401 31.2497C37.3142 31.3078 37.4303 31.4238 37.6044 31.5399C37.7204 31.656 37.8365 31.772 37.8945 31.9461C37.9526 32.1202 38.0106 32.2363 38.0106 32.4684C38.0106 32.8166 37.9526 33.1067 37.8365 33.3389C37.7204 33.571 37.4883 33.7451 37.1982 33.8611H37.1401C37.0241 33.8611 36.6178 33.9192 35.9215 33.9192C35.2251 33.9192 34.2966 33.9192 33.136 33.9192H32.7878V34.8477L32.7298 36.2985H33.0199C34.0064 36.2985 34.8769 36.2985 35.6313 36.2404C35.8634 36.2404 36.0956 36.2404 36.2697 36.2985C36.4437 36.3565 36.6178 36.4145 36.7919 36.4725C37.0821 36.6466 37.2562 37.0529 37.1982 37.5751C37.1982 37.9814 37.0821 38.3295 36.7919 38.5617C36.5598 38.7938 36.2116 38.9099 35.8054 38.9099H32.6717V39.6062V41.115H34.2966C34.8769 41.115 35.3412 41.115 35.8054 41.115H36.3857H36.908C37.3142 41.115 37.6044 41.2311 37.8365 41.4632C38.0686 41.6953 38.1266 42.0435 38.1266 42.4497C38.1266 42.914 38.0106 43.2622 37.7785 43.4943C37.5463 43.7264 37.1982 43.9005 36.7339 43.9005H31.8593C31.5111 43.9005 31.1629 43.9005 30.9308 43.8425C30.6406 43.7845 30.4085 43.7264 30.2925 43.6104C30.1184 43.4943 29.9443 43.3202 29.8862 43.1461C29.7702 42.972 29.7121 42.7399 29.7121 42.4497V42.1016C29.7121 41.9855 29.7121 41.8694 29.7121 41.8114V41.5793V40.999V40.1285L29.8282 39.0839ZM19.3826 32.9907V32.7586C19.3826 32.5845 19.4406 32.4684 19.4406 32.2943C19.6728 31.656 20.137 31.3078 20.8334 31.2497H21.6458L23.5028 31.1917C24.1412 31.1917 24.7795 31.2497 25.3018 31.3658C25.8821 31.4819 26.4044 31.714 26.8686 32.0042C27.507 32.4104 27.9132 32.8746 28.2033 33.513C28.4935 34.0933 28.6096 34.7896 28.6096 35.6021C28.6096 36.0663 28.4935 36.5306 28.3774 36.9948C28.2033 37.4591 27.9712 37.8653 27.6811 38.2715C27.3909 38.6777 27.0427 39.0259 26.6365 39.258C26.2303 39.4902 25.8241 39.7223 25.3598 39.7803C25.1277 39.8384 24.8375 39.8383 24.3733 39.8964C23.9671 39.8964 23.4448 39.9544 22.8064 39.9544H22.3422V40.3026V41.1731V42.6238C22.3422 43.0881 22.2261 43.4363 21.936 43.6684C21.6458 43.9005 21.2976 44.0166 20.7754 44.0166C19.7888 44.0166 19.2665 43.6104 19.2665 42.7399C19.2665 41.8694 19.2665 39.7803 19.3246 36.5306V36.0663V35.2539V34.0352V33.8611V33.629V33.3969V33.2228L19.3826 32.9907ZM7.54427 32.9907C8.82095 31.714 10.2717 31.1337 11.8386 31.1337C12.709 31.1337 13.4634 31.3078 14.2178 31.5979C14.9722 31.8881 15.6106 32.3523 16.2489 32.9326C17.4676 34.1513 18.1059 35.6601 18.1059 37.4591C18.1059 38.3876 17.9318 39.2 17.6417 40.0124C17.3515 40.7668 16.8873 41.5213 16.307 42.1596C15.7267 42.7979 15.0303 43.2622 14.2759 43.6104C13.5215 43.9586 12.709 44.0746 11.8386 44.0746C11.0261 44.0746 10.2717 43.9586 9.51732 43.6684C8.82095 43.3782 8.12458 42.972 7.48624 42.3917C6.26758 41.2311 5.62924 39.7223 5.62924 37.9233C5.62924 36.9368 5.80334 36.0663 6.09349 35.2539C6.44168 34.3254 6.90593 33.629 7.54427 32.9907ZM2.84375 25.2145V49.9358C2.84375 50.1099 2.90178 50.2839 3.01784 50.4C3.13391 50.5161 3.308 50.5741 3.48209 50.5741H52.4023C52.5764 50.5741 52.7505 50.5161 52.8665 50.4C52.9826 50.2839 53.0406 50.1099 53.0406 49.9358V25.2145C53.0406 25.0404 52.9826 24.8663 52.8665 24.7503C52.7505 24.6342 52.5764 24.5762 52.4023 24.5762H3.48209C3.308 24.5762 3.13391 24.6342 3.01784 24.7503C2.95981 24.8663 2.84375 25.0404 2.84375 25.2145Z" fill="#4FBA6F"/>
<path d="M9.57359 35.0216C9.28344 35.3698 9.05131 35.776 8.93525 36.1822C8.76116 36.6464 8.70312 37.1107 8.70312 37.691C8.70312 38.2133 8.76116 38.7356 8.93525 39.1418C9.10934 39.548 9.34147 39.9542 9.63162 40.2444C9.92178 40.5926 10.27 40.8247 10.6762 40.9407C11.0244 41.1148 11.4886 41.1729 11.9529 41.1729C12.8233 41.1729 13.5197 40.8247 14.158 40.0703C14.4482 39.7221 14.6803 39.3159 14.8544 38.8516C15.0285 38.4454 15.0865 37.9812 15.0865 37.4589C15.0865 36.9366 14.9705 36.4724 14.8544 36.0081C14.6223 35.6019 14.3321 35.2537 14.042 34.9635C13.6938 34.6154 13.3456 34.3832 12.9974 34.2672C12.5912 34.0931 12.185 34.035 11.7207 34.035C10.8503 33.977 10.1539 34.3252 9.57359 35.0216Z" fill="#4FBA6F"/>
<path d="M22.457 34.7318C22.457 35.3701 22.457 35.8924 22.457 36.2986V36.8789V37.1691H22.9793C23.3855 37.1691 23.6757 37.1691 23.9658 37.1691C24.256 37.1691 24.4301 37.1111 24.6042 37.053C24.8943 36.995 25.1845 36.7629 25.3586 36.4727C25.4746 36.2986 25.5327 36.1245 25.5907 35.9504C25.6487 35.7764 25.6487 35.6023 25.7068 35.4282C25.7068 35.08 25.6487 34.8479 25.5327 34.6157C25.4166 34.3836 25.1845 34.2095 24.9524 34.0935C24.6622 33.9194 24.198 33.8613 23.6177 33.8613H22.6892H22.457V33.9194V34.7318Z" fill="#4FBA6F"/>
<path d="M27.9714 9.66198C28.5517 9.66198 29.074 9.42985 29.4221 9.08167L29.4802 9.02363C29.8864 8.61742 30.1185 8.09514 30.1185 7.51483C30.1185 6.93452 29.8864 6.41224 29.4802 6.00602C29.074 5.5998 28.5517 5.36768 27.9714 5.36768C27.3911 5.36768 26.8688 5.5998 26.4626 6.00602C26.0563 6.41224 25.8242 6.93452 25.8242 7.51483C25.8242 8.09514 26.0563 8.61742 26.4626 9.02363C26.8688 9.42985 27.3911 9.66198 27.9714 9.66198Z" fill="#FFE749"/>
<path d="M54.9554 22.7192C54.3171 22.0809 53.4466 21.6747 52.4601 21.6747H47.1212L32.9617 6.93478C32.8456 5.77415 32.3233 4.78763 31.5109 3.97519C30.5824 3.04669 29.3637 2.52441 27.971 2.52441C26.5782 2.52441 25.3016 3.10472 24.4311 3.97519C23.6767 4.7296 23.1544 5.77415 22.9803 6.93478L8.82073 21.6747H3.5399C2.55337 21.6747 1.6829 22.0809 1.04456 22.7192C0.406218 23.3576 0 24.228 0 25.2146V49.9358C0 50.9223 0.406218 51.7928 1.04456 52.4311C1.6829 53.0695 2.55337 53.4757 3.5399 53.4757H52.4601C53.4466 53.4757 54.3171 53.0695 54.9554 52.4311C55.5938 51.7928 56 50.9223 56 49.9358V25.2146C56 24.228 55.5938 23.3576 54.9554 22.7192ZM26.4622 6.00628C26.8684 5.60006 27.3907 5.36794 27.971 5.36794C28.5513 5.36794 29.0736 5.60006 29.4798 6.00628C29.886 6.4125 30.1181 6.93478 30.1181 7.51509C30.1181 8.0954 29.886 8.61768 29.4798 9.0239L29.4218 9.08193C29.0155 9.43011 28.5513 9.66224 27.971 9.66224C27.3907 9.66224 26.8684 9.43011 26.4622 9.0239C26.056 8.61768 25.8238 8.0954 25.8238 7.51509C25.8238 6.93478 26.056 6.4125 26.4622 6.00628ZM23.7347 10.3006C23.9088 10.5907 24.1409 10.8809 24.3731 11.113C25.3016 12.0415 26.5202 12.5638 27.913 12.5638C29.2477 12.5638 30.4663 12.0415 31.3948 11.171C31.4528 11.171 31.4528 11.113 31.5109 11.113C31.743 10.8809 31.9751 10.5907 32.1492 10.3006L43.1171 21.6747H12.8249L23.7347 10.3006ZM53.0984 49.9358C53.0984 50.1099 53.0404 50.284 52.9244 50.4001C52.8083 50.5161 52.6342 50.5742 52.4601 50.5742H3.48187C3.30777 50.5742 3.13368 50.5161 3.01762 50.4001C2.90155 50.284 2.84352 50.1099 2.84352 49.9358V25.2146C2.84352 25.0405 2.90155 24.8664 3.01762 24.7503C3.13368 24.6343 3.30777 24.5762 3.48187 24.5762H52.4021C52.5762 24.5762 52.7503 24.6343 52.8663 24.7503C52.9824 24.8664 53.0404 25.0405 53.0404 25.2146V49.9358H53.0984Z" fill="#4FBA6F"/>
</svg>
