<svg width="117" height="120" viewBox="0 0 117 120" fill="none" xmlns="http://www.w3.org/2000/svg">
<path d="M10.1748 110.202L58.5498 90.3039C59.8857 89.7648 60.331 88.1476 59.5342 86.7883C57.2842 82.9914 52.5498 75.6086 46.5498 69.6086C40.7373 63.7961 33.6826 59.343 30.0029 57.2101C28.667 56.4367 27.0732 56.9055 26.5342 58.218L6.6123 106.64C5.74511 108.749 8.08886 111.07 10.1748 110.202Z" fill="#FCB424"/>
<path d="M59.7616 88.8782C58.3319 90.3079 49.8006 84.847 40.8944 75.9407C31.9881 67.0345 26.5272 58.4798 27.9334 57.0501C29.3631 55.6204 37.9412 61.0345 46.8709 69.9642C55.8006 78.8938 61.1678 87.472 59.7616 88.8782Z" fill="#D67909"/>
<path d="M30.2849 101.931L18.988 106.595L10.2458 97.8295L14.8865 86.5326L30.2849 101.931Z" fill="#ED3F03"/>
<path d="M50.7651 93.5143L39.4683 98.1549L18.6558 77.3424L23.2964 66.0455L50.7651 93.5143Z" fill="#ED3F03"/>
<path d="M23.9995 30.8231C25.9152 30.8231 27.4683 29.27 27.4683 27.3543C27.4683 25.4386 25.9152 23.8856 23.9995 23.8856C22.0838 23.8856 20.5308 25.4386 20.5308 27.3543C20.5308 29.27 22.0838 30.8231 23.9995 30.8231Z" fill="#FCB424"/>
<path d="M23.9995 9.14062C25.9214 9.14062 27.4683 10.6875 27.4683 12.6094V18.9844C27.4683 20.9063 25.9214 22.4531 23.9995 22.4531C22.1011 22.4531 20.5308 20.9063 20.5308 18.9844V12.6094C20.5308 10.6875 22.1011 9.14062 23.9995 9.14062Z" fill="#FCB424"/>
<path d="M9.26148 23.8856H15.6365C17.5584 23.8856 19.1052 25.4324 19.1052 27.3543C19.1052 29.2762 17.5584 30.8231 15.6365 30.8231H9.26148C7.3396 30.8231 5.79272 29.2762 5.79272 27.3543C5.79272 25.4324 7.3396 23.8856 9.26148 23.8856Z" fill="#FCB424"/>
<path d="M23.9995 32.2473C25.9214 32.2473 27.4683 33.7941 27.4683 35.716V42.091C27.4683 44.0129 25.9214 45.5598 23.9995 45.5598C22.0776 45.5598 20.5308 44.0129 20.5308 42.091V35.716C20.5308 33.7941 22.1011 32.2473 23.9995 32.2473Z" fill="#FCB424"/>
<path d="M32.3682 23.8856H38.7432C40.665 23.8856 42.2119 25.4324 42.2119 27.3543C42.2119 29.2762 40.665 30.8231 38.7432 30.8231H32.3682C30.4463 30.8231 28.8994 29.2762 28.8994 27.3543C28.8994 25.4324 30.4463 23.8856 32.3682 23.8856Z" fill="#FCB424"/>
<path d="M98.1035 94.2628C100.019 94.2628 101.572 92.7098 101.572 90.7941C101.572 88.8784 100.019 87.3253 98.1035 87.3253C96.1878 87.3253 94.6348 88.8784 94.6348 90.7941C94.6348 92.7098 96.1878 94.2628 98.1035 94.2628Z" fill="#00C853"/>
<path d="M98.1035 72.5873C100.025 72.5873 101.572 74.1342 101.572 76.0561V82.4311C101.572 84.3529 100.025 85.8998 98.1035 85.8998C96.1816 85.8998 94.6348 84.3529 94.6348 82.4311V76.0561C94.6348 74.1342 96.1816 72.5873 98.1035 72.5873Z" fill="#00C853"/>
<path d="M83.3655 87.3253H89.7405C91.6624 87.3253 93.2092 88.8722 93.2092 90.7941C93.2092 92.716 91.6624 94.2628 89.7405 94.2628H83.3655C81.4436 94.2628 79.8967 92.716 79.8967 90.7941C79.8967 88.8722 81.4436 87.3253 83.3655 87.3253Z" fill="#00C853"/>
<path d="M98.1035 95.6939C100.025 95.6939 101.572 97.2408 101.572 99.1627V105.538C101.572 107.46 100.025 109.006 98.1035 109.006C96.1816 109.006 94.6348 107.46 94.6348 105.538V99.1627C94.6348 97.2408 96.1816 95.6939 98.1035 95.6939Z" fill="#00C853"/>
<path d="M106.472 87.3253H112.847C114.769 87.3253 116.316 88.8722 116.316 90.7941C116.316 92.716 114.769 94.2628 112.847 94.2628H106.472C104.55 94.2628 103.003 92.716 103.003 90.7941C103.003 88.8722 104.55 87.3253 106.472 87.3253Z" fill="#00C853"/>
<path d="M93.2092 25.9219C95.125 25.9219 96.678 24.3689 96.678 22.4531C96.678 20.5374 95.125 18.9844 93.2092 18.9844C91.2935 18.9844 89.7405 20.5374 89.7405 22.4531C89.7405 24.3689 91.2935 25.9219 93.2092 25.9219Z" fill="#07B7EE"/>
<path d="M93.2092 4.23944C95.1311 4.23944 96.678 5.78632 96.678 7.70819V14.0832C96.678 16.0051 95.1311 17.5519 93.2092 17.5519C91.2874 17.5519 89.7405 16.0051 89.7405 14.0832V7.70819C89.7405 5.78632 91.3108 4.23944 93.2092 4.23944Z" fill="#07B7EE"/>
<path d="M75.0022 22.4531C75.0022 20.5313 76.5491 18.9844 78.471 18.9844H84.846C86.7678 18.9844 88.3147 20.5313 88.3147 22.4531C88.3147 24.375 86.7678 25.9219 84.846 25.9219H78.471C76.5725 25.9219 75.0022 24.375 75.0022 22.4531Z" fill="#07B7EE"/>
<path d="M93.2092 40.6654C91.2874 40.6654 89.7405 39.1186 89.7405 37.1967V30.8217C89.7405 28.8998 91.2874 27.3529 93.2092 27.3529C95.1311 27.3529 96.678 28.8998 96.678 30.8217V37.1967C96.7014 39.1186 95.1311 40.6654 93.2092 40.6654Z" fill="#07B7EE"/>
<path d="M111.449 22.4531C111.449 24.375 109.902 25.9219 107.98 25.9219H101.605C99.6833 25.9219 98.1365 24.375 98.1365 22.4531C98.1365 20.5313 99.6833 18.9844 101.605 18.9844H107.98C109.879 18.9844 111.449 20.5313 111.449 22.4531Z" fill="#07B7EE"/>
<path d="M37.799 71.1776C36.0177 70.498 35.1037 68.5058 35.7834 66.7011C36.1115 65.8573 36.7209 65.1776 37.5412 64.8026C40.5646 63.373 44.2677 61.0292 44.7365 57.9589C45.1818 55.123 42.7677 52.123 41.7365 51.162C40.6349 50.248 34.4943 44.6933 35.924 38.5058C36.8849 34.3808 40.7756 31.4511 47.5021 29.8339C51.9552 28.7558 53.7834 27.3495 53.9943 26.3651C54.3224 24.912 52.1427 22.1933 50.4787 20.8339C49.0021 19.6151 48.7912 17.4355 50.0099 15.9589C51.2052 14.5058 53.3615 14.2714 54.838 15.4433C55.588 16.0526 62.1505 21.5839 60.7443 27.8651C59.8068 31.9901 55.9162 34.8964 49.1193 36.537C44.713 37.5917 42.8849 39.0448 42.6505 40.0292C42.299 41.5526 44.549 44.4589 46.2365 45.8886L46.3537 45.9823C46.6115 46.2167 52.6349 51.8183 51.5568 58.9433C50.8302 63.8417 47.0802 67.8964 40.4709 71.037C39.6506 71.4823 38.6662 71.5058 37.799 71.1776Z" fill="#00C853"/>
<path d="M81.4225 119.768C80.6021 120.073 79.7115 120.096 78.8678 119.815C77.1803 119.229 76.524 117.471 77.3912 115.924C78.8912 113.229 80.3678 109.526 78.9146 107.323C77.5553 105.284 73.8756 104.838 72.4928 104.838C71.0865 104.909 62.9537 105.096 60.3521 100.362C58.6178 97.1977 59.9068 93.0258 64.1725 87.9868C66.985 84.6587 67.5709 82.6665 67.1725 81.9399C66.5631 80.8383 63.2115 80.4165 61.1256 80.5571C59.2506 80.6977 57.7506 79.4555 57.7975 77.8149C57.8443 76.1743 59.4146 74.7212 61.2896 74.5805C62.2506 74.5102 70.6646 74.0649 73.36 78.8462C75.1178 81.9868 73.8053 86.1587 69.4928 91.2446C66.7037 94.5493 66.1412 96.5415 66.5631 97.2915C67.1959 98.4633 70.6881 98.9321 72.8678 98.8149H73.0318C73.3834 98.8149 81.4225 98.7212 84.8678 103.831C87.235 107.346 86.7662 112.127 83.485 118.057C82.9928 118.877 82.2662 119.463 81.4225 119.768Z" fill="#FCB424"/>
<path d="M62.5816 69.8181C60.73 69.7477 59.3003 68.1774 59.3707 66.3259C59.3941 65.529 59.7222 64.7556 60.2613 64.1696C60.4488 63.9587 65.0191 59.1071 73.5035 54.8415C78.4722 52.3571 83.7457 50.5759 89.2066 49.5446C96.2144 48.2556 103.386 48.1384 110.418 49.1931C112.246 49.4509 113.511 51.1618 113.253 52.9899C112.996 54.8181 111.285 56.0837 109.457 55.8259C97.7378 54.1149 86.7457 55.7556 76.7847 60.7009C69.2847 64.404 65.23 68.6931 65.1831 68.7165C64.5269 69.4899 63.566 69.8649 62.5816 69.8181Z" fill="#9266CC"/>
<path d="M14.9999 75.9387C14.6718 75.9387 14.3437 75.8918 14.039 75.798C12.2577 75.259 11.2499 73.4074 11.789 71.6262C12.9843 67.4543 13.8749 63.1887 14.5077 58.8762C15.7265 50.0637 14.578 45.6574 13.1249 44.4621C11.953 43.5012 9.21084 44.0637 5.64834 45.9855C4.00771 46.8762 1.96865 46.2668 1.10146 44.6262C0.210839 42.9855 0.820214 40.9465 2.46084 40.0793C8.8124 36.634 13.828 36.3527 17.3671 39.2355C21.3749 42.4934 22.6171 49.2434 21.1405 59.8605C20.4843 64.4777 19.4999 69.048 18.2108 73.5246C17.789 74.9543 16.4765 75.9387 14.9999 75.9387Z" fill="#9266CC"/>
<path d="M70.7519 47.2734C73.0948 47.2734 74.9941 45.3741 74.9941 43.0313C74.9941 40.6884 73.0948 38.7891 70.7519 38.7891C68.4091 38.7891 66.5098 40.6884 66.5098 43.0313C66.5098 45.3741 68.4091 47.2734 70.7519 47.2734Z" fill="#FCB424"/>
<path d="M66.5193 8.48437C68.8622 8.48437 70.7615 6.58508 70.7615 4.24219C70.7615 1.89929 68.8622 0 66.5193 0C64.1764 0 62.2771 1.89929 62.2771 4.24219C62.2771 6.58508 64.1764 8.48437 66.5193 8.48437Z" fill="#ED3F03"/>
<path d="M48.2532 111.378C50.8938 111.378 53.0344 109.237 53.0344 106.597C53.0344 103.956 50.8938 101.815 48.2532 101.815C45.6126 101.815 43.4719 103.956 43.4719 106.597C43.4719 109.237 45.6126 111.378 48.2532 111.378Z" fill="#9266CC"/>
<path d="M88.3396 71.4127C90.1777 71.4127 91.6677 69.9226 91.6677 68.0846C91.6677 66.2465 90.1777 64.7564 88.3396 64.7564C86.5015 64.7564 85.0115 66.2465 85.0115 68.0846C85.0115 69.9226 86.5015 71.4127 88.3396 71.4127Z" fill="#07B7EE"/>
<path d="M109.669 12.1186C111.676 12.1186 113.302 10.4921 113.302 8.48575C113.302 6.4794 111.676 4.85294 109.669 4.85294C107.663 4.85294 106.036 6.4794 106.036 8.48575C106.036 10.4921 107.663 12.1186 109.669 12.1186Z" fill="#9266CC"/>
</svg>
