<svg width="24" height="24" viewBox="0 0 24 24" fill="none" xmlns="http://www.w3.org/2000/svg">
<path d="M20.1984 7.88631C19.9056 6.68151 19.4664 5.51271 18.8904 4.40391C18.6984 4.03431 18.3144 3.80151 17.8992 3.80151H6.5712C6.156 3.80151 5.77441 4.03191 5.58001 4.39911L5.57521 4.41111C4.39921 6.64551 3.78481 9.13191 3.78481 11.6567V21.3959C3.78481 22.1711 4.41361 22.7999 5.18641 22.7999H19.2408C20.016 22.7999 20.6424 22.1711 20.6424 21.3959V11.5799C20.6424 10.3295 20.4912 9.09111 20.1984 7.88631ZM9.42 8.00151C9.42 7.79031 9.5808 7.61751 9.78 7.61751H10.056C10.2552 7.61751 10.416 7.79031 10.416 8.00151V10.0127C10.416 10.1519 10.3104 10.2623 10.1808 10.2623H9.6552C9.5256 10.2623 9.42 10.1519 9.42 10.0127V8.00151ZM11.7792 10.1135C11.7792 10.876 11.3921 11.5348 10.8386 11.8307C10.7242 11.8919 10.6536 12.0114 10.6536 12.1413V18.2615C10.6536 18.6604 10.3301 18.9839 9.93121 18.9839H9.9072C9.5064 18.9839 9.1824 18.6599 9.1824 18.2615V12.1413C9.1824 12.0114 9.11184 11.8919 8.99736 11.8307C8.44392 11.5348 8.05681 10.876 8.05681 10.1135V8.04231C8.05681 7.80951 8.21761 7.61751 8.4168 7.61751H8.6952C8.8944 7.61751 9.0552 7.80951 9.0552 8.04231V10.0631C9.0552 10.3257 9.26784 10.5383 9.53041 10.5383H10.3056C10.5682 10.5383 10.7808 10.3257 10.7808 10.0631V8.04231C10.7808 7.80951 10.9416 7.61751 11.1408 7.61751H11.4168C11.616 7.61751 11.7792 7.80951 11.7792 8.04231V10.1135ZM15.4358 11.6495C15.3434 11.7134 15.2928 11.8221 15.2928 11.9344V18.2615C15.2928 18.4607 15.2112 18.6407 15.0816 18.7727C14.9496 18.9023 14.7696 18.9839 14.5704 18.9839C14.1696 18.9839 13.8456 18.6599 13.8456 18.2615V11.9344C13.8456 11.8221 13.795 11.7134 13.7026 11.6495C13.1462 11.2646 12.768 10.5222 12.768 9.66711C12.768 8.41911 13.5744 7.61751 14.5704 7.61751C15.564 7.61751 16.3704 8.41911 16.3704 9.66711C16.3704 10.522 15.9922 11.2646 15.4358 11.6495Z" fill="#030303"/>
<path d="M17.9703 3.31003H6.50185C6.16681 3.31003 5.89537 3.03859 5.89537 2.70355V1.80643C5.89537 1.47139 6.16681 1.19995 6.50185 1.19995H17.9703C18.3053 1.19995 18.5767 1.47139 18.5767 1.80643V2.70355C18.5767 3.03859 18.305 3.31003 17.9703 3.31003Z" fill="#030303"/>
</svg>
