<svg width="24" height="24" viewBox="0 0 24 24" fill="none" xmlns="http://www.w3.org/2000/svg">
<path d="M12.29 2.25C9.67 2.25 7.54 4.38 7.54 7C7.54 9.57 9.55 11.65 12.17 11.74C12.25 11.73 12.33 11.73 12.39 11.74H12.46C13.6894 11.699 14.8546 11.1815 15.7093 10.2969C16.564 9.41234 17.0412 8.23004 17.04 7C17.04 4.38 14.91 2.25 12.29 2.25ZM17.37 14.399C14.58 12.539 10.03 12.539 7.22 14.399C5.95 15.249 5.25 16.399 5.25 17.629C5.25 18.859 5.95 19.999 7.21 20.839C8.61 21.779 10.45 22.249 12.29 22.249C14.13 22.249 15.97 21.779 17.37 20.839C18.63 19.989 19.33 18.849 19.33 17.609C19.32 16.379 18.63 15.239 17.37 14.399Z" fill="#030303"/>
</svg>
