<svg width="32" height="32" viewBox="0 0 32 32" fill="none" xmlns="http://www.w3.org/2000/svg">
<path d="M29.8129 11.026L29.4262 7.33268C28.8662 3.30602 27.0395 1.66602 23.1329 1.66602H8.7862C4.8662 1.66602 3.05287 3.30602 2.47953 7.37268L2.11953 11.0393C1.9862 12.466 2.37287 13.8527 3.21287 14.9327C4.2262 16.2527 5.7862 16.9993 7.51953 16.9993C9.19953 16.9993 10.8129 16.1593 11.8262 14.8127C12.2889 15.4917 12.9117 16.0464 13.6395 16.4278C14.3673 16.8091 15.1779 17.0054 15.9995 16.9993C17.7195 16.9993 19.2262 16.1993 20.1462 14.866C21.1729 16.186 22.7595 16.9993 24.4129 16.9993C26.1862 16.9993 27.7862 16.2127 28.7862 14.826C29.5862 13.7593 29.9462 12.4127 29.8129 11.026ZM15.1329 22.2127C14.3143 22.3001 13.5573 22.6879 13.0081 23.3012C12.4589 23.9144 12.1565 24.7095 12.1595 25.5327V29.186C12.1595 29.546 12.4529 29.8393 12.8129 29.8393H19.1729C19.5329 29.8393 19.8262 29.546 19.8262 29.186V25.9993C19.8395 23.2127 18.1995 21.8927 15.1329 22.2127Z" fill="#C8102E"/>
<path d="M28.4945 19.1962V23.1695C28.4945 26.8495 25.5078 29.8362 21.8278 29.8362C21.6545 29.8362 21.4884 29.7674 21.3658 29.6448C21.2433 29.5223 21.1745 29.3561 21.1745 29.1829V25.9962C21.1745 24.2895 20.6545 22.9562 19.6411 22.0495C18.7478 21.2362 17.5345 20.8362 16.0278 20.8362C15.6945 20.8362 15.3611 20.8495 15.0011 20.8895C13.8537 21.007 12.791 21.5471 12.0196 22.4047C11.2483 23.2623 10.8235 24.3761 10.8278 25.5295V29.1829C10.8278 29.5429 10.5345 29.8362 10.1745 29.8362C6.49448 29.8362 3.50781 26.8495 3.50781 23.1695V19.2229C3.5079 19.0088 3.55953 18.7979 3.65833 18.608C3.75713 18.4181 3.9002 18.2548 4.07544 18.1319C4.25068 18.009 4.45294 17.93 4.66512 17.9018C4.87731 17.8735 5.09317 17.8968 5.29448 17.9695C5.65448 18.0895 6.01448 18.1829 6.38781 18.2362C6.54781 18.2629 6.72115 18.2895 6.88115 18.2895C7.09448 18.3162 7.30781 18.3295 7.52115 18.3295C9.06781 18.3295 10.5878 17.7562 11.7878 16.7695C12.9345 17.7562 14.4278 18.3295 16.0011 18.3295C17.5878 18.3295 19.0545 17.7829 20.2011 16.7962C21.4011 17.7695 22.8945 18.3295 24.4145 18.3295C24.6545 18.3295 24.8945 18.3162 25.1211 18.2895C25.6716 18.2438 26.2138 18.1273 26.7345 17.9429C26.9343 17.8744 27.1475 17.8546 27.3565 17.885C27.5655 17.9154 27.7642 17.9952 27.9363 18.1177C28.1083 18.2402 28.2487 18.4019 28.3457 18.5895C28.4428 18.777 28.4938 18.985 28.4945 19.1962Z" fill="#C8102E"/>
</svg>
