<svg width="34" height="34" viewBox="0 0 34 34" fill="none" xmlns="http://www.w3.org/2000/svg">
<path d="M29.2188 18.0625C30.9772 18.0625 32.4062 19.4916 32.4062 21.25V24.4375H31.2534L30.2812 29.75H28.1562L27.1841 24.4375H26.0312V21.25C26.0312 19.4916 27.4603 18.0625 29.2188 18.0625Z" fill="#A3BBD3"/>
<path d="M29.2188 18.0625V29.75H30.2812L31.2534 24.4375H32.4062V21.25C32.4062 19.4916 30.9772 18.0625 29.2188 18.0625Z" fill="#8AACC4"/>
<path d="M23.9062 4.25L24.5331 6.27937H26.5625L24.9209 7.53313L25.5478 9.5625L23.9062 8.30875L22.2647 9.5625L22.8916 7.53313L21.25 6.27937H23.2794L23.9062 4.25Z" fill="#FCDC7A"/>
<path d="M30.2812 6.375L30.7806 8.00063H32.4062L31.0941 8.99938L31.5934 10.625L30.2812 9.62094L28.9691 10.625L29.4684 8.99938L28.1562 8.00063H29.7819L30.2812 6.375Z" fill="#FCDC7A"/>
<path d="M10.0938 4.25L9.46687 6.27937H7.4375L9.07906 7.53313L8.45219 9.5625L10.0938 8.30875L11.7353 9.5625L11.1084 7.53313L12.75 6.27937H10.7206L10.0938 4.25Z" fill="#FCDC7A"/>
<path d="M3.71875 6.375L3.21938 8.00063H1.59375L2.90594 8.99938L2.40656 10.625L3.71875 9.62094L5.03094 10.625L4.53156 8.99938L5.84375 8.00063H4.21813L3.71875 6.375Z" fill="#FCDC7A"/>
<path d="M17 1.59375L17.8766 4.43594H20.7188L18.4184 6.18906L19.3003 9.03125L17 7.27812L14.6997 9.03125L15.5816 6.18906L13.2812 4.43594H16.1234L17 1.59375Z" fill="#FCDC7A"/>
<path d="M4.78125 18.0625C6.53969 18.0625 7.96875 19.4916 7.96875 21.25V24.4375H6.81594L5.84375 29.75H3.71875L2.74656 24.4375H1.59375V21.25C1.59375 19.4916 3.02281 18.0625 4.78125 18.0625Z" fill="#A3BBD3"/>
<path d="M4.78125 18.0625V29.75H5.84375L6.81594 24.4375H7.96875V21.25C7.96875 19.4916 6.53969 18.0625 4.78125 18.0625Z" fill="#8AACC4"/>
<path d="M4.78125 18.0625C5.66145 18.0625 6.375 17.349 6.375 16.4688C6.375 15.5885 5.66145 14.875 4.78125 14.875C3.90105 14.875 3.1875 15.5885 3.1875 16.4688C3.1875 17.349 3.90105 18.0625 4.78125 18.0625Z" fill="#E8B485"/>
<path d="M4.78125 14.875V18.0625C5.66312 18.0625 6.375 17.3506 6.375 16.4688C6.375 15.5869 5.66312 14.875 4.78125 14.875Z" fill="#E0A26E"/>
<path d="M23.375 20.1875C25.1334 20.1875 26.5625 21.6166 26.5625 23.375V26.5625H25.4097L24.4375 31.875H22.3125L21.3403 26.5625H20.1875V23.375C20.1875 21.6166 21.6166 20.1875 23.375 20.1875Z" fill="#A3BBD3"/>
<path d="M23.375 20.1875V31.875H24.4375L25.4097 26.5625H26.5625V23.375C26.5625 21.6166 25.1334 20.1875 23.375 20.1875Z" fill="#8AACC4"/>
<path d="M29.2188 18.0625C30.099 18.0625 30.8125 17.349 30.8125 16.4688C30.8125 15.5885 30.099 14.875 29.2188 14.875C28.3385 14.875 27.625 15.5885 27.625 16.4688C27.625 17.349 28.3385 18.0625 29.2188 18.0625Z" fill="#E8B485"/>
<path d="M29.2188 14.875V18.0625C30.1006 18.0625 30.8125 17.3506 30.8125 16.4688C30.8125 15.5869 30.1006 14.875 29.2188 14.875Z" fill="#E0A26E"/>
<path d="M17 20.7188C18.7584 20.7188 20.1875 22.1478 20.1875 23.9062V27.0938H19.0347L18.0625 32.4062H15.9375L14.9653 27.0938H13.8125V23.9062C13.8125 22.1478 15.2416 20.7188 17 20.7188Z" fill="#A3BBD3"/>
<path d="M17 20.7188V32.4062H18.0625L19.0347 27.0938H20.1875V23.9062C20.1875 22.1478 18.7584 20.7188 17 20.7188Z" fill="#8AACC4"/>
<path d="M17 20.7188C17.8802 20.7188 18.5938 20.0052 18.5938 19.125C18.5938 18.2448 17.8802 17.5312 17 17.5312C16.1198 17.5312 15.4062 18.2448 15.4062 19.125C15.4062 20.0052 16.1198 20.7188 17 20.7188Z" fill="#E8B485"/>
<path d="M10.625 20.1875C12.3834 20.1875 13.8125 21.6166 13.8125 23.375V26.5625H12.6597L11.6875 31.875H9.5625L8.59031 26.5625H7.4375V23.375C7.4375 21.6166 8.86656 20.1875 10.625 20.1875Z" fill="#A3BBD3"/>
<path d="M10.625 20.1875V31.875H11.6875L12.6597 26.5625H13.8125V23.375C13.8125 21.6166 12.3834 20.1875 10.625 20.1875Z" fill="#8AACC4"/>
<path d="M10.625 20.1875C11.5052 20.1875 12.2188 19.474 12.2188 18.5938C12.2188 17.7135 11.5052 17 10.625 17C9.7448 17 9.03125 17.7135 9.03125 18.5938C9.03125 19.474 9.7448 20.1875 10.625 20.1875Z" fill="#E8B485"/>
<path d="M10.625 17V20.1875C11.5069 20.1875 12.2188 19.4756 12.2188 18.5938C12.2188 17.7119 11.5069 17 10.625 17Z" fill="#E0A26E"/>
<path d="M17 17.5312V20.7188C17.8819 20.7188 18.5938 20.0069 18.5938 19.125C18.5938 18.2431 17.8819 17.5312 17 17.5312Z" fill="#E0A26E"/>
<path d="M23.375 20.1875C24.2552 20.1875 24.9688 19.474 24.9688 18.5938C24.9688 17.7135 24.2552 17 23.375 17C22.4948 17 21.7812 17.7135 21.7812 18.5938C21.7812 19.474 22.4948 20.1875 23.375 20.1875Z" fill="#E8B485"/>
<path d="M23.375 17V20.1875C24.2569 20.1875 24.9688 19.4756 24.9688 18.5938C24.9688 17.7119 24.2569 17 23.375 17Z" fill="#E0A26E"/>
</svg>
